<svg width="800" height="800" viewBox="0 0 800 800" fill="none" xmlns="http://www.w3.org/2000/svg">
<circle cx="399.5" cy="400.5" r="320.5" fill="#2E8555"/>
<line x1="270" y1="95" x2="270" y2="701" stroke="white" stroke-width="50" stroke-linecap="round"/>
<line x1="205" y1="126" x2="205" y2="673" stroke="white" stroke-width="50" stroke-linecap="round"/>
<path d="M769.5 400.5C769.5 604.845 603.845 770.5 399.5 770.5C195.155 770.5 29.5 604.845 29.5 400.5C29.5 196.155 195.155 30.5 399.5 30.5C603.845 30.5 769.5 196.155 769.5 400.5ZM76.65 400.5C76.65 578.805 221.195 723.35 399.5 723.35C577.805 723.35 722.35 578.805 722.35 400.5C722.35 222.195 577.805 77.65 399.5 77.65C221.195 77.65 76.65 222.195 76.65 400.5Z" fill="white" stroke="#2E8555" stroke-width="5"/>
<path d="M274 603C300.201 590.784 362.431 504.72 468 554C538.18 586.761 568 582 568 582C593.806 582 664.29 575.346 728 498" stroke="white" stroke-width="50" stroke-linecap="round"/>
</svg>
