<svg width="2719" height="1532" viewBox="0 0 2719 1532" fill="none" xmlns="http://www.w3.org/2000/svg">
<rect width="2719" height="1532" fill="#3A3A3A"/>
<g filter="url(#filter0_d_301_7)">
<path d="M946.6 558.6H1021.6V922.2H1239.4V987H946.6V558.6ZM1523.33 918C1523.33 926.4 1524.33 932.4 1526.33 936C1528.73 939.6 1533.13 941.4 1539.53 941.4C1541.53 941.4 1543.93 941.4 1546.73 941.4C1549.53 941.4 1552.73 941 1556.33 940.2V987.6C1553.93 988.4 1550.73 989.2 1546.73 990C1543.13 991.2 1539.33 992.2 1535.33 993C1531.33 993.8 1527.33 994.4 1523.33 994.8C1519.33 995.2 1515.93 995.4 1513.13 995.4C1499.13 995.4 1487.53 992.6 1478.33 987C1469.13 981.4 1463.13 971.6 1460.33 957.6C1446.73 970.8 1429.93 980.4 1409.93 986.4C1390.33 992.4 1371.33 995.4 1352.93 995.4C1338.93 995.4 1325.53 993.4 1312.73 989.4C1299.93 985.8 1288.53 980.4 1278.53 973.2C1268.93 965.6 1261.13 956.2 1255.13 945C1249.53 933.4 1246.73 920 1246.73 904.8C1246.73 885.6 1250.13 870 1256.93 858C1264.13 846 1273.33 836.6 1284.53 829.8C1296.13 823 1308.93 818.2 1322.93 815.4C1337.33 812.2 1351.73 809.8 1366.13 808.2C1378.53 805.8 1390.33 804.2 1401.53 803.4C1412.73 802.2 1422.53 800.4 1430.93 798C1439.73 795.6 1446.53 792 1451.33 787.2C1456.53 782 1459.13 774.4 1459.13 764.4C1459.13 755.6 1456.93 748.4 1452.53 742.8C1448.53 737.2 1443.33 733 1436.93 730.2C1430.93 727 1424.13 725 1416.53 724.2C1408.93 723 1401.73 722.4 1394.93 722.4C1375.73 722.4 1359.93 726.4 1347.53 734.4C1335.13 742.4 1328.13 754.8 1326.53 771.6H1258.13C1259.33 751.6 1264.13 735 1272.53 721.8C1280.93 708.6 1291.53 698 1304.33 690C1317.53 682 1332.33 676.4 1348.73 673.2C1365.13 670 1381.93 668.4 1399.13 668.4C1414.33 668.4 1429.33 670 1444.13 673.2C1458.93 676.4 1472.13 681.6 1483.73 688.8C1495.73 696 1505.33 705.4 1512.53 717C1519.73 728.2 1523.33 742 1523.33 758.4V918ZM1454.93 831.6C1444.53 838.4 1431.73 842.6 1416.53 844.2C1401.33 845.4 1386.13 847.4 1370.93 850.2C1363.73 851.4 1356.73 853.2 1349.93 855.6C1343.13 857.6 1337.13 860.6 1331.93 864.6C1326.73 868.2 1322.53 873.2 1319.33 879.6C1316.53 885.6 1315.13 893 1315.13 901.8C1315.13 909.4 1317.33 915.8 1321.73 921C1326.13 926.2 1331.33 930.4 1337.33 933.6C1343.73 936.4 1350.53 938.4 1357.73 939.6C1365.33 940.8 1372.13 941.4 1378.13 941.4C1385.73 941.4 1393.93 940.4 1402.73 938.4C1411.53 936.4 1419.73 933 1427.33 928.2C1435.33 923.4 1441.93 917.4 1447.13 910.2C1452.33 902.6 1454.93 893.4 1454.93 882.6V831.6ZM1578.93 676.8H1643.73V720H1645.53C1650.73 712.4 1656.33 705.4 1662.33 699C1668.33 692.6 1674.93 687.2 1682.13 682.8C1689.73 678.4 1698.33 675 1707.93 672.6C1717.53 669.8 1728.53 668.4 1740.93 668.4C1759.73 668.4 1777.13 672.6 1793.13 681C1809.53 689.4 1821.13 702.4 1827.93 720C1839.53 704 1852.93 691.4 1868.13 682.2C1883.33 673 1902.33 668.4 1925.13 668.4C1957.93 668.4 1983.33 676.4 2001.33 692.4C2019.73 708.4 2028.93 735.2 2028.93 772.8V987H1960.53V805.8C1960.53 793.4 1960.13 782.2 1959.33 772.2C1958.53 761.8 1956.13 753 1952.13 745.8C1948.53 738.2 1942.93 732.4 1935.33 728.4C1927.73 724.4 1917.33 722.4 1904.13 722.4C1880.93 722.4 1864.13 729.6 1853.73 744C1843.33 758.4 1838.13 778.8 1838.13 805.2V987H1769.73V787.8C1769.73 766.2 1765.73 750 1757.73 739.2C1750.13 728 1735.93 722.4 1715.13 722.4C1706.33 722.4 1697.73 724.2 1689.33 727.8C1681.33 731.4 1674.13 736.6 1667.73 743.4C1661.73 750.2 1656.73 758.6 1652.73 768.6C1649.13 778.6 1647.33 790 1647.33 802.8V987H1578.93V676.8ZM2084.8 558.6H2153.2V623.4H2084.8V558.6ZM2084.8 676.8H2153.2V987H2084.8V676.8ZM2209.73 676.8H2274.53V722.4L2275.73 723.6C2286.13 706.4 2299.73 693 2316.53 683.4C2333.33 673.4 2351.93 668.4 2372.33 668.4C2406.33 668.4 2433.13 677.2 2452.73 694.8C2472.33 712.4 2482.13 738.8 2482.13 774V987H2413.73V792C2412.93 767.6 2407.73 750 2398.13 739.2C2388.53 728 2373.53 722.4 2353.13 722.4C2341.53 722.4 2331.13 724.6 2321.93 729C2312.73 733 2304.93 738.8 2298.53 746.4C2292.13 753.6 2287.13 762.2 2283.53 772.2C2279.93 782.2 2278.13 792.8 2278.13 804V987H2209.73V676.8Z" fill="white"/>
<path d="M946.6 558.6V557.6H945.6V558.6H946.6ZM1021.6 558.6H1022.6V557.6H1021.6V558.6ZM1021.6 922.2H1020.6V923.2H1021.6V922.2ZM1239.4 922.2H1240.4V921.2H1239.4V922.2ZM1239.4 987V988H1240.4V987H1239.4ZM946.6 987H945.6V988H946.6V987ZM946.6 559.6H1021.6V557.6H946.6V559.6ZM1020.6 558.6V922.2H1022.6V558.6H1020.6ZM1021.6 923.2H1239.4V921.2H1021.6V923.2ZM1238.4 922.2V987H1240.4V922.2H1238.4ZM1239.4 986H946.6V988H1239.4V986ZM947.6 987V558.6H945.6V987H947.6ZM1526.33 936L1525.46 936.486L1525.48 936.521L1525.5 936.555L1526.33 936ZM1556.33 940.2H1557.33V938.953L1556.11 939.224L1556.33 940.2ZM1556.33 987.6L1556.65 988.549L1557.33 988.321V987.6H1556.33ZM1546.73 990L1546.54 989.019L1546.47 989.032L1546.42 989.051L1546.73 990ZM1535.33 993L1535.53 993.981L1535.33 993ZM1523.33 994.8L1523.43 995.795L1523.33 994.8ZM1460.33 957.6L1461.31 957.404L1460.95 955.604L1459.63 956.882L1460.33 957.6ZM1409.93 986.4L1409.64 985.442L1409.64 985.444L1409.93 986.4ZM1312.73 989.4L1313.03 988.445L1313.02 988.441L1313 988.437L1312.73 989.4ZM1278.53 973.2L1277.91 973.984L1277.93 973.998L1277.95 974.012L1278.53 973.2ZM1255.13 945L1254.23 945.435L1254.24 945.454L1254.25 945.472L1255.13 945ZM1256.93 858L1256.07 857.486L1256.07 857.496L1256.06 857.507L1256.93 858ZM1284.53 829.8L1284.03 828.937L1284.02 828.941L1284.01 828.945L1284.53 829.8ZM1322.93 815.4L1323.13 816.381L1323.14 816.378L1323.15 816.376L1322.93 815.4ZM1366.13 808.2L1366.24 809.194L1366.28 809.189L1366.32 809.182L1366.13 808.2ZM1401.53 803.4L1401.6 804.397L1401.62 804.396L1401.64 804.394L1401.53 803.4ZM1430.93 798L1430.67 797.035L1430.66 797.038L1430.93 798ZM1451.33 787.2L1452.04 787.907L1451.33 787.2ZM1452.53 742.8L1451.72 743.381L1451.73 743.4L1451.74 743.418L1452.53 742.8ZM1436.93 730.2L1436.46 731.082L1436.49 731.101L1436.53 731.116L1436.93 730.2ZM1416.53 724.2L1416.38 725.188L1416.4 725.192L1416.43 725.194L1416.53 724.2ZM1347.53 734.4L1346.99 733.56L1347.53 734.4ZM1326.53 771.6V772.6H1327.44L1327.53 771.695L1326.53 771.6ZM1258.13 771.6L1257.13 771.54L1257.07 772.6H1258.13V771.6ZM1272.53 721.8L1271.69 721.263L1272.53 721.8ZM1304.33 690L1303.81 689.145L1303.8 689.152L1304.33 690ZM1348.73 673.2L1348.92 674.181L1348.73 673.2ZM1444.13 673.2L1443.92 674.177L1444.13 673.2ZM1483.73 688.8L1483.2 689.65L1483.21 689.654L1483.22 689.658L1483.73 688.8ZM1512.53 717L1511.68 717.527L1511.69 717.534L1511.69 717.541L1512.53 717ZM1454.93 831.6H1455.93V829.751L1454.38 830.763L1454.93 831.6ZM1416.53 844.2L1416.61 845.197L1416.62 845.196L1416.64 845.194L1416.53 844.2ZM1370.93 850.2L1371.1 851.186L1371.1 851.185L1371.11 851.183L1370.93 850.2ZM1349.93 855.6L1350.21 856.559L1350.24 856.552L1350.26 856.543L1349.93 855.6ZM1331.93 864.6L1332.5 865.422L1332.52 865.408L1332.54 865.393L1331.93 864.6ZM1319.33 879.6L1318.44 879.153L1318.43 879.165L1318.43 879.177L1319.33 879.6ZM1321.73 921L1320.97 921.646L1321.73 921ZM1337.33 933.6L1336.86 934.482L1336.89 934.501L1336.93 934.516L1337.33 933.6ZM1357.73 939.6L1357.57 940.586L1357.58 940.588L1357.73 939.6ZM1402.73 938.4L1402.95 939.375L1402.73 938.4ZM1427.33 928.2L1426.82 927.343L1426.81 927.348L1426.8 927.354L1427.33 928.2ZM1447.13 910.2L1447.94 910.785L1447.95 910.775L1447.96 910.765L1447.13 910.2ZM1522.33 918C1522.33 926.428 1523.33 932.649 1525.46 936.486L1527.21 935.514C1525.34 932.151 1524.33 926.372 1524.33 918H1522.33ZM1525.5 936.555C1528.16 940.55 1532.97 942.4 1539.53 942.4V940.4C1533.29 940.4 1529.3 938.65 1527.16 935.445L1525.5 936.555ZM1539.53 942.4C1539.54 942.4 1539.54 942.4 1539.54 942.4C1539.55 942.4 1539.55 942.4 1539.55 942.4C1539.56 942.4 1539.56 942.4 1539.57 942.4C1539.57 942.4 1539.57 942.4 1539.58 942.4C1539.58 942.4 1539.59 942.4 1539.59 942.4C1539.59 942.4 1539.6 942.4 1539.6 942.4C1539.61 942.4 1539.61 942.4 1539.61 942.4C1539.62 942.4 1539.62 942.4 1539.63 942.4C1539.63 942.4 1539.63 942.4 1539.64 942.4C1539.64 942.4 1539.64 942.4 1539.65 942.4C1539.65 942.4 1539.66 942.4 1539.66 942.4C1539.66 942.4 1539.67 942.4 1539.67 942.4C1539.68 942.4 1539.68 942.4 1539.68 942.4C1539.69 942.4 1539.69 942.4 1539.7 942.4C1539.7 942.4 1539.7 942.4 1539.71 942.4C1539.71 942.4 1539.72 942.4 1539.72 942.4C1539.72 942.4 1539.73 942.4 1539.73 942.4C1539.74 942.4 1539.74 942.4 1539.74 942.4C1539.75 942.4 1539.75 942.4 1539.76 942.4C1539.76 942.4 1539.76 942.4 1539.77 942.4C1539.77 942.4 1539.78 942.4 1539.78 942.4C1539.78 942.4 1539.79 942.4 1539.79 942.4C1539.8 942.4 1539.8 942.4 1539.8 942.4C1539.81 942.4 1539.81 942.4 1539.82 942.4C1539.82 942.4 1539.82 942.4 1539.83 942.4C1539.83 942.4 1539.84 942.4 1539.84 942.4C1539.84 942.4 1539.85 942.4 1539.85 942.4C1539.85 942.4 1539.86 942.4 1539.86 942.4C1539.87 942.4 1539.87 942.4 1539.87 942.4C1539.88 942.4 1539.88 942.4 1539.89 942.4C1539.89 942.4 1539.89 942.4 1539.9 942.4C1539.9 942.4 1539.91 942.4 1539.91 942.4C1539.91 942.4 1539.92 942.4 1539.92 942.4C1539.93 942.4 1539.93 942.4 1539.93 942.4C1539.94 942.4 1539.94 942.4 1539.95 942.4C1539.95 942.4 1539.96 942.4 1539.96 942.4C1539.96 942.4 1539.97 942.4 1539.97 942.4C1539.98 942.4 1539.98 942.4 1539.98 942.4C1539.99 942.4 1539.99 942.4 1540 942.4C1540 942.4 1540 942.4 1540.01 942.4C1540.01 942.4 1540.02 942.4 1540.02 942.4C1540.02 942.4 1540.03 942.4 1540.03 942.4C1540.04 942.4 1540.04 942.4 1540.04 942.4C1540.05 942.4 1540.05 942.4 1540.06 942.4C1540.06 942.4 1540.06 942.4 1540.07 942.4C1540.07 942.4 1540.08 942.4 1540.08 942.4C1540.08 942.4 1540.09 942.4 1540.09 942.4C1540.1 942.4 1540.1 942.4 1540.1 942.4C1540.11 942.4 1540.11 942.4 1540.12 942.4C1540.12 942.4 1540.12 942.4 1540.13 942.4C1540.13 942.4 1540.14 942.4 1540.14 942.4C1540.14 942.4 1540.15 942.4 1540.15 942.4C1540.16 942.4 1540.16 942.4 1540.17 942.4C1540.17 942.4 1540.17 942.4 1540.18 942.4C1540.18 942.4 1540.19 942.4 1540.19 942.4C1540.19 942.4 1540.2 942.4 1540.2 942.4C1540.21 942.4 1540.21 942.4 1540.21 942.4C1540.22 942.4 1540.22 942.4 1540.23 942.4C1540.23 942.4 1540.23 942.4 1540.24 942.4C1540.24 942.4 1540.25 942.4 1540.25 942.4C1540.25 942.4 1540.26 942.4 1540.26 942.4C1540.27 942.4 1540.27 942.4 1540.28 942.4C1540.28 942.4 1540.28 942.4 1540.29 942.4C1540.29 942.4 1540.3 942.4 1540.3 942.4C1540.3 942.4 1540.31 942.4 1540.31 942.4C1540.32 942.4 1540.32 942.4 1540.32 942.4C1540.33 942.4 1540.33 942.4 1540.34 942.4C1540.34 942.4 1540.35 942.4 1540.35 942.4C1540.35 942.4 1540.36 942.4 1540.36 942.4C1540.37 942.4 1540.37 942.4 1540.37 942.4C1540.38 942.4 1540.38 942.4 1540.39 942.4C1540.39 942.4 1540.39 942.4 1540.4 942.4C1540.4 942.4 1540.41 942.4 1540.41 942.4C1540.42 942.4 1540.42 942.4 1540.42 942.4C1540.43 942.4 1540.43 942.4 1540.44 942.4C1540.44 942.4 1540.44 942.4 1540.45 942.4C1540.45 942.4 1540.46 942.4 1540.46 942.4C1540.46 942.4 1540.47 942.4 1540.47 942.4C1540.48 942.4 1540.48 942.4 1540.49 942.4C1540.49 942.4 1540.49 942.4 1540.5 942.4C1540.5 942.4 1540.51 942.4 1540.51 942.4C1540.51 942.4 1540.52 942.4 1540.52 942.4C1540.53 942.4 1540.53 942.4 1540.54 942.4C1540.54 942.4 1540.54 942.4 1540.55 942.4C1540.55 942.4 1540.56 942.4 1540.56 942.4C1540.56 942.4 1540.57 942.4 1540.57 942.4C1540.58 942.4 1540.58 942.4 1540.59 942.4C1540.59 942.4 1540.59 942.4 1540.6 942.4C1540.6 942.4 1540.61 942.4 1540.61 942.4C1540.61 942.4 1540.62 942.4 1540.62 942.4C1540.63 942.4 1540.63 942.4 1540.64 942.4C1540.64 942.4 1540.64 942.4 1540.65 942.4C1540.65 942.4 1540.66 942.4 1540.66 942.4C1540.66 942.4 1540.67 942.4 1540.67 942.4C1540.68 942.4 1540.68 942.4 1540.69 942.4C1540.69 942.4 1540.69 942.4 1540.7 942.4C1540.7 942.4 1540.71 942.4 1540.71 942.4C1540.72 942.4 1540.72 942.4 1540.72 942.4C1540.73 942.4 1540.73 942.4 1540.74 942.4C1540.74 942.4 1540.74 942.4 1540.75 942.4C1540.75 942.4 1540.76 942.4 1540.76 942.4C1540.77 942.4 1540.77 942.4 1540.77 942.4C1540.78 942.4 1540.78 942.4 1540.79 942.4C1540.79 942.4 1540.8 942.4 1540.8 942.4C1540.8 942.4 1540.81 942.4 1540.81 942.4C1540.82 942.4 1540.82 942.4 1540.82 942.4C1540.83 942.4 1540.83 942.4 1540.84 942.4C1540.84 942.4 1540.85 942.4 1540.85 942.4C1540.85 942.4 1540.86 942.4 1540.86 942.4C1540.87 942.4 1540.87 942.4 1540.88 942.4C1540.88 942.4 1540.88 942.4 1540.89 942.4C1540.89 942.4 1540.9 942.4 1540.9 942.4C1540.91 942.4 1540.91 942.4 1540.91 942.4C1540.92 942.4 1540.92 942.4 1540.93 942.4C1540.93 942.4 1540.94 942.4 1540.94 942.4C1540.94 942.4 1540.95 942.4 1540.95 942.4C1540.96 942.4 1540.96 942.4 1540.97 942.4C1540.97 942.4 1540.97 942.4 1540.98 942.4C1540.98 942.4 1540.99 942.4 1540.99 942.4C1540.99 942.4 1541 942.4 1541 942.4C1541.01 942.4 1541.01 942.4 1541.02 942.4C1541.02 942.4 1541.02 942.4 1541.03 942.4C1541.03 942.4 1541.04 942.4 1541.04 942.4C1541.05 942.4 1541.05 942.4 1541.05 942.4C1541.06 942.4 1541.06 942.4 1541.07 942.4C1541.07 942.4 1541.08 942.4 1541.08 942.4C1541.08 942.4 1541.09 942.4 1541.09 942.4C1541.1 942.4 1541.1 942.4 1541.11 942.4C1541.11 942.4 1541.11 942.4 1541.12 942.4C1541.12 942.4 1541.13 942.4 1541.13 942.4C1541.14 942.4 1541.14 942.4 1541.14 942.4C1541.15 942.4 1541.15 942.4 1541.16 942.4C1541.16 942.4 1541.17 942.4 1541.17 942.4C1541.18 942.4 1541.18 942.4 1541.18 942.4C1541.19 942.4 1541.19 942.4 1541.2 942.4C1541.2 942.4 1541.21 942.4 1541.21 942.4C1541.21 942.4 1541.22 942.4 1541.22 942.4C1541.23 942.4 1541.23 942.4 1541.24 942.4C1541.24 942.4 1541.24 942.4 1541.25 942.4C1541.25 942.4 1541.26 942.4 1541.26 942.4C1541.27 942.4 1541.27 942.4 1541.27 942.4C1541.28 942.4 1541.28 942.4 1541.29 942.4C1541.29 942.4 1541.3 942.4 1541.3 942.4C1541.3 942.4 1541.31 942.4 1541.31 942.4C1541.32 942.4 1541.32 942.4 1541.33 942.4C1541.33 942.4 1541.34 942.4 1541.34 942.4C1541.34 942.4 1541.35 942.4 1541.35 942.4C1541.36 942.4 1541.36 942.4 1541.37 942.4C1541.37 942.4 1541.37 942.4 1541.38 942.4C1541.38 942.4 1541.39 942.4 1541.39 942.4C1541.4 942.4 1541.4 942.4 1541.41 942.4C1541.41 942.4 1541.41 942.4 1541.42 942.4C1541.42 942.4 1541.43 942.4 1541.43 942.4C1541.44 942.4 1541.44 942.4 1541.44 942.4C1541.45 942.4 1541.45 942.4 1541.46 942.4C1541.46 942.4 1541.47 942.4 1541.47 942.4C1541.48 942.4 1541.48 942.4 1541.48 942.4C1541.49 942.4 1541.49 942.4 1541.5 942.4C1541.5 942.4 1541.51 942.4 1541.51 942.4C1541.51 942.4 1541.52 942.4 1541.52 942.4C1541.53 942.4 1541.53 942.4 1541.54 942.4C1541.54 942.4 1541.55 942.4 1541.55 942.4C1541.55 942.4 1541.56 942.4 1541.56 942.4C1541.57 942.4 1541.57 942.4 1541.58 942.4C1541.58 942.4 1541.59 942.4 1541.59 942.4C1541.59 942.4 1541.6 942.4 1541.6 942.4C1541.61 942.4 1541.61 942.4 1541.62 942.4C1541.62 942.4 1541.62 942.4 1541.63 942.4C1541.63 942.4 1541.64 942.4 1541.64 942.4C1541.65 942.4 1541.65 942.4 1541.66 942.4C1541.66 942.4 1541.66 942.4 1541.67 942.4C1541.67 942.4 1541.68 942.4 1541.68 942.4C1541.69 942.4 1541.69 942.4 1541.7 942.4C1541.7 942.4 1541.7 942.4 1541.71 942.4C1541.71 942.4 1541.72 942.4 1541.72 942.4C1541.73 942.4 1541.73 942.4 1541.74 942.4C1541.74 942.4 1541.74 942.4 1541.75 942.4C1541.75 942.4 1541.76 942.4 1541.76 942.4C1541.77 942.4 1541.77 942.4 1541.78 942.4C1541.78 942.4 1541.78 942.4 1541.79 942.4C1541.79 942.4 1541.8 942.4 1541.8 942.4C1541.81 942.4 1541.81 942.4 1541.82 942.4C1541.82 942.4 1541.82 942.4 1541.83 942.4C1541.83 942.4 1541.84 942.4 1541.84 942.4C1541.85 942.4 1541.85 942.4 1541.86 942.4C1541.86 942.4 1541.86 942.4 1541.87 942.4C1541.87 942.4 1541.88 942.4 1541.88 942.4C1541.89 942.4 1541.89 942.4 1541.9 942.4C1541.9 942.4 1541.91 942.4 1541.91 942.4C1541.91 942.4 1541.92 942.4 1541.92 942.4C1541.93 942.4 1541.93 942.4 1541.94 942.4C1541.94 942.4 1541.95 942.4 1541.95 942.4C1541.95 942.4 1541.96 942.4 1541.96 942.4C1541.97 942.4 1541.97 942.4 1541.98 942.4C1541.98 942.4 1541.99 942.4 1541.99 942.4C1541.99 942.4 1542 942.4 1542 942.4C1542.01 942.4 1542.01 942.4 1542.02 942.4C1542.02 942.4 1542.03 942.4 1542.03 942.4C1542.04 942.4 1542.04 942.4 1542.04 942.4C1542.05 942.4 1542.05 942.4 1542.06 942.4C1542.06 942.4 1542.07 942.4 1542.07 942.4C1542.08 942.4 1542.08 942.4 1542.09 942.4C1542.09 942.4 1542.09 942.4 1542.1 942.4C1542.1 942.4 1542.11 942.4 1542.11 942.4C1542.12 942.4 1542.12 942.4 1542.13 942.4C1542.13 942.4 1542.14 942.4 1542.14 942.4C1542.14 942.4 1542.15 942.4 1542.15 942.4C1542.16 942.4 1542.16 942.4 1542.17 942.4C1542.17 942.4 1542.18 942.4 1542.18 942.4C1542.18 942.4 1542.19 942.4 1542.19 942.4C1542.2 942.4 1542.2 942.4 1542.21 942.4C1542.21 942.4 1542.22 942.4 1542.22 942.4C1542.23 942.4 1542.23 942.4 1542.24 942.4C1542.24 942.4 1542.24 942.4 1542.25 942.4C1542.25 942.4 1542.26 942.4 1542.26 942.4C1542.27 942.4 1542.27 942.4 1542.28 942.4C1542.28 942.4 1542.29 942.4 1542.29 942.4C1542.29 942.4 1542.3 942.4 1542.3 942.4C1542.31 942.4 1542.31 942.4 1542.32 942.4C1542.32 942.4 1542.33 942.4 1542.33 942.4C1542.34 942.4 1542.34 942.4 1542.34 942.4C1542.35 942.4 1542.35 942.4 1542.36 942.4C1542.36 942.4 1542.37 942.4 1542.37 942.4C1542.38 942.4 1542.38 942.4 1542.39 942.4C1542.39 942.4 1542.4 942.4 1542.4 942.4C1542.4 942.4 1542.41 942.4 1542.41 942.4C1542.42 942.4 1542.42 942.4 1542.43 942.4C1542.43 942.4 1542.44 942.4 1542.44 942.4C1542.45 942.4 1542.45 942.4 1542.45 942.4C1542.46 942.4 1542.46 942.4 1542.47 942.4C1542.47 942.4 1542.48 942.4 1542.48 942.4C1542.49 942.4 1542.49 942.4 1542.5 942.4C1542.5 942.4 1542.51 942.4 1542.51 942.4C1542.51 942.4 1542.52 942.4 1542.52 942.4C1542.53 942.4 1542.53 942.4 1542.54 942.4C1542.54 942.4 1542.55 942.4 1542.55 942.4C1542.56 942.4 1542.56 942.4 1542.57 942.4C1542.57 942.4 1542.58 942.4 1542.58 942.4C1542.58 942.4 1542.59 942.4 1542.59 942.4C1542.6 942.4 1542.6 942.4 1542.61 942.4C1542.61 942.4 1542.62 942.4 1542.62 942.4C1542.63 942.4 1542.63 942.4 1542.64 942.4C1542.64 942.4 1542.64 942.4 1542.65 942.4C1542.65 942.4 1542.66 942.4 1542.66 942.4C1542.67 942.4 1542.67 942.4 1542.68 942.4C1542.68 942.4 1542.69 942.4 1542.69 942.4C1542.7 942.4 1542.7 942.4 1542.71 942.4C1542.71 942.4 1542.71 942.4 1542.72 942.4C1542.72 942.4 1542.73 942.4 1542.73 942.4C1542.74 942.4 1542.74 942.4 1542.75 942.4C1542.75 942.4 1542.76 942.4 1542.76 942.4C1542.77 942.4 1542.77 942.4 1542.78 942.4C1542.78 942.4 1542.78 942.4 1542.79 942.4C1542.79 942.4 1542.8 942.4 1542.8 942.4C1542.81 942.4 1542.81 942.4 1542.82 942.4C1542.82 942.4 1542.83 942.4 1542.83 942.4C1542.84 942.4 1542.84 942.4 1542.85 942.4C1542.85 942.4 1542.85 942.4 1542.86 942.4C1542.86 942.4 1542.87 942.4 1542.87 942.4C1542.88 942.4 1542.88 942.4 1542.89 942.4C1542.89 942.4 1542.9 942.4 1542.9 942.4C1542.91 942.4 1542.91 942.4 1542.92 942.4C1542.92 942.4 1542.93 942.4 1542.93 942.4C1542.93 942.4 1542.94 942.4 1542.94 942.4C1542.95 942.4 1542.95 942.4 1542.96 942.4C1542.96 942.4 1542.97 942.4 1542.97 942.4C1542.98 942.4 1542.98 942.4 1542.99 942.4C1542.99 942.4 1543 942.4 1543 942.4C1543.01 942.4 1543.01 942.4 1543.01 942.4C1543.02 942.4 1543.02 942.4 1543.03 942.4C1543.03 942.4 1543.04 942.4 1543.04 942.4C1543.05 942.4 1543.05 942.4 1543.06 942.4C1543.06 942.4 1543.07 942.4 1543.07 942.4C1543.08 942.4 1543.08 942.4 1543.09 942.4C1543.09 942.4 1543.1 942.4 1543.1 942.4C1543.1 942.4 1543.11 942.4 1543.11 942.4C1543.12 942.4 1543.12 942.4 1543.13 942.4C1543.13 942.4 1543.14 942.4 1543.14 942.4C1543.15 942.4 1543.15 942.4 1543.16 942.4C1543.16 942.4 1543.17 942.4 1543.17 942.4C1543.18 942.4 1543.18 942.4 1543.19 942.4C1543.19 942.4 1543.2 942.4 1543.2 942.4C1543.2 942.4 1543.21 942.4 1543.21 942.4C1543.22 942.4 1543.22 942.4 1543.23 942.4C1543.23 942.4 1543.24 942.4 1543.24 942.4C1543.25 942.4 1543.25 942.4 1543.26 942.4C1543.26 942.4 1543.27 942.4 1543.27 942.4C1543.28 942.4 1543.28 942.4 1543.29 942.4C1543.29 942.4 1543.3 942.4 1543.3 942.4C1543.31 942.4 1543.31 942.4 1543.31 942.4C1543.32 942.4 1543.32 942.4 1543.33 942.4C1543.33 942.4 1543.34 942.4 1543.34 942.4C1543.35 942.4 1543.35 942.4 1543.36 942.4C1543.36 942.4 1543.37 942.4 1543.37 942.4C1543.38 942.4 1543.38 942.4 1543.39 942.4C1543.39 942.4 1543.4 942.4 1543.4 942.4C1543.41 942.4 1543.41 942.4 1543.42 942.4C1543.42 942.4 1543.43 942.4 1543.43 942.4C1543.43 942.4 1543.44 942.4 1543.44 942.4C1543.45 942.4 1543.45 942.4 1543.46 942.4C1543.46 942.4 1543.47 942.4 1543.47 942.4C1543.48 942.4 1543.48 942.4 1543.49 942.4C1543.49 942.4 1543.5 942.4 1543.5 942.4C1543.51 942.4 1543.51 942.4 1543.52 942.4C1543.52 942.4 1543.53 942.4 1543.53 942.4C1543.54 942.4 1543.54 942.4 1543.55 942.4C1543.55 942.4 1543.56 942.4 1543.56 942.4C1543.57 942.4 1543.57 942.4 1543.57 942.4C1543.58 942.4 1543.58 942.4 1543.59 942.4C1543.59 942.4 1543.6 942.4 1543.6 942.4C1543.61 942.4 1543.61 942.4 1543.62 942.4C1543.62 942.4 1543.63 942.4 1543.63 942.4C1543.64 942.4 1543.64 942.4 1543.65 942.4C1543.65 942.4 1543.66 942.4 1543.66 942.4C1543.67 942.4 1543.67 942.4 1543.68 942.4C1543.68 942.4 1543.69 942.4 1543.69 942.4C1543.7 942.4 1543.7 942.4 1543.71 942.4C1543.71 942.4 1543.72 942.4 1543.72 942.4C1543.73 942.4 1543.73 942.4 1543.74 942.4C1543.74 942.4 1543.75 942.4 1543.75 942.4C1543.75 942.4 1543.76 942.4 1543.76 942.4C1543.77 942.4 1543.77 942.4 1543.78 942.4C1543.78 942.4 1543.79 942.4 1543.79 942.4C1543.8 942.4 1543.8 942.4 1543.81 942.4C1543.81 942.4 1543.82 942.4 1543.82 942.4C1543.83 942.4 1543.83 942.4 1543.84 942.4C1543.84 942.4 1543.85 942.4 1543.85 942.4C1543.86 942.4 1543.86 942.4 1543.87 942.4C1543.87 942.4 1543.88 942.4 1543.88 942.4C1543.89 942.4 1543.89 942.4 1543.9 942.4C1543.9 942.4 1543.91 942.4 1543.91 942.4C1543.92 942.4 1543.92 942.4 1543.93 942.4C1543.93 942.4 1543.94 942.4 1543.94 942.4C1543.95 942.4 1543.95 942.4 1543.96 942.4C1543.96 942.4 1543.97 942.4 1543.97 942.4C1543.98 942.4 1543.98 942.4 1543.99 942.4C1543.99 942.4 1544 942.4 1544 942.4C1544.01 942.4 1544.01 942.4 1544.02 942.4C1544.02 942.4 1544.03 942.4 1544.03 942.4C1544.03 942.4 1544.04 942.4 1544.04 942.4C1544.05 942.4 1544.05 942.4 1544.06 942.4C1544.06 942.4 1544.07 942.4 1544.07 942.4C1544.08 942.4 1544.08 942.4 1544.09 942.4C1544.09 942.4 1544.1 942.4 1544.1 942.4C1544.11 942.4 1544.11 942.4 1544.12 942.4C1544.12 942.4 1544.13 942.4 1544.13 942.4C1544.14 942.4 1544.14 942.4 1544.15 942.4C1544.15 942.4 1544.16 942.4 1544.16 942.4C1544.17 942.4 1544.17 942.4 1544.18 942.4C1544.18 942.4 1544.19 942.4 1544.19 942.4C1544.2 942.4 1544.2 942.4 1544.21 942.4C1544.21 942.4 1544.22 942.4 1544.22 942.4C1544.23 942.4 1544.23 942.4 1544.24 942.4C1544.24 942.4 1544.25 942.4 1544.25 942.4C1544.26 942.4 1544.26 942.4 1544.27 942.4C1544.27 942.4 1544.28 942.4 1544.28 942.4C1544.29 942.4 1544.29 942.4 1544.3 942.4C1544.3 942.4 1544.31 942.4 1544.31 942.4C1544.32 942.4 1544.32 942.4 1544.33 942.4C1544.33 942.4 1544.34 942.4 1544.34 942.4C1544.35 942.4 1544.35 942.4 1544.36 942.4C1544.36 942.4 1544.37 942.4 1544.37 942.4C1544.38 942.4 1544.38 942.4 1544.39 942.4C1544.39 942.4 1544.4 942.4 1544.4 942.4C1544.41 942.4 1544.41 942.4 1544.42 942.4C1544.42 942.4 1544.43 942.4 1544.43 942.4C1544.44 942.4 1544.44 942.4 1544.45 942.4C1544.45 942.4 1544.46 942.4 1544.46 942.4C1544.47 942.4 1544.47 942.4 1544.48 942.4C1544.48 942.4 1544.49 942.4 1544.49 942.4C1544.5 942.4 1544.5 942.4 1544.51 942.4C1544.51 942.4 1544.52 942.4 1544.52 942.4C1544.53 942.4 1544.53 942.4 1544.54 942.4C1544.54 942.4 1544.55 942.4 1544.55 942.4C1544.56 942.4 1544.56 942.4 1544.57 942.4C1544.57 942.4 1544.58 942.4 1544.58 942.4C1544.59 942.4 1544.59 942.4 1544.6 942.4C1544.6 942.4 1544.61 942.4 1544.61 942.4C1544.62 942.4 1544.63 942.4 1544.63 942.4C1544.64 942.4 1544.64 942.4 1544.65 942.4C1544.65 942.4 1544.66 942.4 1544.66 942.4C1544.67 942.4 1544.67 942.4 1544.68 942.4C1544.68 942.4 1544.69 942.4 1544.69 942.4C1544.7 942.4 1544.7 942.4 1544.71 942.4C1544.71 942.4 1544.72 942.4 1544.72 942.4C1544.73 942.4 1544.73 942.4 1544.74 942.4C1544.74 942.4 1544.75 942.4 1544.75 942.4C1544.76 942.4 1544.76 942.4 1544.77 942.4C1544.77 942.4 1544.78 942.4 1544.78 942.4C1544.79 942.4 1544.79 942.4 1544.8 942.4C1544.8 942.4 1544.81 942.4 1544.81 942.4C1544.82 942.4 1544.82 942.4 1544.83 942.4C1544.83 942.4 1544.84 942.4 1544.84 942.4C1544.85 942.4 1544.85 942.4 1544.86 942.4C1544.86 942.4 1544.87 942.4 1544.87 942.4C1544.88 942.4 1544.88 942.4 1544.89 942.4C1544.89 942.4 1544.9 942.4 1544.91 942.4C1544.91 942.4 1544.92 942.4 1544.92 942.4C1544.93 942.4 1544.93 942.4 1544.94 942.4C1544.94 942.4 1544.95 942.4 1544.95 942.4C1544.96 942.4 1544.96 942.4 1544.97 942.4C1544.97 942.4 1544.98 942.4 1544.98 942.4C1544.99 942.4 1544.99 942.4 1545 942.4C1545 942.4 1545.01 942.4 1545.01 942.4C1545.02 942.4 1545.02 942.4 1545.03 942.4C1545.03 942.4 1545.04 942.4 1545.04 942.4C1545.05 942.4 1545.05 942.4 1545.06 942.4C1545.06 942.4 1545.07 942.4 1545.07 942.4C1545.08 942.4 1545.08 942.4 1545.09 942.4C1545.1 942.4 1545.1 942.4 1545.11 942.4C1545.11 942.4 1545.12 942.4 1545.12 942.4C1545.13 942.4 1545.13 942.4 1545.14 942.4C1545.14 942.4 1545.15 942.4 1545.15 942.4C1545.16 942.4 1545.16 942.4 1545.17 942.4C1545.17 942.4 1545.18 942.4 1545.18 942.4C1545.19 942.4 1545.19 942.4 1545.2 942.4C1545.2 942.4 1545.21 942.4 1545.21 942.4C1545.22 942.4 1545.22 942.4 1545.23 942.4C1545.23 942.4 1545.24 942.4 1545.25 942.4C1545.25 942.4 1545.26 942.4 1545.26 942.4C1545.27 942.4 1545.27 942.4 1545.28 942.4C1545.28 942.4 1545.29 942.4 1545.29 942.4C1545.3 942.4 1545.3 942.4 1545.31 942.4C1545.31 942.4 1545.32 942.4 1545.32 942.4C1545.33 942.4 1545.33 942.4 1545.34 942.4C1545.34 942.4 1545.35 942.4 1545.35 942.4C1545.36 942.4 1545.36 942.4 1545.37 942.4C1545.38 942.4 1545.38 942.4 1545.39 942.4C1545.39 942.4 1545.4 942.4 1545.4 942.4C1545.41 942.4 1545.41 942.4 1545.42 942.4C1545.42 942.4 1545.43 942.4 1545.43 942.4C1545.44 942.4 1545.44 942.4 1545.45 942.4C1545.45 942.4 1545.46 942.4 1545.46 942.4C1545.47 942.4 1545.47 942.4 1545.48 942.4C1545.48 942.4 1545.49 942.4 1545.5 942.4C1545.5 942.4 1545.51 942.4 1545.51 942.4C1545.52 942.4 1545.52 942.4 1545.53 942.4C1545.53 942.4 1545.54 942.4 1545.54 942.4C1545.55 942.4 1545.55 942.4 1545.56 942.4C1545.56 942.4 1545.57 942.4 1545.57 942.4C1545.58 942.4 1545.58 942.4 1545.59 942.4C1545.59 942.4 1545.6 942.4 1545.61 942.4C1545.61 942.4 1545.62 942.4 1545.62 942.4C1545.63 942.4 1545.63 942.4 1545.64 942.4C1545.64 942.4 1545.65 942.4 1545.65 942.4C1545.66 942.4 1545.66 942.4 1545.67 942.4C1545.67 942.4 1545.68 942.4 1545.68 942.4C1545.69 942.4 1545.69 942.4 1545.7 942.4C1545.71 942.4 1545.71 942.4 1545.72 942.4C1545.72 942.4 1545.73 942.4 1545.73 942.4C1545.74 942.4 1545.74 942.4 1545.75 942.4C1545.75 942.4 1545.76 942.4 1545.76 942.4C1545.77 942.4 1545.77 942.4 1545.78 942.4C1545.78 942.4 1545.79 942.4 1545.8 942.4C1545.8 942.4 1545.81 942.4 1545.81 942.4C1545.82 942.4 1545.82 942.4 1545.83 942.4C1545.83 942.4 1545.84 942.4 1545.84 942.4C1545.85 942.4 1545.85 942.4 1545.86 942.4C1545.86 942.4 1545.87 942.4 1545.87 942.4C1545.88 942.4 1545.89 942.4 1545.89 942.4C1545.9 942.4 1545.9 942.4 1545.91 942.4C1545.91 942.4 1545.92 942.4 1545.92 942.4C1545.93 942.4 1545.93 942.4 1545.94 942.4C1545.94 942.4 1545.95 942.4 1545.95 942.4C1545.96 942.4 1545.96 942.4 1545.97 942.4C1545.98 942.4 1545.98 942.4 1545.99 942.4C1545.99 942.4 1546 942.4 1546 942.4C1546.01 942.4 1546.01 942.4 1546.02 942.4C1546.02 942.4 1546.03 942.4 1546.03 942.4C1546.04 942.4 1546.04 942.4 1546.05 942.4C1546.06 942.4 1546.06 942.4 1546.07 942.4C1546.07 942.4 1546.08 942.4 1546.08 942.4C1546.09 942.4 1546.09 942.4 1546.1 942.4C1546.1 942.4 1546.11 942.4 1546.11 942.4C1546.12 942.4 1546.13 942.4 1546.13 942.4C1546.14 942.4 1546.14 942.4 1546.15 942.4C1546.15 942.4 1546.16 942.4 1546.16 942.4C1546.17 942.4 1546.17 942.4 1546.18 942.4C1546.18 942.4 1546.19 942.4 1546.19 942.4C1546.2 942.4 1546.21 942.4 1546.21 942.4C1546.22 942.4 1546.22 942.4 1546.23 942.4C1546.23 942.4 1546.24 942.4 1546.24 942.4C1546.25 942.4 1546.25 942.4 1546.26 942.4C1546.26 942.4 1546.27 942.4 1546.28 942.4C1546.28 942.4 1546.29 942.4 1546.29 942.4C1546.3 942.4 1546.3 942.4 1546.31 942.4C1546.31 942.4 1546.32 942.4 1546.32 942.4C1546.33 942.4 1546.33 942.4 1546.34 942.4C1546.35 942.4 1546.35 942.4 1546.36 942.4C1546.36 942.4 1546.37 942.4 1546.37 942.4C1546.38 942.4 1546.38 942.4 1546.39 942.4C1546.39 942.4 1546.4 942.4 1546.4 942.4C1546.41 942.4 1546.42 942.4 1546.42 942.4C1546.43 942.4 1546.43 942.4 1546.44 942.4C1546.44 942.4 1546.45 942.4 1546.45 942.4C1546.46 942.4 1546.46 942.4 1546.47 942.4C1546.48 942.4 1546.48 942.4 1546.49 942.4C1546.49 942.4 1546.5 942.4 1546.5 942.4C1546.51 942.4 1546.51 942.4 1546.52 942.4C1546.52 942.4 1546.53 942.4 1546.54 942.4C1546.54 942.4 1546.55 942.4 1546.55 942.4C1546.56 942.4 1546.56 942.4 1546.57 942.4C1546.57 942.4 1546.58 942.4 1546.58 942.4C1546.59 942.4 1546.59 942.4 1546.6 942.4C1546.61 942.4 1546.61 942.4 1546.62 942.4C1546.62 942.4 1546.63 942.4 1546.63 942.4C1546.64 942.4 1546.64 942.4 1546.65 942.4C1546.65 942.4 1546.66 942.4 1546.67 942.4C1546.67 942.4 1546.68 942.4 1546.68 942.4C1546.69 942.4 1546.69 942.4 1546.7 942.4C1546.7 942.4 1546.71 942.4 1546.71 942.4C1546.72 942.4 1546.73 942.4 1546.73 942.4V940.4C1546.73 940.4 1546.72 940.4 1546.71 940.4C1546.71 940.4 1546.7 940.4 1546.7 940.4C1546.69 940.4 1546.69 940.4 1546.68 940.4C1546.68 940.4 1546.67 940.4 1546.67 940.4C1546.66 940.4 1546.65 940.4 1546.65 940.4C1546.64 940.4 1546.64 940.4 1546.63 940.4C1546.63 940.4 1546.62 940.4 1546.62 940.4C1546.61 940.4 1546.61 940.4 1546.6 940.4C1546.59 940.4 1546.59 940.4 1546.58 940.4C1546.58 940.4 1546.57 940.4 1546.57 940.4C1546.56 940.4 1546.56 940.4 1546.55 940.4C1546.55 940.4 1546.54 940.4 1546.54 940.4C1546.53 940.4 1546.52 940.4 1546.52 940.4C1546.51 940.4 1546.51 940.4 1546.5 940.4C1546.5 940.4 1546.49 940.4 1546.49 940.4C1546.48 940.4 1546.48 940.4 1546.47 940.4C1546.46 940.4 1546.46 940.4 1546.45 940.4C1546.45 940.4 1546.44 940.4 1546.44 940.4C1546.43 940.4 1546.43 940.4 1546.42 940.4C1546.42 940.4 1546.41 940.4 1546.4 940.4C1546.4 940.4 1546.39 940.4 1546.39 940.4C1546.38 940.4 1546.38 940.4 1546.37 940.4C1546.37 940.4 1546.36 940.4 1546.36 940.4C1546.35 940.4 1546.35 940.4 1546.34 940.4C1546.33 940.4 1546.33 940.4 1546.32 940.4C1546.32 940.4 1546.31 940.4 1546.31 940.4C1546.3 940.4 1546.3 940.4 1546.29 940.4C1546.29 940.4 1546.28 940.4 1546.28 940.4C1546.27 940.4 1546.26 940.4 1546.26 940.4C1546.25 940.4 1546.25 940.4 1546.24 940.4C1546.24 940.4 1546.23 940.4 1546.23 940.4C1546.22 940.4 1546.22 940.4 1546.21 940.4C1546.21 940.4 1546.2 940.4 1546.19 940.4C1546.19 940.4 1546.18 940.4 1546.18 940.4C1546.17 940.4 1546.17 940.4 1546.16 940.4C1546.16 940.4 1546.15 940.4 1546.15 940.4C1546.14 940.4 1546.14 940.4 1546.13 940.4C1546.13 940.4 1546.12 940.4 1546.11 940.4C1546.11 940.4 1546.1 940.4 1546.1 940.4C1546.09 940.4 1546.09 940.4 1546.08 940.4C1546.08 940.4 1546.07 940.4 1546.07 940.4C1546.06 940.4 1546.06 940.4 1546.05 940.4C1546.04 940.4 1546.04 940.4 1546.03 940.4C1546.03 940.4 1546.02 940.4 1546.02 940.4C1546.01 940.4 1546.01 940.4 1546 940.4C1546 940.4 1545.99 940.4 1545.99 940.4C1545.98 940.4 1545.98 940.4 1545.97 940.4C1545.96 940.4 1545.96 940.4 1545.95 940.4C1545.95 940.4 1545.94 940.4 1545.94 940.4C1545.93 940.4 1545.93 940.4 1545.92 940.4C1545.92 940.4 1545.91 940.4 1545.91 940.4C1545.9 940.4 1545.9 940.4 1545.89 940.4C1545.89 940.4 1545.88 940.4 1545.87 940.4C1545.87 940.4 1545.86 940.4 1545.86 940.4C1545.85 940.4 1545.85 940.4 1545.84 940.4C1545.84 940.4 1545.83 940.4 1545.83 940.4C1545.82 940.4 1545.82 940.4 1545.81 940.4C1545.81 940.4 1545.8 940.4 1545.8 940.4C1545.79 940.4 1545.78 940.4 1545.78 940.4C1545.77 940.4 1545.77 940.4 1545.76 940.4C1545.76 940.4 1545.75 940.4 1545.75 940.4C1545.74 940.4 1545.74 940.4 1545.73 940.4C1545.73 940.4 1545.72 940.4 1545.72 940.4C1545.71 940.4 1545.71 940.4 1545.7 940.4C1545.69 940.4 1545.69 940.4 1545.68 940.4C1545.68 940.4 1545.67 940.4 1545.67 940.4C1545.66 940.4 1545.66 940.4 1545.65 940.4C1545.65 940.4 1545.64 940.4 1545.64 940.4C1545.63 940.4 1545.63 940.4 1545.62 940.4C1545.62 940.4 1545.61 940.4 1545.61 940.4C1545.6 940.4 1545.59 940.4 1545.59 940.4C1545.58 940.4 1545.58 940.4 1545.57 940.4C1545.57 940.4 1545.56 940.4 1545.56 940.4C1545.55 940.4 1545.55 940.4 1545.54 940.4C1545.54 940.4 1545.53 940.4 1545.53 940.4C1545.52 940.4 1545.52 940.4 1545.51 940.4C1545.51 940.4 1545.5 940.4 1545.5 940.4C1545.49 940.4 1545.48 940.4 1545.48 940.4C1545.47 940.4 1545.47 940.4 1545.46 940.4C1545.46 940.4 1545.45 940.4 1545.45 940.4C1545.44 940.4 1545.44 940.4 1545.43 940.4C1545.43 940.4 1545.42 940.4 1545.42 940.4C1545.41 940.4 1545.41 940.4 1545.4 940.4C1545.4 940.4 1545.39 940.4 1545.39 940.4C1545.38 940.4 1545.38 940.4 1545.37 940.4C1545.36 940.4 1545.36 940.4 1545.35 940.4C1545.35 940.4 1545.34 940.4 1545.34 940.4C1545.33 940.4 1545.33 940.4 1545.32 940.4C1545.32 940.4 1545.31 940.4 1545.31 940.4C1545.3 940.4 1545.3 940.4 1545.29 940.4C1545.29 940.4 1545.28 940.4 1545.28 940.4C1545.27 940.4 1545.27 940.4 1545.26 940.4C1545.26 940.4 1545.25 940.4 1545.25 940.4C1545.24 940.4 1545.23 940.4 1545.23 940.4C1545.22 940.4 1545.22 940.4 1545.21 940.4C1545.21 940.4 1545.2 940.4 1545.2 940.4C1545.19 940.4 1545.19 940.4 1545.18 940.4C1545.18 940.4 1545.17 940.4 1545.17 940.4C1545.16 940.4 1545.16 940.4 1545.15 940.4C1545.15 940.4 1545.14 940.4 1545.14 940.4C1545.13 940.4 1545.13 940.4 1545.12 940.4C1545.12 940.4 1545.11 940.4 1545.11 940.4C1545.1 940.4 1545.1 940.4 1545.09 940.4C1545.08 940.4 1545.08 940.4 1545.07 940.4C1545.07 940.4 1545.06 940.4 1545.06 940.4C1545.05 940.4 1545.05 940.4 1545.04 940.4C1545.04 940.4 1545.03 940.4 1545.03 940.4C1545.02 940.4 1545.02 940.4 1545.01 940.4C1545.01 940.4 1545 940.4 1545 940.4C1544.99 940.4 1544.99 940.4 1544.98 940.4C1544.98 940.4 1544.97 940.4 1544.97 940.4C1544.96 940.4 1544.96 940.4 1544.95 940.4C1544.95 940.4 1544.94 940.4 1544.94 940.4C1544.93 940.4 1544.93 940.4 1544.92 940.4C1544.92 940.4 1544.91 940.4 1544.91 940.4C1544.9 940.4 1544.89 940.4 1544.89 940.4C1544.88 940.4 1544.88 940.4 1544.87 940.4C1544.87 940.4 1544.86 940.4 1544.86 940.4C1544.85 940.4 1544.85 940.4 1544.84 940.4C1544.84 940.4 1544.83 940.4 1544.83 940.4C1544.82 940.4 1544.82 940.4 1544.81 940.4C1544.81 940.4 1544.8 940.4 1544.8 940.4C1544.79 940.4 1544.79 940.4 1544.78 940.4C1544.78 940.4 1544.77 940.4 1544.77 940.4C1544.76 940.4 1544.76 940.4 1544.75 940.4C1544.75 940.4 1544.74 940.4 1544.74 940.4C1544.73 940.4 1544.73 940.4 1544.72 940.4C1544.72 940.4 1544.71 940.4 1544.71 940.4C1544.7 940.4 1544.7 940.4 1544.69 940.4C1544.69 940.4 1544.68 940.4 1544.68 940.4C1544.67 940.4 1544.67 940.4 1544.66 940.4C1544.66 940.4 1544.65 940.4 1544.65 940.4C1544.64 940.4 1544.64 940.4 1544.63 940.4C1544.63 940.4 1544.62 940.4 1544.61 940.4C1544.61 940.4 1544.6 940.4 1544.6 940.4C1544.59 940.4 1544.59 940.4 1544.58 940.4C1544.58 940.4 1544.57 940.4 1544.57 940.4C1544.56 940.4 1544.56 940.4 1544.55 940.4C1544.55 940.4 1544.54 940.4 1544.54 940.4C1544.53 940.4 1544.53 940.4 1544.52 940.4C1544.52 940.4 1544.51 940.4 1544.51 940.4C1544.5 940.4 1544.5 940.4 1544.49 940.4C1544.49 940.4 1544.48 940.4 1544.48 940.4C1544.47 940.4 1544.47 940.4 1544.46 940.4C1544.46 940.4 1544.45 940.4 1544.45 940.4C1544.44 940.4 1544.44 940.4 1544.43 940.4C1544.43 940.4 1544.42 940.4 1544.42 940.4C1544.41 940.4 1544.41 940.4 1544.4 940.4C1544.4 940.4 1544.39 940.4 1544.39 940.4C1544.38 940.4 1544.38 940.4 1544.37 940.4C1544.37 940.4 1544.36 940.4 1544.36 940.4C1544.35 940.4 1544.35 940.4 1544.34 940.4C1544.34 940.4 1544.33 940.4 1544.33 940.4C1544.32 940.4 1544.32 940.4 1544.31 940.4C1544.31 940.4 1544.3 940.4 1544.3 940.4C1544.29 940.4 1544.29 940.4 1544.28 940.4C1544.28 940.4 1544.27 940.4 1544.27 940.4C1544.26 940.4 1544.26 940.4 1544.25 940.4C1544.25 940.4 1544.24 940.4 1544.24 940.4C1544.23 940.4 1544.23 940.4 1544.22 940.4C1544.22 940.4 1544.21 940.4 1544.21 940.4C1544.2 940.4 1544.2 940.4 1544.19 940.4C1544.19 940.4 1544.18 940.4 1544.18 940.4C1544.17 940.4 1544.17 940.4 1544.16 940.4C1544.16 940.4 1544.15 940.4 1544.15 940.4C1544.14 940.4 1544.14 940.4 1544.13 940.4C1544.13 940.4 1544.12 940.4 1544.12 940.4C1544.11 940.4 1544.11 940.4 1544.1 940.4C1544.1 940.4 1544.09 940.4 1544.09 940.4C1544.08 940.4 1544.08 940.4 1544.07 940.4C1544.07 940.4 1544.06 940.4 1544.06 940.4C1544.05 940.4 1544.05 940.4 1544.04 940.4C1544.04 940.4 1544.03 940.4 1544.03 940.4C1544.03 940.4 1544.02 940.4 1544.02 940.4C1544.01 940.4 1544.01 940.4 1544 940.4C1544 940.4 1543.99 940.4 1543.99 940.4C1543.98 940.4 1543.98 940.4 1543.97 940.4C1543.97 940.4 1543.96 940.4 1543.96 940.4C1543.95 940.4 1543.95 940.4 1543.94 940.4C1543.94 940.4 1543.93 940.4 1543.93 940.4C1543.92 940.4 1543.92 940.4 1543.91 940.4C1543.91 940.4 1543.9 940.4 1543.9 940.4C1543.89 940.4 1543.89 940.4 1543.88 940.4C1543.88 940.4 1543.87 940.4 1543.87 940.4C1543.86 940.4 1543.86 940.4 1543.85 940.4C1543.85 940.4 1543.84 940.4 1543.84 940.4C1543.83 940.4 1543.83 940.4 1543.82 940.4C1543.82 940.4 1543.81 940.4 1543.81 940.4C1543.8 940.4 1543.8 940.4 1543.79 940.4C1543.79 940.4 1543.78 940.4 1543.78 940.4C1543.77 940.4 1543.77 940.4 1543.76 940.4C1543.76 940.4 1543.75 940.4 1543.75 940.4C1543.75 940.4 1543.74 940.4 1543.74 940.4C1543.73 940.4 1543.73 940.4 1543.72 940.4C1543.72 940.4 1543.71 940.4 1543.71 940.4C1543.7 940.4 1543.7 940.4 1543.69 940.4C1543.69 940.4 1543.68 940.4 1543.68 940.4C1543.67 940.4 1543.67 940.4 1543.66 940.4C1543.66 940.4 1543.65 940.4 1543.65 940.4C1543.64 940.4 1543.64 940.4 1543.63 940.4C1543.63 940.4 1543.62 940.4 1543.62 940.4C1543.61 940.4 1543.61 940.4 1543.6 940.4C1543.6 940.4 1543.59 940.4 1543.59 940.4C1543.58 940.4 1543.58 940.4 1543.57 940.4C1543.57 940.4 1543.57 940.4 1543.56 940.4C1543.56 940.4 1543.55 940.4 1543.55 940.4C1543.54 940.4 1543.54 940.4 1543.53 940.4C1543.53 940.4 1543.52 940.4 1543.52 940.4C1543.51 940.4 1543.51 940.4 1543.5 940.4C1543.5 940.4 1543.49 940.4 1543.49 940.4C1543.48 940.4 1543.48 940.4 1543.47 940.4C1543.47 940.4 1543.46 940.4 1543.46 940.4C1543.45 940.4 1543.45 940.4 1543.44 940.4C1543.44 940.4 1543.43 940.4 1543.43 940.4C1543.43 940.4 1543.42 940.4 1543.42 940.4C1543.41 940.4 1543.41 940.4 1543.4 940.4C1543.4 940.4 1543.39 940.4 1543.39 940.4C1543.38 940.4 1543.38 940.4 1543.37 940.4C1543.37 940.4 1543.36 940.4 1543.36 940.4C1543.35 940.4 1543.35 940.4 1543.34 940.4C1543.34 940.4 1543.33 940.4 1543.33 940.4C1543.32 940.4 1543.32 940.4 1543.31 940.4C1543.31 940.4 1543.31 940.4 1543.3 940.4C1543.3 940.4 1543.29 940.4 1543.29 940.4C1543.28 940.4 1543.28 940.4 1543.27 940.4C1543.27 940.4 1543.26 940.4 1543.26 940.4C1543.25 940.4 1543.25 940.4 1543.24 940.4C1543.24 940.4 1543.23 940.4 1543.23 940.4C1543.22 940.4 1543.22 940.4 1543.21 940.4C1543.21 940.4 1543.2 940.4 1543.2 940.4C1543.2 940.4 1543.19 940.4 1543.19 940.4C1543.18 940.4 1543.18 940.4 1543.17 940.4C1543.17 940.4 1543.16 940.4 1543.16 940.4C1543.15 940.4 1543.15 940.4 1543.14 940.4C1543.14 940.4 1543.13 940.4 1543.13 940.4C1543.12 940.4 1543.12 940.4 1543.11 940.4C1543.11 940.4 1543.1 940.4 1543.1 940.4C1543.1 940.4 1543.09 940.4 1543.09 940.4C1543.08 940.4 1543.08 940.4 1543.07 940.4C1543.07 940.4 1543.06 940.4 1543.06 940.4C1543.05 940.4 1543.05 940.4 1543.04 940.4C1543.04 940.4 1543.03 940.4 1543.03 940.4C1543.02 940.4 1543.02 940.4 1543.01 940.4C1543.01 940.4 1543.01 940.4 1543 940.4C1543 940.4 1542.99 940.4 1542.99 940.4C1542.98 940.4 1542.98 940.4 1542.97 940.4C1542.97 940.4 1542.96 940.4 1542.96 940.4C1542.95 940.4 1542.95 940.4 1542.94 940.4C1542.94 940.4 1542.93 940.4 1542.93 940.4C1542.93 940.4 1542.92 940.4 1542.92 940.4C1542.91 940.4 1542.91 940.4 1542.9 940.4C1542.9 940.4 1542.89 940.4 1542.89 940.4C1542.88 940.4 1542.88 940.4 1542.87 940.4C1542.87 940.4 1542.86 940.4 1542.86 940.4C1542.85 940.4 1542.85 940.4 1542.85 940.4C1542.84 940.4 1542.84 940.4 1542.83 940.4C1542.83 940.4 1542.82 940.4 1542.82 940.4C1542.81 940.4 1542.81 940.4 1542.8 940.4C1542.8 940.4 1542.79 940.4 1542.79 940.4C1542.78 940.4 1542.78 940.4 1542.78 940.4C1542.77 940.4 1542.77 940.4 1542.76 940.4C1542.76 940.4 1542.75 940.4 1542.75 940.4C1542.74 940.4 1542.74 940.4 1542.73 940.4C1542.73 940.4 1542.72 940.4 1542.72 940.4C1542.71 940.4 1542.71 940.4 1542.71 940.4C1542.7 940.4 1542.7 940.4 1542.69 940.4C1542.69 940.4 1542.68 940.4 1542.68 940.4C1542.67 940.4 1542.67 940.4 1542.66 940.4C1542.66 940.4 1542.65 940.4 1542.65 940.4C1542.64 940.4 1542.64 940.4 1542.64 940.4C1542.63 940.4 1542.63 940.4 1542.62 940.4C1542.62 940.4 1542.61 940.4 1542.61 940.4C1542.6 940.4 1542.6 940.4 1542.59 940.4C1542.59 940.4 1542.58 940.4 1542.58 940.4C1542.58 940.4 1542.57 940.4 1542.57 940.4C1542.56 940.4 1542.56 940.4 1542.55 940.4C1542.55 940.4 1542.54 940.4 1542.54 940.4C1542.53 940.4 1542.53 940.4 1542.52 940.4C1542.52 940.4 1542.51 940.4 1542.51 940.4C1542.51 940.4 1542.5 940.4 1542.5 940.4C1542.49 940.4 1542.49 940.4 1542.48 940.4C1542.48 940.4 1542.47 940.4 1542.47 940.4C1542.46 940.4 1542.46 940.4 1542.45 940.4C1542.45 940.4 1542.45 940.4 1542.44 940.4C1542.44 940.4 1542.43 940.4 1542.43 940.4C1542.42 940.4 1542.42 940.4 1542.41 940.4C1542.41 940.4 1542.4 940.4 1542.4 940.4C1542.4 940.4 1542.39 940.4 1542.39 940.4C1542.38 940.4 1542.38 940.4 1542.37 940.4C1542.37 940.4 1542.36 940.4 1542.36 940.4C1542.35 940.4 1542.35 940.4 1542.34 940.4C1542.34 940.4 1542.34 940.4 1542.33 940.4C1542.33 940.4 1542.32 940.4 1542.32 940.4C1542.31 940.4 1542.31 940.4 1542.3 940.4C1542.3 940.4 1542.29 940.4 1542.29 940.4C1542.29 940.4 1542.28 940.4 1542.28 940.4C1542.27 940.4 1542.27 940.4 1542.26 940.4C1542.26 940.4 1542.25 940.4 1542.25 940.4C1542.24 940.4 1542.24 940.4 1542.24 940.4C1542.23 940.4 1542.23 940.4 1542.22 940.4C1542.22 940.4 1542.21 940.4 1542.21 940.4C1542.2 940.4 1542.2 940.4 1542.19 940.4C1542.19 940.4 1542.18 940.4 1542.18 940.4C1542.18 940.4 1542.17 940.4 1542.17 940.4C1542.16 940.4 1542.16 940.4 1542.15 940.4C1542.15 940.4 1542.14 940.4 1542.14 940.4C1542.14 940.4 1542.13 940.4 1542.13 940.4C1542.12 940.4 1542.12 940.4 1542.11 940.4C1542.11 940.4 1542.1 940.4 1542.1 940.4C1542.09 940.4 1542.09 940.4 1542.09 940.4C1542.08 940.4 1542.08 940.4 1542.07 940.4C1542.07 940.4 1542.06 940.4 1542.06 940.4C1542.05 940.4 1542.05 940.4 1542.04 940.4C1542.04 940.4 1542.04 940.4 1542.03 940.4C1542.03 940.4 1542.02 940.4 1542.02 940.4C1542.01 940.4 1542.01 940.4 1542 940.4C1542 940.4 1541.99 940.4 1541.99 940.4C1541.99 940.4 1541.98 940.4 1541.98 940.4C1541.97 940.4 1541.97 940.4 1541.96 940.4C1541.96 940.4 1541.95 940.4 1541.95 940.4C1541.95 940.4 1541.94 940.4 1541.94 940.4C1541.93 940.4 1541.93 940.4 1541.92 940.4C1541.92 940.4 1541.91 940.4 1541.91 940.4C1541.91 940.4 1541.9 940.4 1541.9 940.4C1541.89 940.4 1541.89 940.4 1541.88 940.4C1541.88 940.4 1541.87 940.4 1541.87 940.4C1541.86 940.4 1541.86 940.4 1541.86 940.4C1541.85 940.4 1541.85 940.4 1541.84 940.4C1541.84 940.4 1541.83 940.4 1541.83 940.4C1541.82 940.4 1541.82 940.4 1541.82 940.4C1541.81 940.4 1541.81 940.4 1541.8 940.4C1541.8 940.4 1541.79 940.4 1541.79 940.4C1541.78 940.4 1541.78 940.4 1541.78 940.4C1541.77 940.4 1541.77 940.4 1541.76 940.4C1541.76 940.4 1541.75 940.4 1541.75 940.4C1541.74 940.4 1541.74 940.4 1541.74 940.4C1541.73 940.4 1541.73 940.4 1541.72 940.4C1541.72 940.4 1541.71 940.4 1541.71 940.4C1541.7 940.4 1541.7 940.4 1541.7 940.4C1541.69 940.4 1541.69 940.4 1541.68 940.4C1541.68 940.4 1541.67 940.4 1541.67 940.4C1541.66 940.4 1541.66 940.4 1541.66 940.4C1541.65 940.4 1541.65 940.4 1541.64 940.4C1541.64 940.4 1541.63 940.4 1541.63 940.4C1541.62 940.4 1541.62 940.4 1541.62 940.4C1541.61 940.4 1541.61 940.4 1541.6 940.4C1541.6 940.4 1541.59 940.4 1541.59 940.4C1541.59 940.4 1541.58 940.4 1541.58 940.4C1541.57 940.4 1541.57 940.4 1541.56 940.4C1541.56 940.4 1541.55 940.4 1541.55 940.4C1541.55 940.4 1541.54 940.4 1541.54 940.4C1541.53 940.4 1541.53 940.4 1541.52 940.4C1541.52 940.4 1541.51 940.4 1541.51 940.4C1541.51 940.4 1541.5 940.4 1541.5 940.4C1541.49 940.4 1541.49 940.4 1541.48 940.4C1541.48 940.4 1541.48 940.4 1541.47 940.4C1541.47 940.4 1541.46 940.4 1541.46 940.4C1541.45 940.4 1541.45 940.4 1541.44 940.4C1541.44 940.4 1541.44 940.4 1541.43 940.4C1541.43 940.4 1541.42 940.4 1541.42 940.4C1541.41 940.4 1541.41 940.4 1541.41 940.4C1541.4 940.4 1541.4 940.4 1541.39 940.4C1541.39 940.4 1541.38 940.4 1541.38 940.4C1541.37 940.4 1541.37 940.4 1541.37 940.4C1541.36 940.4 1541.36 940.4 1541.35 940.4C1541.35 940.4 1541.34 940.4 1541.34 940.4C1541.34 940.4 1541.33 940.4 1541.33 940.4C1541.32 940.4 1541.32 940.4 1541.31 940.4C1541.31 940.4 1541.3 940.4 1541.3 940.4C1541.3 940.4 1541.29 940.4 1541.29 940.4C1541.28 940.4 1541.28 940.4 1541.27 940.4C1541.27 940.4 1541.27 940.4 1541.26 940.4C1541.26 940.4 1541.25 940.4 1541.25 940.4C1541.24 940.4 1541.24 940.4 1541.24 940.4C1541.23 940.4 1541.23 940.4 1541.22 940.4C1541.22 940.4 1541.21 940.4 1541.21 940.4C1541.21 940.4 1541.2 940.4 1541.2 940.4C1541.19 940.4 1541.19 940.4 1541.18 940.4C1541.18 940.4 1541.18 940.4 1541.17 940.4C1541.17 940.4 1541.16 940.4 1541.16 940.4C1541.15 940.4 1541.15 940.4 1541.14 940.4C1541.14 940.4 1541.14 940.4 1541.13 940.4C1541.13 940.4 1541.12 940.4 1541.12 940.4C1541.11 940.4 1541.11 940.4 1541.11 940.4C1541.1 940.4 1541.1 940.4 1541.09 940.4C1541.09 940.4 1541.08 940.4 1541.08 940.4C1541.08 940.4 1541.07 940.4 1541.07 940.4C1541.06 940.4 1541.06 940.4 1541.05 940.4C1541.05 940.4 1541.05 940.4 1541.04 940.4C1541.04 940.4 1541.03 940.4 1541.03 940.4C1541.02 940.4 1541.02 940.4 1541.02 940.4C1541.01 940.4 1541.01 940.4 1541 940.4C1541 940.4 1540.99 940.4 1540.99 940.4C1540.99 940.4 1540.98 940.4 1540.98 940.4C1540.97 940.4 1540.97 940.4 1540.97 940.4C1540.96 940.4 1540.96 940.4 1540.95 940.4C1540.95 940.4 1540.94 940.4 1540.94 940.4C1540.94 940.4 1540.93 940.4 1540.93 940.4C1540.92 940.4 1540.92 940.4 1540.91 940.4C1540.91 940.4 1540.91 940.4 1540.9 940.4C1540.9 940.4 1540.89 940.4 1540.89 940.4C1540.88 940.4 1540.88 940.4 1540.88 940.4C1540.87 940.4 1540.87 940.4 1540.86 940.4C1540.86 940.4 1540.85 940.4 1540.85 940.4C1540.85 940.4 1540.84 940.4 1540.84 940.4C1540.83 940.4 1540.83 940.4 1540.82 940.4C1540.82 940.4 1540.82 940.4 1540.81 940.4C1540.81 940.4 1540.8 940.4 1540.8 940.4C1540.8 940.4 1540.79 940.4 1540.79 940.4C1540.78 940.4 1540.78 940.4 1540.77 940.4C1540.77 940.4 1540.77 940.4 1540.76 940.4C1540.76 940.4 1540.75 940.4 1540.75 940.4C1540.74 940.4 1540.74 940.4 1540.74 940.4C1540.73 940.4 1540.73 940.4 1540.72 940.4C1540.72 940.4 1540.72 940.4 1540.71 940.4C1540.71 940.4 1540.7 940.4 1540.7 940.4C1540.69 940.4 1540.69 940.4 1540.69 940.4C1540.68 940.4 1540.68 940.4 1540.67 940.4C1540.67 940.4 1540.66 940.4 1540.66 940.4C1540.66 940.4 1540.65 940.4 1540.65 940.4C1540.64 940.4 1540.64 940.4 1540.64 940.4C1540.63 940.4 1540.63 940.4 1540.62 940.4C1540.62 940.4 1540.61 940.4 1540.61 940.4C1540.61 940.4 1540.6 940.4 1540.6 940.4C1540.59 940.4 1540.59 940.4 1540.59 940.4C1540.58 940.4 1540.58 940.4 1540.57 940.4C1540.57 940.4 1540.56 940.4 1540.56 940.4C1540.56 940.4 1540.55 940.4 1540.55 940.4C1540.54 940.4 1540.54 940.4 1540.54 940.4C1540.53 940.4 1540.53 940.4 1540.52 940.4C1540.52 940.4 1540.51 940.4 1540.51 940.4C1540.51 940.4 1540.5 940.4 1540.5 940.4C1540.49 940.4 1540.49 940.4 1540.49 940.4C1540.48 940.4 1540.48 940.4 1540.47 940.4C1540.47 940.4 1540.46 940.4 1540.46 940.4C1540.46 940.4 1540.45 940.4 1540.45 940.4C1540.44 940.4 1540.44 940.4 1540.44 940.4C1540.43 940.4 1540.43 940.4 1540.42 940.4C1540.42 940.4 1540.42 940.4 1540.41 940.4C1540.41 940.4 1540.4 940.4 1540.4 940.4C1540.39 940.4 1540.39 940.4 1540.39 940.4C1540.38 940.4 1540.38 940.4 1540.37 940.4C1540.37 940.4 1540.37 940.4 1540.36 940.4C1540.36 940.4 1540.35 940.4 1540.35 940.4C1540.35 940.4 1540.34 940.4 1540.34 940.4C1540.33 940.4 1540.33 940.4 1540.32 940.4C1540.32 940.4 1540.32 940.4 1540.31 940.4C1540.31 940.4 1540.3 940.4 1540.3 940.4C1540.3 940.4 1540.29 940.4 1540.29 940.4C1540.28 940.4 1540.28 940.4 1540.28 940.4C1540.27 940.4 1540.27 940.4 1540.26 940.4C1540.26 940.4 1540.25 940.4 1540.25 940.4C1540.25 940.4 1540.24 940.4 1540.24 940.4C1540.23 940.4 1540.23 940.4 1540.23 940.4C1540.22 940.4 1540.22 940.4 1540.21 940.4C1540.21 940.4 1540.21 940.4 1540.2 940.4C1540.2 940.4 1540.19 940.4 1540.19 940.4C1540.19 940.4 1540.18 940.4 1540.18 940.4C1540.17 940.4 1540.17 940.4 1540.17 940.4C1540.16 940.4 1540.16 940.4 1540.15 940.4C1540.15 940.4 1540.14 940.4 1540.14 940.4C1540.14 940.4 1540.13 940.4 1540.13 940.4C1540.12 940.4 1540.12 940.4 1540.12 940.4C1540.11 940.4 1540.11 940.4 1540.1 940.4C1540.1 940.4 1540.1 940.4 1540.09 940.4C1540.09 940.4 1540.08 940.4 1540.08 940.4C1540.08 940.4 1540.07 940.4 1540.07 940.4C1540.06 940.4 1540.06 940.4 1540.06 940.4C1540.05 940.4 1540.05 940.4 1540.04 940.4C1540.04 940.4 1540.04 940.4 1540.03 940.4C1540.03 940.4 1540.02 940.4 1540.02 940.4C1540.02 940.4 1540.01 940.4 1540.01 940.4C1540 940.4 1540 940.4 1540 940.4C1539.99 940.4 1539.99 940.4 1539.98 940.4C1539.98 940.4 1539.98 940.4 1539.97 940.4C1539.97 940.4 1539.96 940.4 1539.96 940.4C1539.96 940.4 1539.95 940.4 1539.95 940.4C1539.94 940.4 1539.94 940.4 1539.93 940.4C1539.93 940.4 1539.93 940.4 1539.92 940.4C1539.92 940.4 1539.91 940.4 1539.91 940.4C1539.91 940.4 1539.9 940.4 1539.9 940.4C1539.89 940.4 1539.89 940.4 1539.89 940.4C1539.88 940.4 1539.88 940.4 1539.87 940.4C1539.87 940.4 1539.87 940.4 1539.86 940.4C1539.86 940.4 1539.85 940.4 1539.85 940.4C1539.85 940.4 1539.84 940.4 1539.84 940.4C1539.84 940.4 1539.83 940.4 1539.83 940.4C1539.82 940.4 1539.82 940.4 1539.82 940.4C1539.81 940.4 1539.81 940.4 1539.8 940.4C1539.8 940.4 1539.8 940.4 1539.79 940.4C1539.79 940.4 1539.78 940.4 1539.78 940.4C1539.78 940.4 1539.77 940.4 1539.77 940.4C1539.76 940.4 1539.76 940.4 1539.76 940.4C1539.75 940.4 1539.75 940.4 1539.74 940.4C1539.74 940.4 1539.74 940.4 1539.73 940.4C1539.73 940.4 1539.72 940.4 1539.72 940.4C1539.72 940.4 1539.71 940.4 1539.71 940.4C1539.7 940.4 1539.7 940.4 1539.7 940.4C1539.69 940.4 1539.69 940.4 1539.68 940.4C1539.68 940.4 1539.68 940.4 1539.67 940.4C1539.67 940.4 1539.66 940.4 1539.66 940.4C1539.66 940.4 1539.65 940.4 1539.65 940.4C1539.64 940.4 1539.64 940.4 1539.64 940.4C1539.63 940.4 1539.63 940.4 1539.63 940.4C1539.62 940.4 1539.62 940.4 1539.61 940.4C1539.61 940.4 1539.61 940.4 1539.6 940.4C1539.6 940.4 1539.59 940.4 1539.59 940.4C1539.59 940.4 1539.58 940.4 1539.58 940.4C1539.57 940.4 1539.57 940.4 1539.57 940.4C1539.56 940.4 1539.56 940.4 1539.55 940.4C1539.55 940.4 1539.55 940.4 1539.54 940.4C1539.54 940.4 1539.54 940.4 1539.53 940.4V942.4ZM1546.73 942.4C1549.62 942.4 1552.9 941.987 1556.55 941.176L1556.11 939.224C1552.56 940.013 1549.44 940.4 1546.73 940.4V942.4ZM1555.33 940.2V987.6H1557.33V940.2H1555.33ZM1556.02 986.651C1553.67 987.433 1550.52 988.223 1546.54 989.019L1546.93 990.981C1550.95 990.177 1554.19 989.367 1556.65 988.549L1556.02 986.651ZM1546.42 989.051C1542.86 990.237 1539.1 991.227 1535.14 992.019L1535.53 993.981C1539.57 993.173 1543.41 992.163 1547.05 990.949L1546.42 989.051ZM1535.14 992.019C1531.17 992.813 1527.2 993.408 1523.23 993.805L1523.43 995.795C1527.46 995.392 1531.5 994.787 1535.53 993.981L1535.14 992.019ZM1523.23 993.805C1519.25 994.203 1515.89 994.4 1513.13 994.4V996.4C1515.98 996.4 1519.41 996.197 1523.43 995.795L1523.23 993.805ZM1513.13 994.4C1499.26 994.4 1487.85 991.626 1478.85 986.146L1477.81 987.854C1487.21 993.574 1499 996.4 1513.13 996.4V994.4ZM1478.85 986.146C1469.96 980.734 1464.08 971.223 1461.31 957.404L1459.35 957.796C1462.19 971.977 1468.3 982.066 1477.81 987.854L1478.85 986.146ZM1459.63 956.882C1446.16 969.96 1429.51 979.484 1409.64 985.442L1410.22 987.358C1430.36 981.317 1447.3 971.64 1461.03 958.318L1459.63 956.882ZM1409.64 985.444C1390.12 991.418 1371.22 994.4 1352.93 994.4V996.4C1371.44 996.4 1390.54 993.382 1410.22 987.356L1409.64 985.444ZM1352.93 994.4C1339.03 994.4 1325.73 992.414 1313.03 988.445L1312.43 990.354C1325.33 994.386 1338.83 996.4 1352.93 996.4V994.4ZM1313 988.437C1300.31 984.867 1289.01 979.515 1279.12 972.388L1277.95 974.012C1288.05 981.285 1299.56 986.734 1312.46 990.363L1313 988.437ZM1279.15 972.416C1269.66 964.904 1261.95 955.612 1256.01 944.528L1254.25 945.472C1260.31 956.788 1268.2 966.296 1277.91 973.984L1279.15 972.416ZM1256.03 944.565C1250.51 933.123 1247.73 919.876 1247.73 904.8H1245.73C1245.73 920.124 1248.55 933.677 1254.23 945.435L1256.03 944.565ZM1247.73 904.8C1247.73 885.708 1251.11 870.295 1257.8 858.493L1256.06 857.507C1249.15 869.705 1245.73 885.492 1245.73 904.8H1247.73ZM1257.79 858.514C1264.91 846.644 1274 837.365 1285.05 830.655L1284.01 828.945C1272.66 835.835 1263.35 845.356 1256.07 857.486L1257.79 858.514ZM1285.04 830.663C1296.54 823.922 1309.23 819.16 1323.13 816.381L1322.74 814.419C1308.63 817.24 1295.73 822.078 1284.03 828.937L1285.04 830.663ZM1323.15 816.376C1337.51 813.184 1351.88 810.79 1366.24 809.194L1366.02 807.206C1351.58 808.81 1337.15 811.216 1322.71 814.424L1323.15 816.376ZM1366.32 809.182C1378.69 806.788 1390.45 805.194 1401.6 804.397L1401.46 802.403C1390.22 803.206 1378.38 804.812 1365.94 807.218L1366.32 809.182ZM1401.64 804.394C1412.88 803.19 1422.74 801.381 1431.21 798.962L1430.66 797.038C1422.32 799.419 1412.58 801.21 1401.42 802.406L1401.64 804.394ZM1431.19 798.965C1440.11 796.534 1447.08 792.865 1452.04 787.907L1450.62 786.493C1445.98 791.135 1439.36 794.666 1430.67 797.035L1431.19 798.965ZM1452.04 787.907C1457.49 782.46 1460.13 774.567 1460.13 764.4H1458.13C1458.13 774.233 1455.58 781.54 1450.62 786.493L1452.04 787.907ZM1460.13 764.4C1460.13 755.43 1457.89 747.997 1453.32 742.182L1451.74 743.418C1455.98 748.803 1458.13 755.77 1458.13 764.4H1460.13ZM1453.35 742.219C1449.24 736.47 1443.89 732.155 1437.33 729.284L1436.53 731.116C1442.77 733.845 1447.82 737.93 1451.72 743.381L1453.35 742.219ZM1437.4 729.318C1431.28 726.05 1424.35 724.017 1416.64 723.205L1416.43 725.194C1423.91 725.983 1430.59 727.95 1436.46 731.082L1437.4 729.318ZM1416.69 723.212C1409.04 722.005 1401.79 721.4 1394.93 721.4V723.4C1401.67 723.4 1408.82 723.995 1416.38 725.188L1416.69 723.212ZM1394.93 721.4C1375.6 721.4 1359.59 725.428 1346.99 733.56L1348.07 735.24C1360.27 727.372 1375.87 723.4 1394.93 723.4V721.4ZM1346.99 733.56C1334.29 741.751 1327.16 754.45 1325.54 771.505L1327.53 771.695C1329.1 755.15 1335.97 743.049 1348.07 735.24L1346.99 733.56ZM1326.53 770.6H1258.13V772.6H1326.53V770.6ZM1259.13 771.66C1260.32 751.783 1265.09 735.359 1273.37 722.337L1271.69 721.263C1263.17 734.641 1258.34 751.417 1257.13 771.54L1259.13 771.66ZM1273.37 722.337C1281.7 709.258 1292.19 698.766 1304.86 690.848L1303.8 689.152C1290.87 697.234 1280.16 707.942 1271.69 721.263L1273.37 722.337ZM1304.85 690.855C1317.94 682.921 1332.63 677.361 1348.92 674.181L1348.54 672.219C1332.03 675.439 1317.12 681.079 1303.81 689.145L1304.85 690.855ZM1348.92 674.181C1365.26 670.994 1381.99 669.4 1399.13 669.4V667.4C1381.87 667.4 1365 669.006 1348.54 672.219L1348.92 674.181ZM1399.13 669.4C1414.26 669.4 1429.19 670.992 1443.92 674.177L1444.34 672.223C1429.47 669.008 1414.4 667.4 1399.13 667.4V669.4ZM1443.92 674.177C1458.62 677.356 1471.71 682.516 1483.2 689.65L1484.26 687.95C1472.55 680.684 1459.24 675.444 1444.34 672.223L1443.92 674.177ZM1483.22 689.658C1495.08 696.778 1504.57 706.066 1511.68 717.527L1513.38 716.473C1506.09 704.734 1496.38 695.222 1484.25 687.943L1483.22 689.658ZM1511.69 717.541C1518.76 728.546 1522.33 742.147 1522.33 758.4H1524.33C1524.33 741.853 1520.7 727.854 1513.37 716.459L1511.69 717.541ZM1522.33 758.4V918H1524.33V758.4H1522.33ZM1454.38 830.763C1444.14 837.458 1431.5 841.618 1416.43 843.206L1416.64 845.194C1431.96 843.582 1444.92 839.342 1455.48 832.437L1454.38 830.763ZM1416.45 843.203C1401.22 844.406 1385.98 846.41 1370.75 849.217L1371.11 851.183C1386.28 848.39 1401.44 846.394 1416.61 845.197L1416.45 843.203ZM1370.77 849.214C1363.51 850.423 1356.45 852.237 1349.6 854.657L1350.26 856.543C1357.01 854.163 1363.95 852.377 1371.1 851.186L1370.77 849.214ZM1349.65 854.641C1342.74 856.673 1336.63 859.726 1331.32 863.807L1332.54 865.393C1337.64 861.474 1343.52 858.527 1350.21 856.559L1349.65 854.641ZM1331.36 863.778C1326.01 867.485 1321.7 872.622 1318.44 879.153L1320.23 880.047C1323.36 873.777 1327.46 868.915 1332.5 865.422L1331.36 863.778ZM1318.43 879.177C1315.55 885.346 1314.13 892.9 1314.13 901.8H1316.13C1316.13 893.1 1317.52 885.854 1320.24 880.023L1318.43 879.177ZM1314.13 901.8C1314.13 909.607 1316.4 916.244 1320.97 921.646L1322.49 920.354C1318.27 915.356 1316.13 909.193 1316.13 901.8H1314.13ZM1320.97 921.646C1325.45 926.942 1330.75 931.223 1336.86 934.482L1337.8 932.718C1331.91 929.577 1326.81 925.458 1322.49 920.354L1320.97 921.646ZM1336.93 934.516C1343.41 937.351 1350.29 939.373 1357.57 940.586L1357.9 938.614C1350.77 937.427 1344.05 935.449 1337.73 932.684L1336.93 934.516ZM1357.58 940.588C1365.21 941.794 1372.07 942.4 1378.13 942.4V940.4C1372.2 940.4 1365.45 939.806 1357.89 938.612L1357.58 940.588ZM1378.13 942.4C1385.82 942.4 1394.09 941.389 1402.95 939.375L1402.51 937.425C1393.77 939.411 1385.64 940.4 1378.13 940.4V942.4ZM1402.95 939.375C1411.86 937.35 1420.17 933.906 1427.87 929.045L1426.8 927.354C1419.29 932.094 1411.2 935.45 1402.51 937.425L1402.95 939.375ZM1427.85 929.057C1435.96 924.191 1442.66 918.101 1447.94 910.785L1446.32 909.615C1441.2 916.699 1434.71 922.609 1426.82 927.343L1427.85 929.057ZM1447.96 910.765C1453.29 902.971 1455.93 893.566 1455.93 882.6H1453.93C1453.93 893.234 1451.37 902.229 1446.31 909.635L1447.96 910.765ZM1455.93 882.6V831.6H1453.93V882.6H1455.93ZM1578.93 676.8V675.8H1577.93V676.8H1578.93ZM1643.73 676.8H1644.73V675.8H1643.73V676.8ZM1643.73 720H1642.73V721H1643.73V720ZM1645.53 720V721H1646.06L1646.35 720.565L1645.53 720ZM1682.13 682.8L1681.63 681.935L1681.62 681.941L1681.61 681.947L1682.13 682.8ZM1707.93 672.6L1708.17 673.57L1708.19 673.565L1708.21 673.56L1707.93 672.6ZM1793.13 681L1792.66 681.885L1792.67 681.89L1793.13 681ZM1827.93 720L1827 720.36L1827.66 722.076L1828.74 720.587L1827.93 720ZM1868.13 682.2L1868.65 683.055L1868.13 682.2ZM2001.33 692.4L2000.67 693.147L2000.67 693.155L2001.33 692.4ZM2028.93 987V988H2029.93V987H2028.93ZM1960.53 987H1959.53V988H1960.53V987ZM1959.33 772.2L1958.33 772.277L1958.33 772.28L1959.33 772.2ZM1952.13 745.8L1951.23 746.228L1951.24 746.257L1951.26 746.286L1952.13 745.8ZM1853.73 744L1852.92 743.414L1853.73 744ZM1838.13 987V988H1839.13V987H1838.13ZM1769.73 987H1768.73V988H1769.73V987ZM1757.73 739.2L1756.9 739.762L1756.91 739.779L1756.93 739.795L1757.73 739.2ZM1689.33 727.8L1688.94 726.881L1688.93 726.884L1688.92 726.888L1689.33 727.8ZM1667.73 743.4L1667 742.715L1666.99 742.726L1666.98 742.738L1667.73 743.4ZM1652.73 768.6L1651.8 768.229L1651.79 768.245L1651.79 768.261L1652.73 768.6ZM1647.33 987V988H1648.33V987H1647.33ZM1578.93 987H1577.93V988H1578.93V987ZM1578.93 677.8H1643.73V675.8H1578.93V677.8ZM1642.73 676.8V720H1644.73V676.8H1642.73ZM1643.73 721H1645.53V719H1643.73V721ZM1646.35 720.565C1651.53 713.005 1657.1 706.045 1663.06 699.684L1661.6 698.316C1655.56 704.755 1649.93 711.795 1644.7 719.435L1646.35 720.565ZM1663.06 699.684C1669 693.347 1675.53 688.005 1682.65 683.653L1681.61 681.947C1674.33 686.395 1667.66 691.853 1661.6 698.316L1663.06 699.684ZM1682.63 683.665C1690.14 679.318 1698.65 675.95 1708.17 673.57L1707.69 671.63C1698.01 674.05 1689.32 677.482 1681.63 681.935L1682.63 683.665ZM1708.21 673.56C1717.7 670.792 1728.6 669.4 1740.93 669.4V667.4C1728.46 667.4 1717.36 668.808 1707.65 671.64L1708.21 673.56ZM1740.93 669.4C1759.57 669.4 1776.81 673.564 1792.66 681.885L1793.59 680.115C1777.45 671.636 1759.88 667.4 1740.93 667.4V669.4ZM1792.67 681.89C1808.85 690.175 1820.28 702.983 1827 720.36L1828.86 719.64C1821.98 701.816 1810.21 688.625 1793.59 680.11L1792.67 681.89ZM1828.74 720.587C1840.27 704.683 1853.57 692.179 1868.65 683.055L1867.61 681.344C1852.29 690.621 1838.79 703.317 1827.12 719.413L1828.74 720.587ZM1868.65 683.055C1883.65 673.973 1902.46 669.4 1925.13 669.4V667.4C1902.2 667.4 1883.01 672.027 1867.61 681.344L1868.65 683.055ZM1925.13 669.4C1957.77 669.4 1982.91 677.361 2000.67 693.147L2001.99 691.653C1983.75 675.439 1958.09 667.4 1925.13 667.4V669.4ZM2000.67 693.155C2018.76 708.882 2027.93 735.333 2027.93 772.8H2029.93C2029.93 735.067 2020.7 707.918 2001.99 691.645L2000.67 693.155ZM2027.93 772.8V987H2029.93V772.8H2027.93ZM2028.93 986H1960.53V988H2028.93V986ZM1961.53 987V805.8H1959.53V987H1961.53ZM1961.53 805.8C1961.53 793.379 1961.13 782.152 1960.33 772.12L1958.33 772.28C1959.13 782.248 1959.53 793.421 1959.53 805.8H1961.53ZM1960.33 772.123C1959.52 761.617 1957.09 752.669 1953 745.314L1951.26 746.286C1955.17 753.331 1957.54 761.983 1958.33 772.277L1960.33 772.123ZM1953.03 745.372C1949.34 737.572 1943.58 731.614 1935.8 727.515L1934.86 729.285C1942.28 733.186 1947.72 738.828 1951.23 746.228L1953.03 745.372ZM1935.8 727.515C1928 723.41 1917.41 721.4 1904.13 721.4V723.4C1917.25 723.4 1927.46 725.39 1934.86 729.285L1935.8 727.515ZM1904.13 721.4C1880.72 721.4 1863.56 728.677 1852.92 743.414L1854.54 744.585C1864.7 730.523 1881.14 723.4 1904.13 723.4V721.4ZM1852.92 743.414C1842.35 758.05 1837.13 778.687 1837.13 805.2H1839.13C1839.13 778.913 1844.31 758.75 1854.54 744.585L1852.92 743.414ZM1837.13 805.2V987H1839.13V805.2H1837.13ZM1838.13 986H1769.73V988H1838.13V986ZM1770.73 987V787.8H1768.73V987H1770.73ZM1770.73 787.8C1770.73 766.106 1766.72 749.653 1758.53 738.605L1756.93 739.795C1764.74 750.347 1768.73 766.294 1768.73 787.8H1770.73ZM1758.56 738.638C1750.69 727.04 1736.08 721.4 1715.13 721.4V723.4C1735.78 723.4 1749.57 728.96 1756.9 739.762L1758.56 738.638ZM1715.13 721.4C1706.19 721.4 1697.46 723.23 1688.94 726.881L1689.72 728.719C1698 725.17 1706.47 723.4 1715.13 723.4V721.4ZM1688.92 726.888C1680.79 730.545 1673.49 735.825 1667 742.715L1668.46 744.085C1674.77 737.375 1681.87 732.255 1689.74 728.712L1688.92 726.888ZM1666.98 742.738C1660.89 749.639 1655.84 758.142 1651.8 768.229L1653.66 768.971C1657.62 759.058 1662.57 750.761 1668.48 744.062L1666.98 742.738ZM1651.79 768.261C1648.14 778.39 1646.33 789.907 1646.33 802.8H1648.33C1648.33 790.093 1650.12 778.81 1653.67 768.939L1651.79 768.261ZM1646.33 802.8V987H1648.33V802.8H1646.33ZM1647.33 986H1578.93V988H1647.33V986ZM1579.93 987V676.8H1577.93V987H1579.93ZM2084.8 558.6V557.6H2083.8V558.6H2084.8ZM2153.2 558.6H2154.2V557.6H2153.2V558.6ZM2153.2 623.4V624.4H2154.2V623.4H2153.2ZM2084.8 623.4H2083.8V624.4H2084.8V623.4ZM2084.8 676.8V675.8H2083.8V676.8H2084.8ZM2153.2 676.8H2154.2V675.8H2153.2V676.8ZM2153.2 987V988H2154.2V987H2153.2ZM2084.8 987H2083.8V988H2084.8V987ZM2084.8 559.6H2153.2V557.6H2084.8V559.6ZM2152.2 558.6V623.4H2154.2V558.6H2152.2ZM2153.2 622.4H2084.8V624.4H2153.2V622.4ZM2085.8 623.4V558.6H2083.8V623.4H2085.8ZM2084.8 677.8H2153.2V675.8H2084.8V677.8ZM2152.2 676.8V987H2154.2V676.8H2152.2ZM2153.2 986H2084.8V988H2153.2V986ZM2085.8 987V676.8H2083.8V987H2085.8ZM2209.73 676.8V675.8H2208.73V676.8H2209.73ZM2274.53 676.8H2275.53V675.8H2274.53V676.8ZM2274.53 722.4H2273.53V722.814L2273.82 723.107L2274.53 722.4ZM2275.73 723.6L2275.02 724.307L2275.92 725.21L2276.58 724.117L2275.73 723.6ZM2316.53 683.4L2317.02 684.268L2317.03 684.264L2317.04 684.259L2316.53 683.4ZM2452.73 694.8L2453.39 694.056L2452.73 694.8ZM2482.13 987V988H2483.13V987H2482.13ZM2413.73 987H2412.73V988H2413.73V987ZM2413.73 792H2414.73V791.984L2414.73 791.967L2413.73 792ZM2398.13 739.2L2397.37 739.851L2397.37 739.858L2397.38 739.864L2398.13 739.2ZM2321.93 729L2322.33 729.917L2322.34 729.91L2322.36 729.902L2321.93 729ZM2298.53 746.4L2299.27 747.064L2299.28 747.054L2299.29 747.044L2298.53 746.4ZM2283.53 772.2L2284.47 772.539L2283.53 772.2ZM2278.13 987V988H2279.13V987H2278.13ZM2209.73 987H2208.73V988H2209.73V987ZM2209.73 677.8H2274.53V675.8H2209.73V677.8ZM2273.53 676.8V722.4H2275.53V676.8H2273.53ZM2273.82 723.107L2275.02 724.307L2276.43 722.893L2275.23 721.693L2273.82 723.107ZM2276.58 724.117C2286.9 707.057 2300.38 693.78 2317.02 684.268L2316.03 682.532C2299.08 692.22 2285.36 705.743 2274.87 723.083L2276.58 724.117ZM2317.04 684.259C2333.68 674.355 2352.1 669.4 2372.33 669.4V667.4C2351.75 667.4 2332.98 672.445 2316.02 682.541L2317.04 684.259ZM2372.33 669.4C2406.15 669.4 2432.69 678.152 2452.06 695.544L2453.39 694.056C2433.56 676.248 2406.5 667.4 2372.33 667.4V669.4ZM2452.06 695.544C2471.38 712.896 2481.13 738.984 2481.13 774H2483.13C2483.13 738.616 2473.27 711.904 2453.39 694.056L2452.06 695.544ZM2481.13 774V987H2483.13V774H2481.13ZM2482.13 986H2413.73V988H2482.13V986ZM2414.73 987V792H2412.73V987H2414.73ZM2414.73 791.967C2413.92 767.481 2408.71 749.596 2398.87 738.536L2397.38 739.864C2406.75 750.404 2411.93 767.719 2412.73 792.033L2414.73 791.967ZM2398.89 738.549C2389.03 727.052 2373.7 721.4 2353.13 721.4V723.4C2373.35 723.4 2388.02 728.948 2397.37 739.851L2398.89 738.549ZM2353.13 721.4C2341.4 721.4 2330.85 723.625 2321.5 728.098L2322.36 729.902C2331.41 725.575 2341.66 723.4 2353.13 723.4V721.4ZM2321.53 728.083C2312.19 732.144 2304.26 738.037 2297.76 745.756L2299.29 747.044C2305.59 739.563 2313.27 733.856 2322.33 729.917L2321.53 728.083ZM2297.78 745.736C2291.29 753.04 2286.22 761.754 2282.59 771.861L2284.47 772.539C2288.03 762.646 2292.97 754.16 2299.27 747.064L2297.78 745.736ZM2282.59 771.861C2278.94 781.976 2277.13 792.691 2277.13 804H2279.13C2279.13 792.909 2280.91 782.424 2284.47 772.539L2282.59 771.861ZM2277.13 804V987H2279.13V804H2277.13ZM2278.13 986H2209.73V988H2278.13V986ZM2210.73 987V676.8H2208.73V987H2210.73Z" fill="white"/>
</g>
<circle cx="520.5" cy="766.5" r="320.5" fill="#047857"/>
<mask id="mask0_301_7" style="mask-type:alpha" maskUnits="userSpaceOnUse" x="200" y="446" width="641" height="641">
<circle cx="520.5" cy="766.5" r="320.5" fill="#2E8555"/>
</mask>
<g mask="url(#mask0_301_7)">
<line x1="391" y1="461" x2="391" y2="1067" stroke="white" stroke-width="50" stroke-linecap="round"/>
<line x1="326" y1="492" x2="326" y2="1039" stroke="white" stroke-width="50" stroke-linecap="round"/>
<path d="M395 969C421.201 956.784 483.431 870.72 589 920C659.18 952.761 689 948 689 948C714.806 948 785.29 941.346 849 864" stroke="white" stroke-width="50" stroke-linecap="round"/>
</g>
<defs>
<filter id="filter0_d_301_7" x="942.6" y="558.6" width="1543.53" height="444.8" filterUnits="userSpaceOnUse" color-interpolation-filters="sRGB">
<feFlood flood-opacity="0" result="BackgroundImageFix"/>
<feColorMatrix in="SourceAlpha" type="matrix" values="0 0 0 0 0 0 0 0 0 0 0 0 0 0 0 0 0 0 127 0" result="hardAlpha"/>
<feOffset dy="4"/>
<feGaussianBlur stdDeviation="2"/>
<feComposite in2="hardAlpha" operator="out"/>
<feColorMatrix type="matrix" values="0 0 0 0 0 0 0 0 0 0 0 0 0 0 0 0 0 0 0.25 0"/>
<feBlend mode="normal" in2="BackgroundImageFix" result="effect1_dropShadow_301_7"/>
<feBlend mode="normal" in="SourceGraphic" in2="effect1_dropShadow_301_7" result="shape"/>
</filter>
</defs>
</svg>
