<svg width="2667" height="1459" viewBox="0 0 2667 1459" fill="none" xmlns="http://www.w3.org/2000/svg">
<rect width="2667" height="1459" fill="#3D3E3F"/>
<g filter="url(#filter0_d_201_7)">
<path d="M1005.6 522.6H1080.6V886.2H1298.4V951H1005.6V522.6ZM1582.33 882C1582.33 890.4 1583.33 896.4 1585.33 900C1587.73 903.6 1592.13 905.4 1598.53 905.4C1600.53 905.4 1602.93 905.4 1605.73 905.4C1608.53 905.4 1611.73 905 1615.33 904.2V951.6C1612.93 952.4 1609.73 953.2 1605.73 954C1602.13 955.2 1598.33 956.2 1594.33 957C1590.33 957.8 1586.33 958.4 1582.33 958.8C1578.33 959.2 1574.93 959.4 1572.13 959.4C1558.13 959.4 1546.53 956.6 1537.33 951C1528.13 945.4 1522.13 935.6 1519.33 921.6C1505.73 934.8 1488.93 944.4 1468.93 950.4C1449.33 956.4 1430.33 959.4 1411.93 959.4C1397.93 959.4 1384.53 957.4 1371.73 953.4C1358.93 949.8 1347.53 944.4 1337.53 937.2C1327.93 929.6 1320.13 920.2 1314.13 909C1308.53 897.4 1305.73 884 1305.73 868.8C1305.73 849.6 1309.13 834 1315.93 822C1323.13 810 1332.33 800.6 1343.53 793.8C1355.13 787 1367.93 782.2 1381.93 779.4C1396.33 776.2 1410.73 773.8 1425.13 772.2C1437.53 769.8 1449.33 768.2 1460.53 767.4C1471.73 766.2 1481.53 764.4 1489.93 762C1498.73 759.6 1505.53 756 1510.33 751.2C1515.53 746 1518.13 738.4 1518.13 728.4C1518.13 719.6 1515.93 712.4 1511.53 706.8C1507.53 701.2 1502.33 697 1495.93 694.2C1489.93 691 1483.13 689 1475.53 688.2C1467.93 687 1460.73 686.4 1453.93 686.4C1434.73 686.4 1418.93 690.4 1406.53 698.4C1394.13 706.4 1387.13 718.8 1385.53 735.6H1317.13C1318.33 715.6 1323.13 699 1331.53 685.8C1339.93 672.6 1350.53 662 1363.33 654C1376.53 646 1391.33 640.4 1407.73 637.2C1424.13 634 1440.93 632.4 1458.13 632.4C1473.33 632.4 1488.33 634 1503.13 637.2C1517.93 640.4 1531.13 645.6 1542.73 652.8C1554.73 660 1564.33 669.4 1571.53 681C1578.73 692.2 1582.33 706 1582.33 722.4V882ZM1513.93 795.6C1503.53 802.4 1490.73 806.6 1475.53 808.2C1460.33 809.4 1445.13 811.4 1429.93 814.2C1422.73 815.4 1415.73 817.2 1408.93 819.6C1402.13 821.6 1396.13 824.6 1390.93 828.6C1385.73 832.2 1381.53 837.2 1378.33 843.6C1375.53 849.6 1374.13 857 1374.13 865.8C1374.13 873.4 1376.33 879.8 1380.73 885C1385.13 890.2 1390.33 894.4 1396.33 897.6C1402.73 900.4 1409.53 902.4 1416.73 903.6C1424.33 904.8 1431.13 905.4 1437.13 905.4C1444.73 905.4 1452.93 904.4 1461.73 902.4C1470.53 900.4 1478.73 897 1486.33 892.2C1494.33 887.4 1500.93 881.4 1506.13 874.2C1511.33 866.6 1513.93 857.4 1513.93 846.6V795.6ZM1637.93 640.8H1702.73V684H1704.53C1709.73 676.4 1715.33 669.4 1721.33 663C1727.33 656.6 1733.93 651.2 1741.13 646.8C1748.73 642.4 1757.33 639 1766.93 636.6C1776.53 633.8 1787.53 632.4 1799.93 632.4C1818.73 632.4 1836.13 636.6 1852.13 645C1868.53 653.4 1880.13 666.4 1886.93 684C1898.53 668 1911.93 655.4 1927.13 646.2C1942.33 637 1961.33 632.4 1984.13 632.4C2016.93 632.4 2042.33 640.4 2060.33 656.4C2078.73 672.4 2087.93 699.2 2087.93 736.8V951H2019.53V769.8C2019.53 757.4 2019.13 746.2 2018.33 736.2C2017.53 725.8 2015.13 717 2011.13 709.8C2007.53 702.2 2001.93 696.4 1994.33 692.4C1986.73 688.4 1976.33 686.4 1963.13 686.4C1939.93 686.4 1923.13 693.6 1912.73 708C1902.33 722.4 1897.13 742.8 1897.13 769.2V951H1828.73V751.8C1828.73 730.2 1824.73 714 1816.73 703.2C1809.13 692 1794.93 686.4 1774.13 686.4C1765.33 686.4 1756.73 688.2 1748.33 691.8C1740.33 695.4 1733.13 700.6 1726.73 707.4C1720.73 714.2 1715.73 722.6 1711.73 732.6C1708.13 742.6 1706.33 754 1706.33 766.8V951H1637.93V640.8ZM2143.8 522.6H2212.2V587.4H2143.8V522.6ZM2143.8 640.8H2212.2V951H2143.8V640.8ZM2268.73 640.8H2333.53V686.4L2334.73 687.6C2345.13 670.4 2358.73 657 2375.53 647.4C2392.33 637.4 2410.93 632.4 2431.33 632.4C2465.33 632.4 2492.13 641.2 2511.73 658.8C2531.33 676.4 2541.13 702.8 2541.13 738V951H2472.73V756C2471.93 731.6 2466.73 714 2457.13 703.2C2447.53 692 2432.53 686.4 2412.13 686.4C2400.53 686.4 2390.13 688.6 2380.93 693C2371.73 697 2363.93 702.8 2357.53 710.4C2351.13 717.6 2346.13 726.2 2342.53 736.2C2338.93 746.2 2337.13 756.8 2337.13 768V951H2268.73V640.8Z" fill="white"/>
<path d="M1005.6 522.6V521.6H1004.6V522.6H1005.6ZM1080.6 522.6H1081.6V521.6H1080.6V522.6ZM1080.6 886.2H1079.6V887.2H1080.6V886.2ZM1298.4 886.2H1299.4V885.2H1298.4V886.2ZM1298.4 951V952H1299.4V951H1298.4ZM1005.6 951H1004.6V952H1005.6V951ZM1005.6 523.6H1080.6V521.6H1005.6V523.6ZM1079.6 522.6V886.2H1081.6V522.6H1079.6ZM1080.6 887.2H1298.4V885.2H1080.6V887.2ZM1297.4 886.2V951H1299.4V886.2H1297.4ZM1298.4 950H1005.6V952H1298.4V950ZM1006.6 951V522.6H1004.6V951H1006.6ZM1585.33 900L1584.46 900.486L1584.48 900.521L1584.5 900.555L1585.33 900ZM1615.33 904.2H1616.33V902.953L1615.11 903.224L1615.33 904.2ZM1615.33 951.6L1615.65 952.549L1616.33 952.321V951.6H1615.33ZM1605.73 954L1605.54 953.019L1605.47 953.032L1605.42 953.051L1605.73 954ZM1594.33 957L1594.53 957.981L1594.53 957.981L1594.33 957ZM1582.33 958.8L1582.43 959.795L1582.43 959.795L1582.33 958.8ZM1519.33 921.6L1520.31 921.404L1519.95 919.604L1518.63 920.882L1519.33 921.6ZM1468.93 950.4L1468.64 949.442L1468.64 949.444L1468.93 950.4ZM1371.73 953.4L1372.03 952.446L1372.02 952.441L1372 952.437L1371.73 953.4ZM1337.53 937.2L1336.91 937.984L1336.93 937.998L1336.95 938.012L1337.53 937.2ZM1314.13 909L1313.23 909.435L1313.24 909.454L1313.25 909.472L1314.13 909ZM1315.93 822L1315.07 821.486L1315.07 821.496L1315.06 821.507L1315.93 822ZM1343.53 793.8L1343.03 792.937L1343.02 792.941L1343.01 792.945L1343.53 793.8ZM1381.93 779.4L1382.13 780.381L1382.14 780.378L1382.15 780.376L1381.93 779.4ZM1425.13 772.2L1425.24 773.194L1425.28 773.189L1425.32 773.182L1425.13 772.2ZM1460.53 767.4L1460.6 768.397L1460.62 768.396L1460.64 768.394L1460.53 767.4ZM1489.93 762L1489.67 761.035L1489.66 761.038L1489.93 762ZM1510.33 751.2L1511.04 751.907L1511.04 751.907L1510.33 751.2ZM1511.53 706.8L1510.72 707.381L1510.73 707.4L1510.74 707.418L1511.53 706.8ZM1495.93 694.2L1495.46 695.082L1495.49 695.101L1495.53 695.116L1495.93 694.2ZM1475.53 688.2L1475.38 689.188L1475.4 689.192L1475.43 689.194L1475.53 688.2ZM1406.53 698.4L1405.99 697.56L1405.99 697.56L1406.53 698.4ZM1385.53 735.6V736.6H1386.44L1386.53 735.695L1385.53 735.6ZM1317.13 735.6L1316.13 735.54L1316.07 736.6H1317.13V735.6ZM1331.53 685.8L1330.69 685.263L1330.69 685.263L1331.53 685.8ZM1363.33 654L1362.81 653.145L1362.8 653.152L1363.33 654ZM1407.73 637.2L1407.92 638.181L1407.92 638.181L1407.73 637.2ZM1503.13 637.2L1502.92 638.177L1502.92 638.177L1503.13 637.2ZM1542.73 652.8L1542.2 653.65L1542.21 653.654L1542.22 653.657L1542.73 652.8ZM1571.53 681L1570.68 681.527L1570.69 681.534L1570.69 681.541L1571.53 681ZM1513.93 795.6H1514.93V793.751L1513.38 794.763L1513.93 795.6ZM1475.53 808.2L1475.61 809.197L1475.62 809.196L1475.64 809.195L1475.53 808.2ZM1429.93 814.2L1430.1 815.186L1430.1 815.185L1430.11 815.183L1429.93 814.2ZM1408.93 819.6L1409.21 820.559L1409.24 820.552L1409.26 820.543L1408.93 819.6ZM1390.93 828.6L1391.5 829.422L1391.52 829.408L1391.54 829.393L1390.93 828.6ZM1378.33 843.6L1377.44 843.153L1377.43 843.165L1377.43 843.177L1378.33 843.6ZM1380.73 885L1379.97 885.646L1379.97 885.646L1380.73 885ZM1396.33 897.6L1395.86 898.482L1395.89 898.501L1395.93 898.516L1396.33 897.6ZM1416.73 903.6L1416.57 904.586L1416.58 904.588L1416.73 903.6ZM1461.73 902.4L1461.95 903.375L1461.95 903.375L1461.73 902.4ZM1486.33 892.2L1485.82 891.343L1485.81 891.348L1485.8 891.355L1486.33 892.2ZM1506.13 874.2L1506.94 874.785L1506.95 874.775L1506.96 874.765L1506.13 874.2ZM1581.33 882C1581.33 890.428 1582.33 896.649 1584.46 900.486L1586.21 899.514C1584.34 896.151 1583.33 890.372 1583.33 882H1581.33ZM1584.5 900.555C1587.16 904.55 1591.97 906.4 1598.53 906.4V904.4C1592.3 904.4 1588.3 902.65 1586.16 899.445L1584.5 900.555ZM1598.53 906.4C1598.54 906.4 1598.54 906.4 1598.54 906.4C1598.55 906.4 1598.55 906.4 1598.55 906.4C1598.56 906.4 1598.56 906.4 1598.57 906.4C1598.57 906.4 1598.57 906.4 1598.58 906.4C1598.58 906.4 1598.59 906.4 1598.59 906.4C1598.59 906.4 1598.6 906.4 1598.6 906.4C1598.61 906.4 1598.61 906.4 1598.61 906.4C1598.62 906.4 1598.62 906.4 1598.63 906.4C1598.63 906.4 1598.63 906.4 1598.64 906.4C1598.64 906.4 1598.64 906.4 1598.65 906.4C1598.65 906.4 1598.66 906.4 1598.66 906.4C1598.66 906.4 1598.67 906.4 1598.67 906.4C1598.68 906.4 1598.68 906.4 1598.68 906.4C1598.69 906.4 1598.69 906.4 1598.7 906.4C1598.7 906.4 1598.7 906.4 1598.71 906.4C1598.71 906.4 1598.72 906.4 1598.72 906.4C1598.72 906.4 1598.73 906.4 1598.73 906.4C1598.74 906.4 1598.74 906.4 1598.74 906.4C1598.75 906.4 1598.75 906.4 1598.76 906.4C1598.76 906.4 1598.76 906.4 1598.77 906.4C1598.77 906.4 1598.78 906.4 1598.78 906.4C1598.78 906.4 1598.79 906.4 1598.79 906.4C1598.8 906.4 1598.8 906.4 1598.8 906.4C1598.81 906.4 1598.81 906.4 1598.82 906.4C1598.82 906.4 1598.82 906.4 1598.83 906.4C1598.83 906.4 1598.84 906.4 1598.84 906.4C1598.84 906.4 1598.85 906.4 1598.85 906.4C1598.86 906.4 1598.86 906.4 1598.86 906.4C1598.87 906.4 1598.87 906.4 1598.87 906.4C1598.88 906.4 1598.88 906.4 1598.89 906.4C1598.89 906.4 1598.89 906.4 1598.9 906.4C1598.9 906.4 1598.91 906.4 1598.91 906.4C1598.91 906.4 1598.92 906.4 1598.92 906.4C1598.93 906.4 1598.93 906.4 1598.94 906.4C1598.94 906.4 1598.94 906.4 1598.95 906.4C1598.95 906.4 1598.96 906.4 1598.96 906.4C1598.96 906.4 1598.97 906.4 1598.97 906.4C1598.98 906.4 1598.98 906.4 1598.98 906.4C1598.99 906.4 1598.99 906.4 1599 906.4C1599 906.4 1599 906.4 1599.01 906.4C1599.01 906.4 1599.02 906.4 1599.02 906.4C1599.02 906.4 1599.03 906.4 1599.03 906.4C1599.04 906.4 1599.04 906.4 1599.04 906.4C1599.05 906.4 1599.05 906.4 1599.06 906.4C1599.06 906.4 1599.06 906.4 1599.07 906.4C1599.07 906.4 1599.08 906.4 1599.08 906.4C1599.08 906.4 1599.09 906.4 1599.09 906.4C1599.1 906.4 1599.1 906.4 1599.1 906.4C1599.11 906.4 1599.11 906.4 1599.12 906.4C1599.12 906.4 1599.12 906.4 1599.13 906.4C1599.13 906.4 1599.14 906.4 1599.14 906.4C1599.14 906.4 1599.15 906.4 1599.15 906.4C1599.16 906.4 1599.16 906.4 1599.17 906.4C1599.17 906.4 1599.17 906.4 1599.18 906.4C1599.18 906.4 1599.19 906.4 1599.19 906.4C1599.19 906.4 1599.2 906.4 1599.2 906.4C1599.21 906.4 1599.21 906.4 1599.21 906.4C1599.22 906.4 1599.22 906.4 1599.23 906.4C1599.23 906.4 1599.23 906.4 1599.24 906.4C1599.24 906.4 1599.25 906.4 1599.25 906.4C1599.25 906.4 1599.26 906.4 1599.26 906.4C1599.27 906.4 1599.27 906.4 1599.28 906.4C1599.28 906.4 1599.28 906.4 1599.29 906.4C1599.29 906.4 1599.3 906.4 1599.3 906.4C1599.3 906.4 1599.31 906.4 1599.31 906.4C1599.32 906.4 1599.32 906.4 1599.32 906.4C1599.33 906.4 1599.33 906.4 1599.34 906.4C1599.34 906.4 1599.35 906.4 1599.35 906.4C1599.35 906.4 1599.36 906.4 1599.36 906.4C1599.37 906.4 1599.37 906.4 1599.37 906.4C1599.38 906.4 1599.38 906.4 1599.39 906.4C1599.39 906.4 1599.39 906.4 1599.4 906.4C1599.4 906.4 1599.41 906.4 1599.41 906.4C1599.42 906.4 1599.42 906.4 1599.42 906.4C1599.43 906.4 1599.43 906.4 1599.44 906.4C1599.44 906.4 1599.44 906.4 1599.45 906.4C1599.45 906.4 1599.46 906.4 1599.46 906.4C1599.46 906.4 1599.47 906.4 1599.47 906.4C1599.48 906.4 1599.48 906.4 1599.49 906.4C1599.49 906.4 1599.49 906.4 1599.5 906.4C1599.5 906.4 1599.51 906.4 1599.51 906.4C1599.51 906.4 1599.52 906.4 1599.52 906.4C1599.53 906.4 1599.53 906.4 1599.54 906.4C1599.54 906.4 1599.54 906.4 1599.55 906.4C1599.55 906.4 1599.56 906.4 1599.56 906.4C1599.56 906.4 1599.57 906.4 1599.57 906.4C1599.58 906.4 1599.58 906.4 1599.59 906.4C1599.59 906.4 1599.59 906.4 1599.6 906.4C1599.6 906.4 1599.61 906.4 1599.61 906.4C1599.61 906.4 1599.62 906.4 1599.62 906.4C1599.63 906.4 1599.63 906.4 1599.64 906.4C1599.64 906.4 1599.64 906.4 1599.65 906.4C1599.65 906.4 1599.66 906.4 1599.66 906.4C1599.66 906.4 1599.67 906.4 1599.67 906.4C1599.68 906.4 1599.68 906.4 1599.69 906.4C1599.69 906.4 1599.69 906.4 1599.7 906.4C1599.7 906.4 1599.71 906.4 1599.71 906.4C1599.72 906.4 1599.72 906.4 1599.72 906.4C1599.73 906.4 1599.73 906.4 1599.74 906.4C1599.74 906.4 1599.74 906.4 1599.75 906.4C1599.75 906.4 1599.76 906.4 1599.76 906.4C1599.77 906.4 1599.77 906.4 1599.77 906.4C1599.78 906.4 1599.78 906.4 1599.79 906.4C1599.79 906.4 1599.8 906.4 1599.8 906.4C1599.8 906.4 1599.81 906.4 1599.81 906.4C1599.82 906.4 1599.82 906.4 1599.82 906.4C1599.83 906.4 1599.83 906.4 1599.84 906.4C1599.84 906.4 1599.85 906.4 1599.85 906.4C1599.85 906.4 1599.86 906.4 1599.86 906.4C1599.87 906.4 1599.87 906.4 1599.88 906.4C1599.88 906.4 1599.88 906.4 1599.89 906.4C1599.89 906.4 1599.9 906.4 1599.9 906.4C1599.91 906.4 1599.91 906.4 1599.91 906.4C1599.92 906.4 1599.92 906.4 1599.93 906.4C1599.93 906.4 1599.94 906.4 1599.94 906.4C1599.94 906.4 1599.95 906.4 1599.95 906.4C1599.96 906.4 1599.96 906.4 1599.97 906.4C1599.97 906.4 1599.97 906.4 1599.98 906.4C1599.98 906.4 1599.99 906.4 1599.99 906.4C1599.99 906.4 1600 906.4 1600 906.4C1600.01 906.4 1600.01 906.4 1600.02 906.4C1600.02 906.4 1600.02 906.4 1600.03 906.4C1600.03 906.4 1600.04 906.4 1600.04 906.4C1600.05 906.4 1600.05 906.4 1600.05 906.4C1600.06 906.4 1600.06 906.4 1600.07 906.4C1600.07 906.4 1600.08 906.4 1600.08 906.4C1600.08 906.4 1600.09 906.4 1600.09 906.4C1600.1 906.4 1600.1 906.4 1600.11 906.4C1600.11 906.4 1600.11 906.4 1600.12 906.4C1600.12 906.4 1600.13 906.4 1600.13 906.4C1600.14 906.4 1600.14 906.4 1600.14 906.4C1600.15 906.4 1600.15 906.4 1600.16 906.4C1600.16 906.4 1600.17 906.4 1600.17 906.4C1600.18 906.4 1600.18 906.4 1600.18 906.4C1600.19 906.4 1600.19 906.4 1600.2 906.4C1600.2 906.4 1600.21 906.4 1600.21 906.4C1600.21 906.4 1600.22 906.4 1600.22 906.4C1600.23 906.4 1600.23 906.4 1600.24 906.4C1600.24 906.4 1600.24 906.4 1600.25 906.4C1600.25 906.4 1600.26 906.4 1600.26 906.4C1600.27 906.4 1600.27 906.4 1600.27 906.4C1600.28 906.4 1600.28 906.4 1600.29 906.4C1600.29 906.4 1600.3 906.4 1600.3 906.4C1600.31 906.4 1600.31 906.4 1600.31 906.4C1600.32 906.4 1600.32 906.4 1600.33 906.4C1600.33 906.4 1600.34 906.4 1600.34 906.4C1600.34 906.4 1600.35 906.4 1600.35 906.4C1600.36 906.4 1600.36 906.4 1600.37 906.4C1600.37 906.4 1600.37 906.4 1600.38 906.4C1600.38 906.4 1600.39 906.4 1600.39 906.4C1600.4 906.4 1600.4 906.4 1600.41 906.4C1600.41 906.4 1600.41 906.4 1600.42 906.4C1600.42 906.4 1600.43 906.4 1600.43 906.4C1600.44 906.4 1600.44 906.4 1600.44 906.4C1600.45 906.4 1600.45 906.4 1600.46 906.4C1600.46 906.4 1600.47 906.4 1600.47 906.4C1600.48 906.4 1600.48 906.4 1600.48 906.4C1600.49 906.4 1600.49 906.4 1600.5 906.4C1600.5 906.4 1600.51 906.4 1600.51 906.4C1600.51 906.4 1600.52 906.4 1600.52 906.4C1600.53 906.4 1600.53 906.4 1600.54 906.4C1600.54 906.4 1600.55 906.4 1600.55 906.4C1600.55 906.4 1600.56 906.4 1600.56 906.4C1600.57 906.4 1600.57 906.4 1600.58 906.4C1600.58 906.4 1600.59 906.4 1600.59 906.4C1600.59 906.4 1600.6 906.4 1600.6 906.4C1600.61 906.4 1600.61 906.4 1600.62 906.4C1600.62 906.4 1600.62 906.4 1600.63 906.4C1600.63 906.4 1600.64 906.4 1600.64 906.4C1600.65 906.4 1600.65 906.4 1600.66 906.4C1600.66 906.4 1600.66 906.4 1600.67 906.4C1600.67 906.4 1600.68 906.4 1600.68 906.4C1600.69 906.4 1600.69 906.4 1600.7 906.4C1600.7 906.4 1600.7 906.4 1600.71 906.4C1600.71 906.4 1600.72 906.4 1600.72 906.4C1600.73 906.4 1600.73 906.4 1600.74 906.4C1600.74 906.4 1600.74 906.4 1600.75 906.4C1600.75 906.4 1600.76 906.4 1600.76 906.4C1600.77 906.4 1600.77 906.4 1600.78 906.4C1600.78 906.4 1600.78 906.4 1600.79 906.4C1600.79 906.4 1600.8 906.4 1600.8 906.4C1600.81 906.4 1600.81 906.4 1600.82 906.4C1600.82 906.4 1600.82 906.4 1600.83 906.4C1600.83 906.4 1600.84 906.4 1600.84 906.4C1600.85 906.4 1600.85 906.4 1600.86 906.4C1600.86 906.4 1600.86 906.4 1600.87 906.4C1600.87 906.4 1600.88 906.4 1600.88 906.4C1600.89 906.4 1600.89 906.4 1600.9 906.4C1600.9 906.4 1600.91 906.4 1600.91 906.4C1600.91 906.4 1600.92 906.4 1600.92 906.4C1600.93 906.4 1600.93 906.4 1600.94 906.4C1600.94 906.4 1600.95 906.4 1600.95 906.4C1600.95 906.4 1600.96 906.4 1600.96 906.4C1600.97 906.4 1600.97 906.4 1600.98 906.4C1600.98 906.4 1600.99 906.4 1600.99 906.4C1600.99 906.4 1601 906.4 1601 906.4C1601.01 906.4 1601.01 906.4 1601.02 906.4C1601.02 906.4 1601.03 906.4 1601.03 906.4C1601.04 906.4 1601.04 906.4 1601.04 906.4C1601.05 906.4 1601.05 906.4 1601.06 906.4C1601.06 906.4 1601.07 906.4 1601.07 906.4C1601.08 906.4 1601.08 906.4 1601.09 906.4C1601.09 906.4 1601.09 906.4 1601.1 906.4C1601.1 906.4 1601.11 906.4 1601.11 906.4C1601.12 906.4 1601.12 906.4 1601.13 906.4C1601.13 906.4 1601.14 906.4 1601.14 906.4C1601.14 906.4 1601.15 906.4 1601.15 906.4C1601.16 906.4 1601.16 906.4 1601.17 906.4C1601.17 906.4 1601.18 906.4 1601.18 906.4C1601.18 906.4 1601.19 906.4 1601.19 906.4C1601.2 906.4 1601.2 906.4 1601.21 906.4C1601.21 906.4 1601.22 906.4 1601.22 906.4C1601.23 906.4 1601.23 906.4 1601.24 906.4C1601.24 906.4 1601.24 906.4 1601.25 906.4C1601.25 906.4 1601.26 906.4 1601.26 906.4C1601.27 906.4 1601.27 906.4 1601.28 906.4C1601.28 906.4 1601.29 906.4 1601.29 906.4C1601.29 906.4 1601.3 906.4 1601.3 906.4C1601.31 906.4 1601.31 906.4 1601.32 906.4C1601.32 906.4 1601.33 906.4 1601.33 906.4C1601.34 906.4 1601.34 906.4 1601.34 906.4C1601.35 906.4 1601.35 906.4 1601.36 906.4C1601.36 906.4 1601.37 906.4 1601.37 906.4C1601.38 906.4 1601.38 906.4 1601.39 906.4C1601.39 906.4 1601.4 906.4 1601.4 906.4C1601.4 906.4 1601.41 906.4 1601.41 906.4C1601.42 906.4 1601.42 906.4 1601.43 906.4C1601.43 906.4 1601.44 906.4 1601.44 906.4C1601.45 906.4 1601.45 906.4 1601.45 906.4C1601.46 906.4 1601.46 906.4 1601.47 906.4C1601.47 906.4 1601.48 906.4 1601.48 906.4C1601.49 906.4 1601.49 906.4 1601.5 906.4C1601.5 906.4 1601.51 906.4 1601.51 906.4C1601.51 906.4 1601.52 906.4 1601.52 906.4C1601.53 906.4 1601.53 906.4 1601.54 906.4C1601.54 906.4 1601.55 906.4 1601.55 906.4C1601.56 906.4 1601.56 906.4 1601.57 906.4C1601.57 906.4 1601.57 906.4 1601.58 906.4C1601.58 906.4 1601.59 906.4 1601.59 906.4C1601.6 906.4 1601.6 906.4 1601.61 906.4C1601.61 906.4 1601.62 906.4 1601.62 906.4C1601.63 906.4 1601.63 906.4 1601.64 906.4C1601.64 906.4 1601.64 906.4 1601.65 906.4C1601.65 906.4 1601.66 906.4 1601.66 906.4C1601.67 906.4 1601.67 906.4 1601.68 906.4C1601.68 906.4 1601.69 906.4 1601.69 906.4C1601.7 906.4 1601.7 906.4 1601.71 906.4C1601.71 906.4 1601.71 906.4 1601.72 906.4C1601.72 906.4 1601.73 906.4 1601.73 906.4C1601.74 906.4 1601.74 906.4 1601.75 906.4C1601.75 906.4 1601.76 906.4 1601.76 906.4C1601.77 906.4 1601.77 906.4 1601.78 906.4C1601.78 906.4 1601.78 906.4 1601.79 906.4C1601.79 906.4 1601.8 906.4 1601.8 906.4C1601.81 906.4 1601.81 906.4 1601.82 906.4C1601.82 906.4 1601.83 906.4 1601.83 906.4C1601.84 906.4 1601.84 906.4 1601.85 906.4C1601.85 906.4 1601.85 906.4 1601.86 906.4C1601.86 906.4 1601.87 906.4 1601.87 906.4C1601.88 906.4 1601.88 906.4 1601.89 906.4C1601.89 906.4 1601.9 906.4 1601.9 906.4C1601.91 906.4 1601.91 906.4 1601.92 906.4C1601.92 906.4 1601.93 906.4 1601.93 906.4C1601.93 906.4 1601.94 906.4 1601.94 906.4C1601.95 906.4 1601.95 906.4 1601.96 906.4C1601.96 906.4 1601.97 906.4 1601.97 906.4C1601.98 906.4 1601.98 906.4 1601.99 906.4C1601.99 906.4 1602 906.4 1602 906.4C1602.01 906.4 1602.01 906.4 1602.01 906.4C1602.02 906.4 1602.02 906.4 1602.03 906.4C1602.03 906.4 1602.04 906.4 1602.04 906.4C1602.05 906.4 1602.05 906.4 1602.06 906.4C1602.06 906.4 1602.07 906.4 1602.07 906.4C1602.08 906.4 1602.08 906.4 1602.09 906.4C1602.09 906.4 1602.1 906.4 1602.1 906.4C1602.1 906.4 1602.11 906.4 1602.11 906.4C1602.12 906.4 1602.12 906.4 1602.13 906.4C1602.13 906.4 1602.14 906.4 1602.14 906.4C1602.15 906.4 1602.15 906.4 1602.16 906.4C1602.16 906.4 1602.17 906.4 1602.17 906.4C1602.18 906.4 1602.18 906.4 1602.19 906.4C1602.19 906.4 1602.2 906.4 1602.2 906.4C1602.2 906.4 1602.21 906.4 1602.21 906.4C1602.22 906.4 1602.22 906.4 1602.23 906.4C1602.23 906.4 1602.24 906.4 1602.24 906.4C1602.25 906.4 1602.25 906.4 1602.26 906.4C1602.26 906.4 1602.27 906.4 1602.27 906.4C1602.28 906.4 1602.28 906.4 1602.29 906.4C1602.29 906.4 1602.3 906.4 1602.3 906.4C1602.31 906.4 1602.31 906.4 1602.31 906.4C1602.32 906.4 1602.32 906.4 1602.33 906.4C1602.33 906.4 1602.34 906.4 1602.34 906.4C1602.35 906.4 1602.35 906.4 1602.36 906.4C1602.36 906.4 1602.37 906.4 1602.37 906.4C1602.38 906.4 1602.38 906.4 1602.39 906.4C1602.39 906.4 1602.4 906.4 1602.4 906.4C1602.41 906.4 1602.41 906.4 1602.42 906.4C1602.42 906.4 1602.43 906.4 1602.43 906.4C1602.43 906.4 1602.44 906.4 1602.44 906.4C1602.45 906.4 1602.45 906.4 1602.46 906.4C1602.46 906.4 1602.47 906.4 1602.47 906.4C1602.48 906.4 1602.48 906.4 1602.49 906.4C1602.49 906.4 1602.5 906.4 1602.5 906.4C1602.51 906.4 1602.51 906.4 1602.52 906.4C1602.52 906.4 1602.53 906.4 1602.53 906.4C1602.54 906.4 1602.54 906.4 1602.55 906.4C1602.55 906.4 1602.56 906.4 1602.56 906.4C1602.57 906.4 1602.57 906.4 1602.57 906.4C1602.58 906.4 1602.58 906.4 1602.59 906.4C1602.59 906.4 1602.6 906.4 1602.6 906.4C1602.61 906.4 1602.61 906.4 1602.62 906.4C1602.62 906.4 1602.63 906.4 1602.63 906.4C1602.64 906.4 1602.64 906.4 1602.65 906.4C1602.65 906.4 1602.66 906.4 1602.66 906.4C1602.67 906.4 1602.67 906.4 1602.68 906.4C1602.68 906.4 1602.69 906.4 1602.69 906.4C1602.7 906.4 1602.7 906.4 1602.71 906.4C1602.71 906.4 1602.72 906.4 1602.72 906.4C1602.73 906.4 1602.73 906.4 1602.74 906.4C1602.74 906.4 1602.75 906.4 1602.75 906.4C1602.75 906.4 1602.76 906.4 1602.76 906.4C1602.77 906.4 1602.77 906.4 1602.78 906.4C1602.78 906.4 1602.79 906.4 1602.79 906.4C1602.8 906.4 1602.8 906.4 1602.81 906.4C1602.81 906.4 1602.82 906.4 1602.82 906.4C1602.83 906.4 1602.83 906.4 1602.84 906.4C1602.84 906.4 1602.85 906.4 1602.85 906.4C1602.86 906.4 1602.86 906.4 1602.87 906.4C1602.87 906.4 1602.88 906.4 1602.88 906.4C1602.89 906.4 1602.89 906.4 1602.9 906.4C1602.9 906.4 1602.91 906.4 1602.91 906.4C1602.92 906.4 1602.92 906.4 1602.93 906.4C1602.93 906.4 1602.94 906.4 1602.94 906.4C1602.95 906.4 1602.95 906.4 1602.96 906.4C1602.96 906.4 1602.97 906.4 1602.97 906.4C1602.98 906.4 1602.98 906.4 1602.99 906.4C1602.99 906.4 1603 906.4 1603 906.4C1603.01 906.4 1603.01 906.4 1603.02 906.4C1603.02 906.4 1603.03 906.4 1603.03 906.4C1603.03 906.4 1603.04 906.4 1603.04 906.4C1603.05 906.4 1603.05 906.4 1603.06 906.4C1603.06 906.4 1603.07 906.4 1603.07 906.4C1603.08 906.4 1603.08 906.4 1603.09 906.4C1603.09 906.4 1603.1 906.4 1603.1 906.4C1603.11 906.4 1603.11 906.4 1603.12 906.4C1603.12 906.4 1603.13 906.4 1603.13 906.4C1603.14 906.4 1603.14 906.4 1603.15 906.4C1603.15 906.4 1603.16 906.4 1603.16 906.4C1603.17 906.4 1603.17 906.4 1603.18 906.4C1603.18 906.4 1603.19 906.4 1603.19 906.4C1603.2 906.4 1603.2 906.4 1603.21 906.4C1603.21 906.4 1603.22 906.4 1603.22 906.4C1603.23 906.4 1603.23 906.4 1603.24 906.4C1603.24 906.4 1603.25 906.4 1603.25 906.4C1603.26 906.4 1603.26 906.4 1603.27 906.4C1603.27 906.4 1603.28 906.4 1603.28 906.4C1603.29 906.4 1603.29 906.4 1603.3 906.4C1603.3 906.4 1603.31 906.4 1603.31 906.4C1603.32 906.4 1603.32 906.4 1603.33 906.4C1603.33 906.4 1603.34 906.4 1603.34 906.4C1603.35 906.4 1603.35 906.4 1603.36 906.4C1603.36 906.4 1603.37 906.4 1603.37 906.4C1603.38 906.4 1603.38 906.4 1603.39 906.4C1603.39 906.4 1603.4 906.4 1603.4 906.4C1603.41 906.4 1603.41 906.4 1603.42 906.4C1603.42 906.4 1603.43 906.4 1603.43 906.4C1603.44 906.4 1603.44 906.4 1603.45 906.4C1603.45 906.4 1603.46 906.4 1603.46 906.4C1603.47 906.4 1603.47 906.4 1603.48 906.4C1603.48 906.4 1603.49 906.4 1603.49 906.4C1603.5 906.4 1603.5 906.4 1603.51 906.4C1603.51 906.4 1603.52 906.4 1603.52 906.4C1603.53 906.4 1603.53 906.4 1603.54 906.4C1603.54 906.4 1603.55 906.4 1603.55 906.4C1603.56 906.4 1603.56 906.4 1603.57 906.4C1603.57 906.4 1603.58 906.4 1603.58 906.4C1603.59 906.4 1603.59 906.4 1603.6 906.4C1603.6 906.4 1603.61 906.4 1603.62 906.4C1603.62 906.4 1603.63 906.4 1603.63 906.4C1603.64 906.4 1603.64 906.4 1603.65 906.4C1603.65 906.4 1603.66 906.4 1603.66 906.4C1603.67 906.4 1603.67 906.4 1603.68 906.4C1603.68 906.4 1603.69 906.4 1603.69 906.4C1603.7 906.4 1603.7 906.4 1603.71 906.4C1603.71 906.4 1603.72 906.4 1603.72 906.4C1603.73 906.4 1603.73 906.4 1603.74 906.4C1603.74 906.4 1603.75 906.4 1603.75 906.4C1603.76 906.4 1603.76 906.4 1603.77 906.4C1603.77 906.4 1603.78 906.4 1603.78 906.4C1603.79 906.4 1603.79 906.4 1603.8 906.4C1603.8 906.4 1603.81 906.4 1603.81 906.4C1603.82 906.4 1603.82 906.4 1603.83 906.4C1603.83 906.4 1603.84 906.4 1603.84 906.4C1603.85 906.4 1603.85 906.4 1603.86 906.4C1603.86 906.4 1603.87 906.4 1603.87 906.4C1603.88 906.4 1603.88 906.4 1603.89 906.4C1603.89 906.4 1603.9 906.4 1603.91 906.4C1603.91 906.4 1603.92 906.4 1603.92 906.4C1603.93 906.4 1603.93 906.4 1603.94 906.4C1603.94 906.4 1603.95 906.4 1603.95 906.4C1603.96 906.4 1603.96 906.4 1603.97 906.4C1603.97 906.4 1603.98 906.4 1603.98 906.4C1603.99 906.4 1603.99 906.4 1604 906.4C1604 906.4 1604.01 906.4 1604.01 906.4C1604.02 906.4 1604.02 906.4 1604.03 906.4C1604.03 906.4 1604.04 906.4 1604.04 906.4C1604.05 906.4 1604.05 906.4 1604.06 906.4C1604.06 906.4 1604.07 906.4 1604.07 906.4C1604.08 906.4 1604.08 906.4 1604.09 906.4C1604.1 906.4 1604.1 906.4 1604.11 906.4C1604.11 906.4 1604.12 906.4 1604.12 906.4C1604.13 906.4 1604.13 906.4 1604.14 906.4C1604.14 906.4 1604.15 906.4 1604.15 906.4C1604.16 906.4 1604.16 906.4 1604.17 906.4C1604.17 906.4 1604.18 906.4 1604.18 906.4C1604.19 906.4 1604.19 906.4 1604.2 906.4C1604.2 906.4 1604.21 906.4 1604.21 906.4C1604.22 906.4 1604.22 906.4 1604.23 906.4C1604.23 906.4 1604.24 906.4 1604.25 906.4C1604.25 906.4 1604.26 906.4 1604.26 906.4C1604.27 906.4 1604.27 906.4 1604.28 906.4C1604.28 906.4 1604.29 906.4 1604.29 906.4C1604.3 906.4 1604.3 906.4 1604.31 906.4C1604.31 906.4 1604.32 906.4 1604.32 906.4C1604.33 906.4 1604.33 906.4 1604.34 906.4C1604.34 906.4 1604.35 906.4 1604.35 906.4C1604.36 906.4 1604.36 906.4 1604.37 906.4C1604.38 906.4 1604.38 906.4 1604.39 906.4C1604.39 906.4 1604.4 906.4 1604.4 906.4C1604.41 906.4 1604.41 906.4 1604.42 906.4C1604.42 906.4 1604.43 906.4 1604.43 906.4C1604.44 906.4 1604.44 906.4 1604.45 906.4C1604.45 906.4 1604.46 906.4 1604.46 906.4C1604.47 906.4 1604.47 906.4 1604.48 906.4C1604.48 906.4 1604.49 906.4 1604.5 906.4C1604.5 906.4 1604.51 906.4 1604.51 906.4C1604.52 906.4 1604.52 906.4 1604.53 906.4C1604.53 906.4 1604.54 906.4 1604.54 906.4C1604.55 906.4 1604.55 906.4 1604.56 906.4C1604.56 906.4 1604.57 906.4 1604.57 906.4C1604.58 906.4 1604.58 906.4 1604.59 906.4C1604.59 906.4 1604.6 906.4 1604.61 906.4C1604.61 906.4 1604.62 906.4 1604.62 906.4C1604.63 906.4 1604.63 906.4 1604.64 906.4C1604.64 906.4 1604.65 906.4 1604.65 906.4C1604.66 906.4 1604.66 906.4 1604.67 906.4C1604.67 906.4 1604.68 906.4 1604.68 906.4C1604.69 906.4 1604.69 906.4 1604.7 906.4C1604.71 906.4 1604.71 906.4 1604.72 906.4C1604.72 906.4 1604.73 906.4 1604.73 906.4C1604.74 906.4 1604.74 906.4 1604.75 906.4C1604.75 906.4 1604.76 906.4 1604.76 906.4C1604.77 906.4 1604.77 906.4 1604.78 906.4C1604.78 906.4 1604.79 906.4 1604.8 906.4C1604.8 906.4 1604.81 906.4 1604.81 906.4C1604.82 906.4 1604.82 906.4 1604.83 906.4C1604.83 906.4 1604.84 906.4 1604.84 906.4C1604.85 906.4 1604.85 906.4 1604.86 906.4C1604.86 906.4 1604.87 906.4 1604.87 906.4C1604.88 906.4 1604.89 906.4 1604.89 906.4C1604.9 906.4 1604.9 906.4 1604.91 906.4C1604.91 906.4 1604.92 906.4 1604.92 906.4C1604.93 906.4 1604.93 906.4 1604.94 906.4C1604.94 906.4 1604.95 906.4 1604.95 906.4C1604.96 906.4 1604.96 906.4 1604.97 906.4C1604.98 906.4 1604.98 906.4 1604.99 906.4C1604.99 906.4 1605 906.4 1605 906.4C1605.01 906.4 1605.01 906.4 1605.02 906.4C1605.02 906.4 1605.03 906.4 1605.03 906.4C1605.04 906.4 1605.04 906.4 1605.05 906.4C1605.06 906.4 1605.06 906.4 1605.07 906.4C1605.07 906.4 1605.08 906.4 1605.08 906.4C1605.09 906.4 1605.09 906.4 1605.1 906.4C1605.1 906.4 1605.11 906.4 1605.11 906.4C1605.12 906.4 1605.13 906.4 1605.13 906.4C1605.14 906.4 1605.14 906.4 1605.15 906.4C1605.15 906.4 1605.16 906.4 1605.16 906.4C1605.17 906.4 1605.17 906.4 1605.18 906.4C1605.18 906.4 1605.19 906.4 1605.19 906.4C1605.2 906.4 1605.21 906.4 1605.21 906.4C1605.22 906.4 1605.22 906.4 1605.23 906.4C1605.23 906.4 1605.24 906.4 1605.24 906.4C1605.25 906.4 1605.25 906.4 1605.26 906.4C1605.26 906.4 1605.27 906.4 1605.28 906.4C1605.28 906.4 1605.29 906.4 1605.29 906.4C1605.3 906.4 1605.3 906.4 1605.31 906.4C1605.31 906.4 1605.32 906.4 1605.32 906.4C1605.33 906.4 1605.33 906.4 1605.34 906.4C1605.35 906.4 1605.35 906.4 1605.36 906.4C1605.36 906.4 1605.37 906.4 1605.37 906.4C1605.38 906.4 1605.38 906.4 1605.39 906.4C1605.39 906.4 1605.4 906.4 1605.4 906.4C1605.41 906.4 1605.42 906.4 1605.42 906.4C1605.43 906.4 1605.43 906.4 1605.44 906.4C1605.44 906.4 1605.45 906.4 1605.45 906.4C1605.46 906.4 1605.46 906.4 1605.47 906.4C1605.48 906.4 1605.48 906.4 1605.49 906.4C1605.49 906.4 1605.5 906.4 1605.5 906.4C1605.51 906.4 1605.51 906.4 1605.52 906.4C1605.52 906.4 1605.53 906.4 1605.54 906.4C1605.54 906.4 1605.55 906.4 1605.55 906.4C1605.56 906.4 1605.56 906.4 1605.57 906.4C1605.57 906.4 1605.58 906.4 1605.58 906.4C1605.59 906.4 1605.59 906.4 1605.6 906.4C1605.61 906.4 1605.61 906.4 1605.62 906.4C1605.62 906.4 1605.63 906.4 1605.63 906.4C1605.64 906.4 1605.64 906.4 1605.65 906.4C1605.65 906.4 1605.66 906.4 1605.67 906.4C1605.67 906.4 1605.68 906.4 1605.68 906.4C1605.69 906.4 1605.69 906.4 1605.7 906.4C1605.7 906.4 1605.71 906.4 1605.71 906.4C1605.72 906.4 1605.73 906.4 1605.73 906.4V904.4C1605.73 904.4 1605.72 904.4 1605.71 904.4C1605.71 904.4 1605.7 904.4 1605.7 904.4C1605.69 904.4 1605.69 904.4 1605.68 904.4C1605.68 904.4 1605.67 904.4 1605.67 904.4C1605.66 904.4 1605.65 904.4 1605.65 904.4C1605.64 904.4 1605.64 904.4 1605.63 904.4C1605.63 904.4 1605.62 904.4 1605.62 904.4C1605.61 904.4 1605.61 904.4 1605.6 904.4C1605.59 904.4 1605.59 904.4 1605.58 904.4C1605.58 904.4 1605.57 904.4 1605.57 904.4C1605.56 904.4 1605.56 904.4 1605.55 904.4C1605.55 904.4 1605.54 904.4 1605.54 904.4C1605.53 904.4 1605.52 904.4 1605.52 904.4C1605.51 904.4 1605.51 904.4 1605.5 904.4C1605.5 904.4 1605.49 904.4 1605.49 904.4C1605.48 904.4 1605.48 904.4 1605.47 904.4C1605.46 904.4 1605.46 904.4 1605.45 904.4C1605.45 904.4 1605.44 904.4 1605.44 904.4C1605.43 904.4 1605.43 904.4 1605.42 904.4C1605.42 904.4 1605.41 904.4 1605.4 904.4C1605.4 904.4 1605.39 904.4 1605.39 904.4C1605.38 904.4 1605.38 904.4 1605.37 904.4C1605.37 904.4 1605.36 904.4 1605.36 904.4C1605.35 904.4 1605.35 904.4 1605.34 904.4C1605.33 904.4 1605.33 904.4 1605.32 904.4C1605.32 904.4 1605.31 904.4 1605.31 904.4C1605.3 904.4 1605.3 904.4 1605.29 904.4C1605.29 904.4 1605.28 904.4 1605.28 904.4C1605.27 904.4 1605.26 904.4 1605.26 904.4C1605.25 904.4 1605.25 904.4 1605.24 904.4C1605.24 904.4 1605.23 904.4 1605.23 904.4C1605.22 904.4 1605.22 904.4 1605.21 904.4C1605.21 904.4 1605.2 904.4 1605.19 904.4C1605.19 904.4 1605.18 904.4 1605.18 904.4C1605.17 904.4 1605.17 904.4 1605.16 904.4C1605.16 904.4 1605.15 904.4 1605.15 904.4C1605.14 904.4 1605.14 904.4 1605.13 904.4C1605.13 904.4 1605.12 904.4 1605.11 904.4C1605.11 904.4 1605.1 904.4 1605.1 904.4C1605.09 904.4 1605.09 904.4 1605.08 904.4C1605.08 904.4 1605.07 904.4 1605.07 904.4C1605.06 904.4 1605.06 904.4 1605.05 904.4C1605.04 904.4 1605.04 904.4 1605.03 904.4C1605.03 904.4 1605.02 904.4 1605.02 904.4C1605.01 904.4 1605.01 904.4 1605 904.4C1605 904.4 1604.99 904.4 1604.99 904.4C1604.98 904.4 1604.98 904.4 1604.97 904.4C1604.96 904.4 1604.96 904.4 1604.95 904.4C1604.95 904.4 1604.94 904.4 1604.94 904.4C1604.93 904.4 1604.93 904.4 1604.92 904.4C1604.92 904.4 1604.91 904.4 1604.91 904.4C1604.9 904.4 1604.9 904.4 1604.89 904.4C1604.89 904.4 1604.88 904.4 1604.87 904.4C1604.87 904.4 1604.86 904.4 1604.86 904.4C1604.85 904.4 1604.85 904.4 1604.84 904.4C1604.84 904.4 1604.83 904.4 1604.83 904.4C1604.82 904.4 1604.82 904.4 1604.81 904.4C1604.81 904.4 1604.8 904.4 1604.8 904.4C1604.79 904.4 1604.78 904.4 1604.78 904.4C1604.77 904.4 1604.77 904.4 1604.76 904.4C1604.76 904.4 1604.75 904.4 1604.75 904.4C1604.74 904.4 1604.74 904.4 1604.73 904.4C1604.73 904.4 1604.72 904.4 1604.72 904.4C1604.71 904.4 1604.71 904.4 1604.7 904.4C1604.69 904.4 1604.69 904.4 1604.68 904.4C1604.68 904.4 1604.67 904.4 1604.67 904.4C1604.66 904.4 1604.66 904.4 1604.65 904.4C1604.65 904.4 1604.64 904.4 1604.64 904.4C1604.63 904.4 1604.63 904.4 1604.62 904.4C1604.62 904.4 1604.61 904.4 1604.61 904.4C1604.6 904.4 1604.59 904.4 1604.59 904.4C1604.58 904.4 1604.58 904.4 1604.57 904.4C1604.57 904.4 1604.56 904.4 1604.56 904.4C1604.55 904.4 1604.55 904.4 1604.54 904.4C1604.54 904.4 1604.53 904.4 1604.53 904.4C1604.52 904.4 1604.52 904.4 1604.51 904.4C1604.51 904.4 1604.5 904.4 1604.5 904.4C1604.49 904.4 1604.48 904.4 1604.48 904.4C1604.47 904.4 1604.47 904.4 1604.46 904.4C1604.46 904.4 1604.45 904.4 1604.45 904.4C1604.44 904.4 1604.44 904.4 1604.43 904.4C1604.43 904.4 1604.42 904.4 1604.42 904.4C1604.41 904.4 1604.41 904.4 1604.4 904.4C1604.4 904.4 1604.39 904.4 1604.39 904.4C1604.38 904.4 1604.38 904.4 1604.37 904.4C1604.36 904.4 1604.36 904.4 1604.35 904.4C1604.35 904.4 1604.34 904.4 1604.34 904.4C1604.33 904.4 1604.33 904.4 1604.32 904.4C1604.32 904.4 1604.31 904.4 1604.31 904.4C1604.3 904.4 1604.3 904.4 1604.29 904.4C1604.29 904.4 1604.28 904.4 1604.28 904.4C1604.27 904.4 1604.27 904.4 1604.26 904.4C1604.26 904.4 1604.25 904.4 1604.25 904.4C1604.24 904.4 1604.23 904.4 1604.23 904.4C1604.22 904.4 1604.22 904.4 1604.21 904.4C1604.21 904.4 1604.2 904.4 1604.2 904.4C1604.19 904.4 1604.19 904.4 1604.18 904.4C1604.18 904.4 1604.17 904.4 1604.17 904.4C1604.16 904.4 1604.16 904.4 1604.15 904.4C1604.15 904.4 1604.14 904.4 1604.14 904.4C1604.13 904.4 1604.13 904.4 1604.12 904.4C1604.12 904.4 1604.11 904.4 1604.11 904.4C1604.1 904.4 1604.1 904.4 1604.09 904.4C1604.08 904.4 1604.08 904.4 1604.07 904.4C1604.07 904.4 1604.06 904.4 1604.06 904.4C1604.05 904.4 1604.05 904.4 1604.04 904.4C1604.04 904.4 1604.03 904.4 1604.03 904.4C1604.02 904.4 1604.02 904.4 1604.01 904.4C1604.01 904.4 1604 904.4 1604 904.4C1603.99 904.4 1603.99 904.4 1603.98 904.4C1603.98 904.4 1603.97 904.4 1603.97 904.4C1603.96 904.4 1603.96 904.4 1603.95 904.4C1603.95 904.4 1603.94 904.4 1603.94 904.4C1603.93 904.4 1603.93 904.4 1603.92 904.4C1603.92 904.4 1603.91 904.4 1603.91 904.4C1603.9 904.4 1603.89 904.4 1603.89 904.4C1603.88 904.4 1603.88 904.4 1603.87 904.4C1603.87 904.4 1603.86 904.4 1603.86 904.4C1603.85 904.4 1603.85 904.4 1603.84 904.4C1603.84 904.4 1603.83 904.4 1603.83 904.4C1603.82 904.4 1603.82 904.4 1603.81 904.4C1603.81 904.4 1603.8 904.4 1603.8 904.4C1603.79 904.4 1603.79 904.4 1603.78 904.4C1603.78 904.4 1603.77 904.4 1603.77 904.4C1603.76 904.4 1603.76 904.4 1603.75 904.4C1603.75 904.4 1603.74 904.4 1603.74 904.4C1603.73 904.4 1603.73 904.4 1603.72 904.4C1603.72 904.4 1603.71 904.4 1603.71 904.4C1603.7 904.4 1603.7 904.4 1603.69 904.4C1603.69 904.4 1603.68 904.4 1603.68 904.4C1603.67 904.4 1603.67 904.4 1603.66 904.4C1603.66 904.4 1603.65 904.4 1603.65 904.4C1603.64 904.4 1603.64 904.4 1603.63 904.4C1603.63 904.4 1603.62 904.4 1603.62 904.4C1603.61 904.4 1603.6 904.4 1603.6 904.4C1603.59 904.4 1603.59 904.4 1603.58 904.4C1603.58 904.4 1603.57 904.4 1603.57 904.4C1603.56 904.4 1603.56 904.4 1603.55 904.4C1603.55 904.4 1603.54 904.4 1603.54 904.4C1603.53 904.4 1603.53 904.4 1603.52 904.4C1603.52 904.4 1603.51 904.4 1603.51 904.4C1603.5 904.4 1603.5 904.4 1603.49 904.4C1603.49 904.4 1603.48 904.4 1603.48 904.4C1603.47 904.4 1603.47 904.4 1603.46 904.4C1603.46 904.4 1603.45 904.4 1603.45 904.4C1603.44 904.4 1603.44 904.4 1603.43 904.4C1603.43 904.4 1603.42 904.4 1603.42 904.4C1603.41 904.4 1603.41 904.4 1603.4 904.4C1603.4 904.4 1603.39 904.4 1603.39 904.4C1603.38 904.4 1603.38 904.4 1603.37 904.4C1603.37 904.4 1603.36 904.4 1603.36 904.4C1603.35 904.4 1603.35 904.4 1603.34 904.4C1603.34 904.4 1603.33 904.4 1603.33 904.4C1603.32 904.4 1603.32 904.4 1603.31 904.4C1603.31 904.4 1603.3 904.4 1603.3 904.4C1603.29 904.4 1603.29 904.4 1603.28 904.4C1603.28 904.4 1603.27 904.4 1603.27 904.4C1603.26 904.4 1603.26 904.4 1603.25 904.4C1603.25 904.4 1603.24 904.4 1603.24 904.4C1603.23 904.4 1603.23 904.4 1603.22 904.4C1603.22 904.4 1603.21 904.4 1603.21 904.4C1603.2 904.4 1603.2 904.4 1603.19 904.4C1603.19 904.4 1603.18 904.4 1603.18 904.4C1603.17 904.4 1603.17 904.4 1603.16 904.4C1603.16 904.4 1603.15 904.4 1603.15 904.4C1603.14 904.4 1603.14 904.4 1603.13 904.4C1603.13 904.4 1603.12 904.4 1603.12 904.4C1603.11 904.4 1603.11 904.4 1603.1 904.4C1603.1 904.4 1603.09 904.4 1603.09 904.4C1603.08 904.4 1603.08 904.4 1603.07 904.4C1603.07 904.4 1603.06 904.4 1603.06 904.4C1603.05 904.4 1603.05 904.4 1603.04 904.4C1603.04 904.4 1603.03 904.4 1603.03 904.4C1603.03 904.4 1603.02 904.4 1603.02 904.4C1603.01 904.4 1603.01 904.4 1603 904.4C1603 904.4 1602.99 904.4 1602.99 904.4C1602.98 904.4 1602.98 904.4 1602.97 904.4C1602.97 904.4 1602.96 904.4 1602.96 904.4C1602.95 904.4 1602.95 904.4 1602.94 904.4C1602.94 904.4 1602.93 904.4 1602.93 904.4C1602.92 904.4 1602.92 904.4 1602.91 904.4C1602.91 904.4 1602.9 904.4 1602.9 904.4C1602.89 904.4 1602.89 904.4 1602.88 904.4C1602.88 904.4 1602.87 904.4 1602.87 904.4C1602.86 904.4 1602.86 904.4 1602.85 904.4C1602.85 904.4 1602.84 904.4 1602.84 904.4C1602.83 904.4 1602.83 904.4 1602.82 904.4C1602.82 904.4 1602.81 904.4 1602.81 904.4C1602.8 904.4 1602.8 904.4 1602.79 904.4C1602.79 904.4 1602.78 904.4 1602.78 904.4C1602.77 904.4 1602.77 904.4 1602.76 904.4C1602.76 904.4 1602.75 904.4 1602.75 904.4C1602.75 904.4 1602.74 904.4 1602.74 904.4C1602.73 904.4 1602.73 904.4 1602.72 904.4C1602.72 904.4 1602.71 904.4 1602.71 904.4C1602.7 904.4 1602.7 904.4 1602.69 904.4C1602.69 904.4 1602.68 904.4 1602.68 904.4C1602.67 904.4 1602.67 904.4 1602.66 904.4C1602.66 904.4 1602.65 904.4 1602.65 904.4C1602.64 904.4 1602.64 904.4 1602.63 904.4C1602.63 904.4 1602.62 904.4 1602.62 904.4C1602.61 904.4 1602.61 904.4 1602.6 904.4C1602.6 904.4 1602.59 904.4 1602.59 904.4C1602.58 904.4 1602.58 904.4 1602.57 904.4C1602.57 904.4 1602.57 904.4 1602.56 904.4C1602.56 904.4 1602.55 904.4 1602.55 904.4C1602.54 904.4 1602.54 904.4 1602.53 904.4C1602.53 904.4 1602.52 904.4 1602.52 904.4C1602.51 904.4 1602.51 904.4 1602.5 904.4C1602.5 904.4 1602.49 904.4 1602.49 904.4C1602.48 904.4 1602.48 904.4 1602.47 904.4C1602.47 904.4 1602.46 904.4 1602.46 904.4C1602.45 904.4 1602.45 904.4 1602.44 904.4C1602.44 904.4 1602.43 904.4 1602.43 904.4C1602.43 904.4 1602.42 904.4 1602.42 904.4C1602.41 904.4 1602.41 904.4 1602.4 904.4C1602.4 904.4 1602.39 904.4 1602.39 904.4C1602.38 904.4 1602.38 904.4 1602.37 904.4C1602.37 904.4 1602.36 904.4 1602.36 904.4C1602.35 904.4 1602.35 904.4 1602.34 904.4C1602.34 904.4 1602.33 904.4 1602.33 904.4C1602.32 904.4 1602.32 904.4 1602.31 904.4C1602.31 904.4 1602.31 904.4 1602.3 904.4C1602.3 904.4 1602.29 904.4 1602.29 904.4C1602.28 904.4 1602.28 904.4 1602.27 904.4C1602.27 904.4 1602.26 904.4 1602.26 904.4C1602.25 904.4 1602.25 904.4 1602.24 904.4C1602.24 904.4 1602.23 904.4 1602.23 904.4C1602.22 904.4 1602.22 904.4 1602.21 904.4C1602.21 904.4 1602.2 904.4 1602.2 904.4C1602.2 904.4 1602.19 904.4 1602.19 904.4C1602.18 904.4 1602.18 904.4 1602.17 904.4C1602.17 904.4 1602.16 904.4 1602.16 904.4C1602.15 904.4 1602.15 904.4 1602.14 904.4C1602.14 904.4 1602.13 904.4 1602.13 904.4C1602.12 904.4 1602.12 904.4 1602.11 904.4C1602.11 904.4 1602.1 904.4 1602.1 904.4C1602.1 904.4 1602.09 904.4 1602.09 904.4C1602.08 904.4 1602.08 904.4 1602.07 904.4C1602.07 904.4 1602.06 904.4 1602.06 904.4C1602.05 904.4 1602.05 904.4 1602.04 904.4C1602.04 904.4 1602.03 904.4 1602.03 904.4C1602.02 904.4 1602.02 904.4 1602.01 904.4C1602.01 904.4 1602.01 904.4 1602 904.4C1602 904.4 1601.99 904.4 1601.99 904.4C1601.98 904.4 1601.98 904.4 1601.97 904.4C1601.97 904.4 1601.96 904.4 1601.96 904.4C1601.95 904.4 1601.95 904.4 1601.94 904.4C1601.94 904.4 1601.93 904.4 1601.93 904.4C1601.93 904.4 1601.92 904.4 1601.92 904.4C1601.91 904.4 1601.91 904.4 1601.9 904.4C1601.9 904.4 1601.89 904.4 1601.89 904.4C1601.88 904.4 1601.88 904.4 1601.87 904.4C1601.87 904.4 1601.86 904.4 1601.86 904.4C1601.85 904.4 1601.85 904.4 1601.85 904.4C1601.84 904.4 1601.84 904.4 1601.83 904.4C1601.83 904.4 1601.82 904.4 1601.82 904.4C1601.81 904.4 1601.81 904.4 1601.8 904.4C1601.8 904.4 1601.79 904.4 1601.79 904.4C1601.78 904.4 1601.78 904.4 1601.78 904.4C1601.77 904.4 1601.77 904.4 1601.76 904.4C1601.76 904.4 1601.75 904.4 1601.75 904.4C1601.74 904.4 1601.74 904.4 1601.73 904.4C1601.73 904.4 1601.72 904.4 1601.72 904.4C1601.71 904.4 1601.71 904.4 1601.71 904.4C1601.7 904.4 1601.7 904.4 1601.69 904.4C1601.69 904.4 1601.68 904.4 1601.68 904.4C1601.67 904.4 1601.67 904.4 1601.66 904.4C1601.66 904.4 1601.65 904.4 1601.65 904.4C1601.64 904.4 1601.64 904.4 1601.64 904.4C1601.63 904.4 1601.63 904.4 1601.62 904.4C1601.62 904.4 1601.61 904.4 1601.61 904.4C1601.6 904.4 1601.6 904.4 1601.59 904.4C1601.59 904.4 1601.58 904.4 1601.58 904.4C1601.57 904.4 1601.57 904.4 1601.57 904.4C1601.56 904.4 1601.56 904.4 1601.55 904.4C1601.55 904.4 1601.54 904.4 1601.54 904.4C1601.53 904.4 1601.53 904.4 1601.52 904.4C1601.52 904.4 1601.51 904.4 1601.51 904.4C1601.51 904.4 1601.5 904.4 1601.5 904.4C1601.49 904.4 1601.49 904.4 1601.48 904.4C1601.48 904.4 1601.47 904.4 1601.47 904.4C1601.46 904.4 1601.46 904.4 1601.45 904.4C1601.45 904.4 1601.45 904.4 1601.44 904.4C1601.44 904.4 1601.43 904.4 1601.43 904.4C1601.42 904.4 1601.42 904.4 1601.41 904.4C1601.41 904.4 1601.4 904.4 1601.4 904.4C1601.4 904.4 1601.39 904.4 1601.39 904.4C1601.38 904.4 1601.38 904.4 1601.37 904.4C1601.37 904.4 1601.36 904.4 1601.36 904.4C1601.35 904.4 1601.35 904.4 1601.34 904.4C1601.34 904.4 1601.34 904.4 1601.33 904.4C1601.33 904.4 1601.32 904.4 1601.32 904.4C1601.31 904.4 1601.31 904.4 1601.3 904.4C1601.3 904.4 1601.29 904.4 1601.29 904.4C1601.29 904.4 1601.28 904.4 1601.28 904.4C1601.27 904.4 1601.27 904.4 1601.26 904.4C1601.26 904.4 1601.25 904.4 1601.25 904.4C1601.24 904.4 1601.24 904.4 1601.24 904.4C1601.23 904.4 1601.23 904.4 1601.22 904.4C1601.22 904.4 1601.21 904.4 1601.21 904.4C1601.2 904.4 1601.2 904.4 1601.19 904.4C1601.19 904.4 1601.18 904.4 1601.18 904.4C1601.18 904.4 1601.17 904.4 1601.17 904.4C1601.16 904.4 1601.16 904.4 1601.15 904.4C1601.15 904.4 1601.14 904.4 1601.14 904.4C1601.14 904.4 1601.13 904.4 1601.13 904.4C1601.12 904.4 1601.12 904.4 1601.11 904.4C1601.11 904.4 1601.1 904.4 1601.1 904.4C1601.09 904.4 1601.09 904.4 1601.09 904.4C1601.08 904.4 1601.08 904.4 1601.07 904.4C1601.07 904.4 1601.06 904.4 1601.06 904.4C1601.05 904.4 1601.05 904.4 1601.04 904.4C1601.04 904.4 1601.04 904.4 1601.03 904.4C1601.03 904.4 1601.02 904.4 1601.02 904.4C1601.01 904.4 1601.01 904.4 1601 904.4C1601 904.4 1600.99 904.4 1600.99 904.4C1600.99 904.4 1600.98 904.4 1600.98 904.4C1600.97 904.4 1600.97 904.4 1600.96 904.4C1600.96 904.4 1600.95 904.4 1600.95 904.4C1600.95 904.4 1600.94 904.4 1600.94 904.4C1600.93 904.4 1600.93 904.4 1600.92 904.4C1600.92 904.4 1600.91 904.4 1600.91 904.4C1600.91 904.4 1600.9 904.4 1600.9 904.4C1600.89 904.4 1600.89 904.4 1600.88 904.4C1600.88 904.4 1600.87 904.4 1600.87 904.4C1600.86 904.4 1600.86 904.4 1600.86 904.4C1600.85 904.4 1600.85 904.4 1600.84 904.4C1600.84 904.4 1600.83 904.4 1600.83 904.4C1600.82 904.4 1600.82 904.4 1600.82 904.4C1600.81 904.4 1600.81 904.4 1600.8 904.4C1600.8 904.4 1600.79 904.4 1600.79 904.4C1600.78 904.4 1600.78 904.4 1600.78 904.4C1600.77 904.4 1600.77 904.4 1600.76 904.4C1600.76 904.4 1600.75 904.4 1600.75 904.4C1600.74 904.4 1600.74 904.4 1600.74 904.4C1600.73 904.4 1600.73 904.4 1600.72 904.4C1600.72 904.4 1600.71 904.4 1600.71 904.4C1600.7 904.4 1600.7 904.4 1600.7 904.4C1600.69 904.4 1600.69 904.4 1600.68 904.4C1600.68 904.4 1600.67 904.4 1600.67 904.4C1600.66 904.4 1600.66 904.4 1600.66 904.4C1600.65 904.4 1600.65 904.4 1600.64 904.4C1600.64 904.4 1600.63 904.4 1600.63 904.4C1600.62 904.4 1600.62 904.4 1600.62 904.4C1600.61 904.4 1600.61 904.4 1600.6 904.4C1600.6 904.4 1600.59 904.4 1600.59 904.4C1600.59 904.4 1600.58 904.4 1600.58 904.4C1600.57 904.4 1600.57 904.4 1600.56 904.4C1600.56 904.4 1600.55 904.4 1600.55 904.4C1600.55 904.4 1600.54 904.4 1600.54 904.4C1600.53 904.4 1600.53 904.4 1600.52 904.4C1600.52 904.4 1600.51 904.4 1600.51 904.4C1600.51 904.4 1600.5 904.4 1600.5 904.4C1600.49 904.4 1600.49 904.4 1600.48 904.4C1600.48 904.4 1600.48 904.4 1600.47 904.4C1600.47 904.4 1600.46 904.4 1600.46 904.4C1600.45 904.4 1600.45 904.4 1600.44 904.4C1600.44 904.4 1600.44 904.4 1600.43 904.4C1600.43 904.4 1600.42 904.4 1600.42 904.4C1600.41 904.4 1600.41 904.4 1600.41 904.4C1600.4 904.4 1600.4 904.4 1600.39 904.4C1600.39 904.4 1600.38 904.4 1600.38 904.4C1600.37 904.4 1600.37 904.4 1600.37 904.4C1600.36 904.4 1600.36 904.4 1600.35 904.4C1600.35 904.4 1600.34 904.4 1600.34 904.4C1600.34 904.4 1600.33 904.4 1600.33 904.4C1600.32 904.4 1600.32 904.4 1600.31 904.4C1600.31 904.4 1600.31 904.4 1600.3 904.4C1600.3 904.4 1600.29 904.4 1600.29 904.4C1600.28 904.4 1600.28 904.4 1600.27 904.4C1600.27 904.4 1600.27 904.4 1600.26 904.4C1600.26 904.4 1600.25 904.4 1600.25 904.4C1600.24 904.4 1600.24 904.4 1600.24 904.4C1600.23 904.4 1600.23 904.4 1600.22 904.4C1600.22 904.4 1600.21 904.4 1600.21 904.4C1600.21 904.4 1600.2 904.4 1600.2 904.4C1600.19 904.4 1600.19 904.4 1600.18 904.4C1600.18 904.4 1600.18 904.4 1600.17 904.4C1600.17 904.4 1600.16 904.4 1600.16 904.4C1600.15 904.4 1600.15 904.4 1600.14 904.4C1600.14 904.4 1600.14 904.4 1600.13 904.4C1600.13 904.4 1600.12 904.4 1600.12 904.4C1600.11 904.4 1600.11 904.4 1600.11 904.4C1600.1 904.4 1600.1 904.4 1600.09 904.4C1600.09 904.4 1600.08 904.4 1600.08 904.4C1600.08 904.4 1600.07 904.4 1600.07 904.4C1600.06 904.4 1600.06 904.4 1600.05 904.4C1600.05 904.4 1600.05 904.4 1600.04 904.4C1600.04 904.4 1600.03 904.4 1600.03 904.4C1600.02 904.4 1600.02 904.4 1600.02 904.4C1600.01 904.4 1600.01 904.4 1600 904.4C1600 904.4 1599.99 904.4 1599.99 904.4C1599.99 904.4 1599.98 904.4 1599.98 904.4C1599.97 904.4 1599.97 904.4 1599.97 904.4C1599.96 904.4 1599.96 904.4 1599.95 904.4C1599.95 904.4 1599.94 904.4 1599.94 904.4C1599.94 904.4 1599.93 904.4 1599.93 904.4C1599.92 904.4 1599.92 904.4 1599.91 904.4C1599.91 904.4 1599.91 904.4 1599.9 904.4C1599.9 904.4 1599.89 904.4 1599.89 904.4C1599.88 904.4 1599.88 904.4 1599.88 904.4C1599.87 904.4 1599.87 904.4 1599.86 904.4C1599.86 904.4 1599.85 904.4 1599.85 904.4C1599.85 904.4 1599.84 904.4 1599.84 904.4C1599.83 904.4 1599.83 904.4 1599.82 904.4C1599.82 904.4 1599.82 904.4 1599.81 904.4C1599.81 904.4 1599.8 904.4 1599.8 904.4C1599.8 904.4 1599.79 904.4 1599.79 904.4C1599.78 904.4 1599.78 904.4 1599.77 904.4C1599.77 904.4 1599.77 904.4 1599.76 904.4C1599.76 904.4 1599.75 904.4 1599.75 904.4C1599.74 904.4 1599.74 904.4 1599.74 904.4C1599.73 904.4 1599.73 904.4 1599.72 904.4C1599.72 904.4 1599.72 904.4 1599.71 904.4C1599.71 904.4 1599.7 904.4 1599.7 904.4C1599.69 904.4 1599.69 904.4 1599.69 904.4C1599.68 904.4 1599.68 904.4 1599.67 904.4C1599.67 904.4 1599.66 904.4 1599.66 904.4C1599.66 904.4 1599.65 904.4 1599.65 904.4C1599.64 904.4 1599.64 904.4 1599.64 904.4C1599.63 904.4 1599.63 904.4 1599.62 904.4C1599.62 904.4 1599.61 904.4 1599.61 904.4C1599.61 904.4 1599.6 904.4 1599.6 904.4C1599.59 904.4 1599.59 904.4 1599.59 904.4C1599.58 904.4 1599.58 904.4 1599.57 904.4C1599.57 904.4 1599.56 904.4 1599.56 904.4C1599.56 904.4 1599.55 904.4 1599.55 904.4C1599.54 904.4 1599.54 904.4 1599.54 904.4C1599.53 904.4 1599.53 904.4 1599.52 904.4C1599.52 904.4 1599.51 904.4 1599.51 904.4C1599.51 904.4 1599.5 904.4 1599.5 904.4C1599.49 904.4 1599.49 904.4 1599.49 904.4C1599.48 904.4 1599.48 904.4 1599.47 904.4C1599.47 904.4 1599.46 904.4 1599.46 904.4C1599.46 904.4 1599.45 904.4 1599.45 904.4C1599.44 904.4 1599.44 904.4 1599.44 904.4C1599.43 904.4 1599.43 904.4 1599.42 904.4C1599.42 904.4 1599.42 904.4 1599.41 904.4C1599.41 904.4 1599.4 904.4 1599.4 904.4C1599.39 904.4 1599.39 904.4 1599.39 904.4C1599.38 904.4 1599.38 904.4 1599.37 904.4C1599.37 904.4 1599.37 904.4 1599.36 904.4C1599.36 904.4 1599.35 904.4 1599.35 904.4C1599.35 904.4 1599.34 904.4 1599.34 904.4C1599.33 904.4 1599.33 904.4 1599.32 904.4C1599.32 904.4 1599.32 904.4 1599.31 904.4C1599.31 904.4 1599.3 904.4 1599.3 904.4C1599.3 904.4 1599.29 904.4 1599.29 904.4C1599.28 904.4 1599.28 904.4 1599.28 904.4C1599.27 904.4 1599.27 904.4 1599.26 904.4C1599.26 904.4 1599.25 904.4 1599.25 904.4C1599.25 904.4 1599.24 904.4 1599.24 904.4C1599.23 904.4 1599.23 904.4 1599.23 904.4C1599.22 904.4 1599.22 904.4 1599.21 904.4C1599.21 904.4 1599.21 904.4 1599.2 904.4C1599.2 904.4 1599.19 904.4 1599.19 904.4C1599.19 904.4 1599.18 904.4 1599.18 904.4C1599.17 904.4 1599.17 904.4 1599.17 904.4C1599.16 904.4 1599.16 904.4 1599.15 904.4C1599.15 904.4 1599.14 904.4 1599.14 904.4C1599.14 904.4 1599.13 904.4 1599.13 904.4C1599.12 904.4 1599.12 904.4 1599.12 904.4C1599.11 904.4 1599.11 904.4 1599.1 904.4C1599.1 904.4 1599.1 904.4 1599.09 904.4C1599.09 904.4 1599.08 904.4 1599.08 904.4C1599.08 904.4 1599.07 904.4 1599.07 904.4C1599.06 904.4 1599.06 904.4 1599.06 904.4C1599.05 904.4 1599.05 904.4 1599.04 904.4C1599.04 904.4 1599.04 904.4 1599.03 904.4C1599.03 904.4 1599.02 904.4 1599.02 904.4C1599.02 904.4 1599.01 904.4 1599.01 904.4C1599 904.4 1599 904.4 1599 904.4C1598.99 904.4 1598.99 904.4 1598.98 904.4C1598.98 904.4 1598.98 904.4 1598.97 904.4C1598.97 904.4 1598.96 904.4 1598.96 904.4C1598.96 904.4 1598.95 904.4 1598.95 904.4C1598.94 904.4 1598.94 904.4 1598.94 904.4C1598.93 904.4 1598.93 904.4 1598.92 904.4C1598.92 904.4 1598.91 904.4 1598.91 904.4C1598.91 904.4 1598.9 904.4 1598.9 904.4C1598.89 904.4 1598.89 904.4 1598.89 904.4C1598.88 904.4 1598.88 904.4 1598.87 904.4C1598.87 904.4 1598.87 904.4 1598.86 904.4C1598.86 904.4 1598.86 904.4 1598.85 904.4C1598.85 904.4 1598.84 904.4 1598.84 904.4C1598.84 904.4 1598.83 904.4 1598.83 904.4C1598.82 904.4 1598.82 904.4 1598.82 904.4C1598.81 904.4 1598.81 904.4 1598.8 904.4C1598.8 904.4 1598.8 904.4 1598.79 904.4C1598.79 904.4 1598.78 904.4 1598.78 904.4C1598.78 904.4 1598.77 904.4 1598.77 904.4C1598.76 904.4 1598.76 904.4 1598.76 904.4C1598.75 904.4 1598.75 904.4 1598.74 904.4C1598.74 904.4 1598.74 904.4 1598.73 904.4C1598.73 904.4 1598.72 904.4 1598.72 904.4C1598.72 904.4 1598.71 904.4 1598.71 904.4C1598.7 904.4 1598.7 904.4 1598.7 904.4C1598.69 904.4 1598.69 904.4 1598.68 904.4C1598.68 904.4 1598.68 904.4 1598.67 904.4C1598.67 904.4 1598.66 904.4 1598.66 904.4C1598.66 904.4 1598.65 904.4 1598.65 904.4C1598.64 904.4 1598.64 904.4 1598.64 904.4C1598.63 904.4 1598.63 904.4 1598.63 904.4C1598.62 904.4 1598.62 904.4 1598.61 904.4C1598.61 904.4 1598.61 904.4 1598.6 904.4C1598.6 904.4 1598.59 904.4 1598.59 904.4C1598.59 904.4 1598.58 904.4 1598.58 904.4C1598.57 904.4 1598.57 904.4 1598.57 904.4C1598.56 904.4 1598.56 904.4 1598.55 904.4C1598.55 904.4 1598.55 904.4 1598.54 904.4C1598.54 904.4 1598.54 904.4 1598.53 904.4V906.4ZM1605.73 906.4C1608.62 906.4 1611.9 905.987 1615.55 905.176L1615.11 903.224C1611.56 904.013 1608.44 904.4 1605.73 904.4V906.4ZM1614.33 904.2V951.6H1616.33V904.2H1614.33ZM1615.02 950.651C1612.67 951.433 1609.52 952.223 1605.54 953.019L1605.93 954.981C1609.95 954.177 1613.19 953.367 1615.65 952.549L1615.02 950.651ZM1605.42 953.051C1601.86 954.237 1598.1 955.227 1594.14 956.019L1594.53 957.981C1598.57 957.173 1602.41 956.163 1606.05 954.949L1605.42 953.051ZM1594.14 956.019C1590.17 956.813 1586.2 957.408 1582.23 957.805L1582.43 959.795C1586.46 959.392 1590.5 958.787 1594.53 957.981L1594.14 956.019ZM1582.23 957.805C1578.25 958.203 1574.89 958.4 1572.13 958.4V960.4C1574.98 960.4 1578.41 960.197 1582.43 959.795L1582.23 957.805ZM1572.13 958.4C1558.26 958.4 1546.85 955.626 1537.85 950.146L1536.81 951.854C1546.21 957.574 1558 960.4 1572.13 960.4V958.4ZM1537.85 950.146C1528.96 944.734 1523.08 935.223 1520.31 921.404L1518.35 921.796C1521.19 935.977 1527.3 946.066 1536.81 951.854L1537.85 950.146ZM1518.63 920.882C1505.16 933.96 1488.51 943.484 1468.64 949.442L1469.22 951.358C1489.36 945.316 1506.3 935.64 1520.03 922.318L1518.63 920.882ZM1468.64 949.444C1449.12 955.418 1430.22 958.4 1411.93 958.4V960.4C1430.44 960.4 1449.54 957.382 1469.22 951.356L1468.64 949.444ZM1411.93 958.4C1398.03 958.4 1384.73 956.414 1372.03 952.446L1371.43 954.354C1384.33 958.386 1397.83 960.4 1411.93 960.4V958.4ZM1372 952.437C1359.31 948.866 1348.01 943.515 1338.12 936.388L1336.95 938.012C1347.05 945.285 1358.56 950.734 1371.46 954.363L1372 952.437ZM1338.15 936.416C1328.66 928.904 1320.95 919.612 1315.01 908.528L1313.25 909.472C1319.31 920.788 1327.2 930.296 1336.91 937.984L1338.15 936.416ZM1315.03 908.565C1309.51 897.123 1306.73 883.876 1306.73 868.8H1304.73C1304.73 884.124 1307.55 897.677 1313.23 909.435L1315.03 908.565ZM1306.73 868.8C1306.73 849.708 1310.11 834.295 1316.8 822.493L1315.06 821.507C1308.15 833.705 1304.73 849.492 1304.73 868.8H1306.73ZM1316.79 822.514C1323.91 810.644 1333 801.365 1344.05 794.655L1343.01 792.945C1331.66 799.835 1322.35 809.356 1315.07 821.486L1316.79 822.514ZM1344.04 794.663C1355.54 787.922 1368.23 783.16 1382.13 780.381L1381.74 778.419C1367.63 781.24 1354.73 786.078 1343.03 792.937L1344.04 794.663ZM1382.15 780.376C1396.51 777.184 1410.88 774.79 1425.24 773.194L1425.02 771.206C1410.58 772.81 1396.15 775.216 1381.71 778.424L1382.15 780.376ZM1425.32 773.182C1437.69 770.788 1449.45 769.194 1460.6 768.397L1460.46 766.403C1449.22 767.206 1437.38 768.812 1424.94 771.218L1425.32 773.182ZM1460.64 768.394C1471.88 767.19 1481.74 765.381 1490.21 762.962L1489.66 761.038C1481.32 763.419 1471.58 765.21 1460.42 766.406L1460.64 768.394ZM1490.19 762.965C1499.11 760.534 1506.08 756.865 1511.04 751.907L1509.62 750.493C1504.98 755.135 1498.36 758.666 1489.67 761.035L1490.19 762.965ZM1511.04 751.907C1516.49 746.46 1519.13 738.567 1519.13 728.4H1517.13C1517.13 738.233 1514.58 745.54 1509.62 750.493L1511.04 751.907ZM1519.13 728.4C1519.13 719.43 1516.89 711.997 1512.32 706.182L1510.74 707.418C1514.98 712.803 1517.13 719.77 1517.13 728.4H1519.13ZM1512.35 706.219C1508.24 700.47 1502.89 696.155 1496.33 693.284L1495.53 695.116C1501.77 697.845 1506.82 701.93 1510.72 707.381L1512.35 706.219ZM1496.4 693.318C1490.28 690.05 1483.35 688.017 1475.64 687.205L1475.43 689.194C1482.91 689.983 1489.59 691.95 1495.46 695.082L1496.4 693.318ZM1475.69 687.212C1468.04 686.005 1460.79 685.4 1453.93 685.4V687.4C1460.67 687.4 1467.82 687.995 1475.38 689.188L1475.69 687.212ZM1453.93 685.4C1434.6 685.4 1418.59 689.428 1405.99 697.56L1407.07 699.24C1419.27 691.372 1434.87 687.4 1453.93 687.4V685.4ZM1405.99 697.56C1393.29 705.751 1386.16 718.45 1384.54 735.505L1386.53 735.695C1388.1 719.15 1394.97 707.049 1407.07 699.24L1405.99 697.56ZM1385.53 734.6H1317.13V736.6H1385.53V734.6ZM1318.13 735.66C1319.32 715.783 1324.09 699.359 1332.37 686.337L1330.69 685.263C1322.17 698.641 1317.34 715.417 1316.13 735.54L1318.13 735.66ZM1332.37 686.337C1340.7 673.258 1351.19 662.766 1363.86 654.848L1362.8 653.152C1349.87 661.234 1339.16 671.942 1330.69 685.263L1332.37 686.337ZM1363.85 654.855C1376.94 646.921 1391.63 641.361 1407.92 638.181L1407.54 636.219C1391.03 639.439 1376.12 645.079 1362.81 653.145L1363.85 654.855ZM1407.92 638.181C1424.26 634.994 1440.99 633.4 1458.13 633.4V631.4C1440.87 631.4 1424 633.006 1407.54 636.219L1407.92 638.181ZM1458.13 633.4C1473.26 633.4 1488.19 634.992 1502.92 638.177L1503.34 636.223C1488.47 633.008 1473.4 631.4 1458.13 631.4V633.4ZM1502.92 638.177C1517.62 641.356 1530.71 646.516 1542.2 653.65L1543.26 651.95C1531.55 644.684 1518.24 639.444 1503.34 636.223L1502.92 638.177ZM1542.22 653.657C1554.08 660.778 1563.57 670.066 1570.68 681.527L1572.38 680.473C1565.09 668.734 1555.38 659.222 1543.25 651.943L1542.22 653.657ZM1570.69 681.541C1577.76 692.546 1581.33 706.147 1581.33 722.4H1583.33C1583.33 705.853 1579.7 691.854 1572.37 680.459L1570.69 681.541ZM1581.33 722.4V882H1583.33V722.4H1581.33ZM1513.38 794.763C1503.14 801.458 1490.5 805.618 1475.43 807.205L1475.64 809.195C1490.96 807.582 1503.92 803.342 1514.48 796.437L1513.38 794.763ZM1475.45 807.203C1460.22 808.406 1444.98 810.41 1429.75 813.217L1430.11 815.183C1445.28 812.39 1460.44 810.394 1475.61 809.197L1475.45 807.203ZM1429.77 813.214C1422.51 814.423 1415.45 816.237 1408.6 818.657L1409.26 820.543C1416.01 818.163 1422.95 816.377 1430.1 815.186L1429.77 813.214ZM1408.65 818.641C1401.74 820.673 1395.63 823.726 1390.32 827.807L1391.54 829.393C1396.64 825.474 1402.52 822.527 1409.21 820.559L1408.65 818.641ZM1390.36 827.778C1385.01 831.485 1380.7 836.622 1377.44 843.153L1379.23 844.047C1382.36 837.778 1386.46 832.915 1391.5 829.422L1390.36 827.778ZM1377.43 843.177C1374.55 849.346 1373.13 856.9 1373.13 865.8H1375.13C1375.13 857.1 1376.52 849.854 1379.24 844.023L1377.43 843.177ZM1373.13 865.8C1373.13 873.607 1375.4 880.244 1379.97 885.646L1381.49 884.354C1377.27 879.356 1375.13 873.193 1375.13 865.8H1373.13ZM1379.97 885.646C1384.45 890.942 1389.75 895.223 1395.86 898.482L1396.8 896.718C1390.91 893.577 1385.81 889.458 1381.49 884.354L1379.97 885.646ZM1395.93 898.516C1402.41 901.351 1409.29 903.373 1416.57 904.586L1416.9 902.614C1409.77 901.427 1403.05 899.449 1396.73 896.684L1395.93 898.516ZM1416.58 904.588C1424.21 905.794 1431.07 906.4 1437.13 906.4V904.4C1431.2 904.4 1424.45 903.806 1416.89 902.612L1416.58 904.588ZM1437.13 906.4C1444.82 906.4 1453.09 905.389 1461.95 903.375L1461.51 901.425C1452.77 903.411 1444.64 904.4 1437.13 904.4V906.4ZM1461.95 903.375C1470.86 901.35 1479.17 897.906 1486.87 893.045L1485.8 891.355C1478.29 896.094 1470.2 899.45 1461.51 901.425L1461.95 903.375ZM1486.85 893.057C1494.96 888.191 1501.66 882.101 1506.94 874.785L1505.32 873.615C1500.2 880.699 1493.71 886.609 1485.82 891.343L1486.85 893.057ZM1506.96 874.765C1512.29 866.971 1514.93 857.566 1514.93 846.6H1512.93C1512.93 857.234 1510.37 866.229 1505.31 873.635L1506.96 874.765ZM1514.93 846.6V795.6H1512.93V846.6H1514.93ZM1637.93 640.8V639.8H1636.93V640.8H1637.93ZM1702.73 640.8H1703.73V639.8H1702.73V640.8ZM1702.73 684H1701.73V685H1702.73V684ZM1704.53 684V685H1705.06L1705.35 684.565L1704.53 684ZM1741.13 646.8L1740.63 645.935L1740.62 645.941L1740.61 645.947L1741.13 646.8ZM1766.93 636.6L1767.17 637.57L1767.19 637.565L1767.21 637.56L1766.93 636.6ZM1852.13 645L1851.66 645.885L1851.67 645.89L1852.13 645ZM1886.93 684L1886 684.36L1886.66 686.076L1887.74 684.587L1886.93 684ZM1927.13 646.2L1927.65 647.055L1927.65 647.055L1927.13 646.2ZM2060.33 656.4L2059.67 657.147L2059.67 657.155L2060.33 656.4ZM2087.93 951V952H2088.93V951H2087.93ZM2019.53 951H2018.53V952H2019.53V951ZM2018.33 736.2L2017.33 736.277L2017.33 736.28L2018.33 736.2ZM2011.13 709.8L2010.23 710.228L2010.24 710.257L2010.26 710.286L2011.13 709.8ZM1912.73 708L1911.92 707.414L1911.92 707.414L1912.73 708ZM1897.13 951V952H1898.13V951H1897.13ZM1828.73 951H1827.73V952H1828.73V951ZM1816.73 703.2L1815.9 703.761L1815.91 703.779L1815.93 703.795L1816.73 703.2ZM1748.33 691.8L1747.94 690.881L1747.93 690.884L1747.92 690.888L1748.33 691.8ZM1726.73 707.4L1726 706.715L1725.99 706.726L1725.98 706.738L1726.73 707.4ZM1711.73 732.6L1710.8 732.229L1710.79 732.245L1710.79 732.261L1711.73 732.6ZM1706.33 951V952H1707.33V951H1706.33ZM1637.93 951H1636.93V952H1637.93V951ZM1637.93 641.8H1702.73V639.8H1637.93V641.8ZM1701.73 640.8V684H1703.73V640.8H1701.73ZM1702.73 685H1704.53V683H1702.73V685ZM1705.35 684.565C1710.53 677.005 1716.1 670.045 1722.06 663.684L1720.6 662.316C1714.56 668.755 1708.93 675.795 1703.7 683.435L1705.35 684.565ZM1722.06 663.684C1728 657.347 1734.53 652.005 1741.65 647.653L1740.61 645.947C1733.33 650.395 1726.66 655.853 1720.6 662.316L1722.06 663.684ZM1741.63 647.665C1749.14 643.318 1757.65 639.95 1767.17 637.57L1766.69 635.63C1757.01 638.05 1748.32 641.482 1740.63 645.935L1741.63 647.665ZM1767.21 637.56C1776.7 634.792 1787.6 633.4 1799.93 633.4V631.4C1787.46 631.4 1776.36 632.808 1766.65 635.64L1767.21 637.56ZM1799.93 633.4C1818.57 633.4 1835.81 637.564 1851.66 645.885L1852.59 644.115C1836.45 635.636 1818.88 631.4 1799.93 631.4V633.4ZM1851.67 645.89C1867.85 654.175 1879.28 666.983 1886 684.36L1887.86 683.64C1880.98 665.817 1869.21 652.625 1852.59 644.11L1851.67 645.89ZM1887.74 684.587C1899.27 668.683 1912.57 656.179 1927.65 647.055L1926.61 645.344C1911.29 654.621 1897.79 667.317 1886.12 683.413L1887.74 684.587ZM1927.65 647.055C1942.65 637.973 1961.46 633.4 1984.13 633.4V631.4C1961.2 631.4 1942.01 636.027 1926.61 645.344L1927.65 647.055ZM1984.13 633.4C2016.77 633.4 2041.91 641.361 2059.67 657.147L2060.99 655.653C2042.75 639.439 2017.09 631.4 1984.13 631.4V633.4ZM2059.67 657.155C2077.76 672.882 2086.93 699.333 2086.93 736.8H2088.93C2088.93 699.067 2079.7 671.918 2060.99 655.645L2059.67 657.155ZM2086.93 736.8V951H2088.93V736.8H2086.93ZM2087.93 950H2019.53V952H2087.93V950ZM2020.53 951V769.8H2018.53V951H2020.53ZM2020.53 769.8C2020.53 757.379 2020.13 746.152 2019.33 736.12L2017.33 736.28C2018.13 746.248 2018.53 757.421 2018.53 769.8H2020.53ZM2019.33 736.123C2018.52 725.617 2016.09 716.669 2012 709.314L2010.26 710.286C2014.17 717.331 2016.54 725.983 2017.33 736.277L2019.33 736.123ZM2012.03 709.372C2008.34 701.572 2002.58 695.614 1994.8 691.515L1993.86 693.285C2001.28 697.186 2006.72 702.828 2010.23 710.228L2012.03 709.372ZM1994.8 691.515C1987 687.41 1976.41 685.4 1963.13 685.4V687.4C1976.25 687.4 1986.46 689.39 1993.86 693.285L1994.8 691.515ZM1963.13 685.4C1939.72 685.4 1922.56 692.677 1911.92 707.414L1913.54 708.585C1923.7 694.523 1940.14 687.4 1963.13 687.4V685.4ZM1911.92 707.414C1901.35 722.05 1896.13 742.687 1896.13 769.2H1898.13C1898.13 742.913 1903.31 722.75 1913.54 708.585L1911.92 707.414ZM1896.13 769.2V951H1898.13V769.2H1896.13ZM1897.13 950H1828.73V952H1897.13V950ZM1829.73 951V751.8H1827.73V951H1829.73ZM1829.73 751.8C1829.73 730.106 1825.72 713.653 1817.53 702.605L1815.93 703.795C1823.74 714.347 1827.73 730.294 1827.73 751.8H1829.73ZM1817.56 702.638C1809.69 691.04 1795.08 685.4 1774.13 685.4V687.4C1794.78 687.4 1808.57 692.96 1815.9 703.761L1817.56 702.638ZM1774.13 685.4C1765.19 685.4 1756.46 687.23 1747.94 690.881L1748.72 692.719C1757 689.17 1765.47 687.4 1774.13 687.4V685.4ZM1747.92 690.888C1739.79 694.545 1732.49 699.825 1726 706.715L1727.46 708.085C1733.77 701.375 1740.87 696.255 1748.74 692.712L1747.92 690.888ZM1725.98 706.738C1719.89 713.639 1714.84 722.142 1710.8 732.229L1712.66 732.971C1716.62 723.058 1721.57 714.761 1727.48 708.062L1725.98 706.738ZM1710.79 732.261C1707.14 742.39 1705.33 753.907 1705.33 766.8H1707.33C1707.33 754.093 1709.12 742.81 1712.67 732.939L1710.79 732.261ZM1705.33 766.8V951H1707.33V766.8H1705.33ZM1706.33 950H1637.93V952H1706.33V950ZM1638.93 951V640.8H1636.93V951H1638.93ZM2143.8 522.6V521.6H2142.8V522.6H2143.8ZM2212.2 522.6H2213.2V521.6H2212.2V522.6ZM2212.2 587.4V588.4H2213.2V587.4H2212.2ZM2143.8 587.4H2142.8V588.4H2143.8V587.4ZM2143.8 640.8V639.8H2142.8V640.8H2143.8ZM2212.2 640.8H2213.2V639.8H2212.2V640.8ZM2212.2 951V952H2213.2V951H2212.2ZM2143.8 951H2142.8V952H2143.8V951ZM2143.8 523.6H2212.2V521.6H2143.8V523.6ZM2211.2 522.6V587.4H2213.2V522.6H2211.2ZM2212.2 586.4H2143.8V588.4H2212.2V586.4ZM2144.8 587.4V522.6H2142.8V587.4H2144.8ZM2143.8 641.8H2212.2V639.8H2143.8V641.8ZM2211.2 640.8V951H2213.2V640.8H2211.2ZM2212.2 950H2143.8V952H2212.2V950ZM2144.8 951V640.8H2142.8V951H2144.8ZM2268.73 640.8V639.8H2267.73V640.8H2268.73ZM2333.53 640.8H2334.53V639.8H2333.53V640.8ZM2333.53 686.4H2332.53V686.814L2332.82 687.107L2333.53 686.4ZM2334.73 687.6L2334.02 688.307L2334.92 689.21L2335.58 688.117L2334.73 687.6ZM2375.53 647.4L2376.02 648.268L2376.03 648.264L2376.04 648.259L2375.53 647.4ZM2511.73 658.8L2512.39 658.056L2512.39 658.056L2511.73 658.8ZM2541.13 951V952H2542.13V951H2541.13ZM2472.73 951H2471.73V952H2472.73V951ZM2472.73 756H2473.73V755.984L2473.73 755.967L2472.73 756ZM2457.13 703.2L2456.37 703.851L2456.37 703.858L2456.38 703.864L2457.13 703.2ZM2380.93 693L2381.33 693.917L2381.34 693.91L2381.36 693.902L2380.93 693ZM2357.53 710.4L2358.27 711.064L2358.28 711.054L2358.29 711.044L2357.53 710.4ZM2342.53 736.2L2343.47 736.539L2343.47 736.539L2342.53 736.2ZM2337.13 951V952H2338.13V951H2337.13ZM2268.73 951H2267.73V952H2268.73V951ZM2268.73 641.8H2333.53V639.8H2268.73V641.8ZM2332.53 640.8V686.4H2334.53V640.8H2332.53ZM2332.82 687.107L2334.02 688.307L2335.43 686.893L2334.23 685.693L2332.82 687.107ZM2335.58 688.117C2345.9 671.057 2359.38 657.78 2376.02 648.268L2375.03 646.532C2358.08 656.22 2344.36 669.743 2333.87 687.083L2335.58 688.117ZM2376.04 648.259C2392.68 638.355 2411.1 633.4 2431.33 633.4V631.4C2410.75 631.4 2391.98 636.445 2375.02 646.541L2376.04 648.259ZM2431.33 633.4C2465.15 633.4 2491.69 642.152 2511.06 659.544L2512.39 658.056C2492.56 640.248 2465.5 631.4 2431.33 631.4V633.4ZM2511.06 659.544C2530.38 676.896 2540.13 702.984 2540.13 738H2542.13C2542.13 702.616 2532.27 675.904 2512.39 658.056L2511.06 659.544ZM2540.13 738V951H2542.13V738H2540.13ZM2541.13 950H2472.73V952H2541.13V950ZM2473.73 951V756H2471.73V951H2473.73ZM2473.73 755.967C2472.92 731.481 2467.71 713.596 2457.87 702.536L2456.38 703.864C2465.75 714.404 2470.93 731.719 2471.73 756.033L2473.73 755.967ZM2457.89 702.549C2448.03 691.052 2432.7 685.4 2412.13 685.4V687.4C2432.35 687.4 2447.02 692.948 2456.37 703.851L2457.89 702.549ZM2412.13 685.4C2400.4 685.4 2389.85 687.625 2380.5 692.098L2381.36 693.902C2390.41 689.575 2400.66 687.4 2412.13 687.4V685.4ZM2380.53 692.083C2371.19 696.144 2363.26 702.037 2356.76 709.756L2358.29 711.044C2364.59 703.563 2372.27 697.856 2381.33 693.917L2380.53 692.083ZM2356.78 709.736C2350.29 717.04 2345.22 725.754 2341.59 735.861L2343.47 736.539C2347.03 726.646 2351.97 718.16 2358.27 711.064L2356.78 709.736ZM2341.59 735.861C2337.94 745.976 2336.13 756.691 2336.13 768H2338.13C2338.13 756.909 2339.91 746.424 2343.47 736.539L2341.59 735.861ZM2336.13 768V951H2338.13V768H2336.13ZM2337.13 950H2268.73V952H2337.13V950ZM2269.73 951V640.8H2267.73V951H2269.73Z" fill="white"/>
</g>
<circle cx="495.5" cy="729.5" r="320.5" fill="#2E8555"/>
<line x1="366" y1="424" x2="366" y2="1030" stroke="white" stroke-width="50" stroke-linecap="round"/>
<line x1="301" y1="455" x2="301" y2="1002" stroke="white" stroke-width="50" stroke-linecap="round"/>
<path d="M865.5 729.5C865.5 933.845 699.845 1099.5 495.5 1099.5C291.155 1099.5 125.5 933.845 125.5 729.5C125.5 525.155 291.155 359.5 495.5 359.5C699.845 359.5 865.5 525.155 865.5 729.5ZM172.65 729.5C172.65 907.805 317.195 1052.35 495.5 1052.35C673.805 1052.35 818.35 907.805 818.35 729.5C818.35 551.195 673.805 406.65 495.5 406.65C317.195 406.65 172.65 551.195 172.65 729.5Z" fill="white" stroke="#2E8555" stroke-width="5"/>
<path d="M370 932C396.201 919.784 458.431 833.72 564 883C634.18 915.761 664 911 664 911C689.806 911 760.29 904.346 824 827" stroke="white" stroke-width="50" stroke-linecap="round"/>
<defs>
<filter id="filter0_d_201_7" x="1001.6" y="522.6" width="1543.53" height="444.8" filterUnits="userSpaceOnUse" color-interpolation-filters="sRGB">
<feFlood flood-opacity="0" result="BackgroundImageFix"/>
<feColorMatrix in="SourceAlpha" type="matrix" values="0 0 0 0 0 0 0 0 0 0 0 0 0 0 0 0 0 0 127 0" result="hardAlpha"/>
<feOffset dy="4"/>
<feGaussianBlur stdDeviation="2"/>
<feComposite in2="hardAlpha" operator="out"/>
<feColorMatrix type="matrix" values="0 0 0 0 0 0 0 0 0 0 0 0 0 0 0 0 0 0 0.25 0"/>
<feBlend mode="normal" in2="BackgroundImageFix" result="effect1_dropShadow_201_7"/>
<feBlend mode="normal" in="SourceGraphic" in2="effect1_dropShadow_201_7" result="shape"/>
</filter>
</defs>
</svg>
