<svg width="2557" height="885" viewBox="0 0 2557 885" fill="none" xmlns="http://www.w3.org/2000/svg">
<rect width="2557" height="885" fill="#3D3E3F"/>
<g filter="url(#filter0_d_201_7)">
<path d="M867.4 284.6V713H1170.4V633.8H961.6V284.6H867.4ZM1192.46 498.2C1193.66 478.2 1198.66 461.6 1207.46 448.4C1216.26 435.2 1227.46 424.6 1241.06 416.6C1254.66 408.6 1269.86 403 1286.66 399.8C1303.86 396.2 1321.06 394.4 1338.26 394.4C1353.86 394.4 1369.66 395.6 1385.66 398C1401.66 400 1416.26 404.2 1429.46 410.6C1442.66 417 1453.46 426 1461.86 437.6C1470.26 448.8 1474.46 463.8 1474.46 482.6V644C1474.46 658 1475.26 671.4 1476.86 684.2C1478.46 697 1481.26 706.6 1485.26 713H1398.86C1397.26 708.2 1395.86 703.4 1394.66 698.6C1393.86 693.4 1393.26 688.2 1392.86 683C1379.26 697 1363.26 706.8 1344.86 712.4C1326.46 718 1307.66 720.8 1288.46 720.8C1273.66 720.8 1259.86 719 1247.06 715.4C1234.26 711.8 1223.06 706.2 1213.46 698.6C1203.86 691 1196.26 681.4 1190.66 669.8C1185.46 658.2 1182.86 644.4 1182.86 628.4C1182.86 610.8 1185.86 596.4 1191.86 585.2C1198.26 573.6 1206.26 564.4 1215.86 557.6C1225.86 550.8 1237.06 545.8 1249.46 542.6C1262.26 539 1275.06 536.2 1287.86 534.2C1300.66 532.2 1313.26 530.6 1325.66 529.4C1338.06 528.2 1349.06 526.4 1358.66 524C1368.26 521.6 1375.86 518.2 1381.46 513.8C1387.06 509 1389.66 502.2 1389.26 493.4C1389.26 484.2 1387.66 477 1384.46 471.8C1381.66 466.2 1377.66 462 1372.46 459.2C1367.66 456 1361.86 454 1355.06 453.2C1348.66 452 1341.66 451.4 1334.06 451.4C1317.26 451.4 1304.06 455 1294.46 462.2C1284.86 469.4 1279.26 481.4 1277.66 498.2H1192.46ZM1389.26 561.2C1385.66 564.4 1381.06 567 1375.46 569C1370.26 570.6 1364.46 572 1358.06 573.2C1352.06 574.4 1345.66 575.4 1338.86 576.2C1332.06 577 1325.26 578 1318.46 579.2C1312.06 580.4 1305.66 582 1299.26 584C1293.26 586 1287.86 588.8 1283.06 592.4C1278.66 595.6 1275.06 599.8 1272.26 605C1269.46 610.2 1268.06 616.8 1268.06 624.8C1268.06 632.4 1269.46 638.8 1272.26 644C1275.06 649.2 1278.86 653.4 1283.66 656.6C1288.46 659.4 1294.06 661.4 1300.46 662.6C1306.86 663.8 1313.46 664.4 1320.26 664.4C1337.06 664.4 1350.06 661.6 1359.26 656C1368.46 650.4 1375.26 643.8 1379.66 636.2C1384.06 628.2 1386.66 620.2 1387.46 612.2C1388.66 604.2 1389.26 597.8 1389.26 593V561.2ZM1525 402.8V713H1610.2V533C1610.2 517.8 1612.4 505.6 1616.8 496.4C1621.2 486.8 1626.4 479.6 1632.4 474.8C1638.8 469.6 1645.2 466.2 1651.6 464.6C1658.4 462.6 1663.8 461.6 1667.8 461.6C1681.4 461.6 1691.6 464 1698.4 468.8C1705.6 473.2 1710.6 479.2 1713.4 486.8C1716.6 494.4 1718.4 502.8 1718.8 512C1719.2 520.8 1719.4 529.8 1719.4 539V713H1804.6V540.2C1804.6 530.6 1805.2 521.2 1806.4 512C1808 502.4 1810.8 494 1814.8 486.8C1819.2 479.2 1825 473.2 1832.2 468.8C1839.8 464 1849.6 461.6 1861.6 461.6C1873.6 461.6 1883 463.6 1889.8 467.6C1897 471.6 1902.4 477 1906 483.8C1909.6 490.6 1911.8 498.6 1912.6 507.8C1913.4 517 1913.8 526.8 1913.8 537.2V713H1999V505.4C1999 485.4 1996.2 468.4 1990.6 454.4C1985 440 1977.2 428.4 1967.2 419.6C1957.2 410.8 1945.2 404.4 1931.2 400.4C1917.2 396.4 1902 394.4 1885.6 394.4C1864 394.4 1845.2 399.6 1829.2 410C1813.6 420.4 1801.2 432.4 1792 446C1783.6 426.8 1771.2 413.4 1754.8 405.8C1738.8 398.2 1721 394.4 1701.4 394.4C1681 394.4 1662.8 398.8 1646.8 407.6C1631.2 416.4 1617.8 428.8 1606.6 444.8H1605.4V402.8H1525ZM2135.95 354.8V284.6H2050.75V354.8H2135.95ZM2050.75 402.8V713H2135.95V402.8H2050.75ZM2185.03 402.8V713H2270.23V550.4C2270.23 518.8 2275.43 496.2 2285.83 482.6C2296.23 468.6 2313.03 461.6 2336.23 461.6C2356.63 461.6 2370.83 468 2378.83 480.8C2386.83 493.2 2390.83 512.2 2390.83 537.8V713H2476.03V522.2C2476.03 503 2474.23 485.6 2470.63 470C2467.43 454 2461.63 440.6 2453.23 429.8C2444.83 418.6 2433.23 410 2418.43 404C2404.03 397.6 2385.43 394.4 2362.63 394.4C2344.63 394.4 2327.03 398.6 2309.83 407C2292.63 415 2278.63 428 2267.83 446H2266.03V402.8H2185.03Z" fill="white"/>
<path d="M867.4 284.6V283.6H866.4V284.6H867.4ZM867.4 713H866.4V714H867.4V713ZM1170.4 713V714H1171.4V713H1170.4ZM1170.4 633.8H1171.4V632.8H1170.4V633.8ZM961.6 633.8H960.6V634.8H961.6V633.8ZM961.6 284.6H962.6V283.6H961.6V284.6ZM866.4 284.6V713H868.4V284.6H866.4ZM867.4 714H1170.4V712H867.4V714ZM1171.4 713V633.8H1169.4V713H1171.4ZM1170.4 632.8H961.6V634.8H1170.4V632.8ZM962.6 633.8V284.6H960.6V633.8H962.6ZM961.6 283.6H867.4V285.6H961.6V283.6ZM1192.46 498.2L1191.47 498.14L1191.4 499.2H1192.46V498.2ZM1207.46 448.4L1208.3 448.955L1208.3 448.955L1207.46 448.4ZM1241.06 416.6L1241.57 417.462L1241.57 417.462L1241.06 416.6ZM1286.66 399.8L1286.85 400.782L1286.86 400.781L1286.87 400.779L1286.66 399.8ZM1385.66 398L1385.52 398.989L1385.53 398.991L1385.54 398.992L1385.66 398ZM1429.46 410.6L1429.03 411.5L1429.03 411.5L1429.46 410.6ZM1461.86 437.6L1461.05 438.186L1461.06 438.193L1461.06 438.2L1461.86 437.6ZM1476.86 684.2L1475.87 684.324L1475.87 684.324L1476.86 684.2ZM1485.26 713V714H1487.07L1486.11 712.47L1485.26 713ZM1398.86 713L1397.92 713.316L1398.14 714H1398.86V713ZM1394.66 698.6L1393.68 698.752L1393.68 698.798L1393.69 698.843L1394.66 698.6ZM1392.86 683L1393.86 682.923L1393.69 680.713L1392.15 682.303L1392.86 683ZM1344.86 712.4L1345.16 713.357L1344.86 712.4ZM1247.06 715.4L1247.33 714.437L1247.33 714.437L1247.06 715.4ZM1213.46 698.6L1212.84 699.384L1212.84 699.384L1213.46 698.6ZM1190.66 669.8L1189.75 670.209L1189.76 670.222L1189.76 670.235L1190.66 669.8ZM1191.86 585.2L1190.99 584.717L1190.98 584.728L1191.86 585.2ZM1215.86 557.6L1215.3 556.773L1215.29 556.778L1215.29 556.784L1215.86 557.6ZM1249.46 542.6L1249.71 543.568L1249.72 543.566L1249.73 543.563L1249.46 542.6ZM1287.86 534.2L1288.02 535.188L1288.02 535.188L1287.86 534.2ZM1325.66 529.4L1325.57 528.405L1325.57 528.405L1325.66 529.4ZM1358.66 524L1358.42 523.03L1358.42 523.03L1358.66 524ZM1381.46 513.8L1382.08 514.586L1382.1 514.573L1382.11 514.559L1381.46 513.8ZM1389.26 493.4H1388.26V493.423L1388.27 493.445L1389.26 493.4ZM1384.46 471.8L1383.57 472.247L1383.59 472.287L1383.61 472.324L1384.46 471.8ZM1372.46 459.2L1371.91 460.032L1371.95 460.058L1371.99 460.08L1372.46 459.2ZM1355.06 453.2L1354.88 454.183L1354.91 454.189L1354.95 454.193L1355.06 453.2ZM1277.66 498.2V499.2H1278.57L1278.66 498.295L1277.66 498.2ZM1389.26 561.2H1390.26V558.973L1388.6 560.453L1389.26 561.2ZM1375.46 569L1375.76 569.956L1375.78 569.949L1375.8 569.942L1375.46 569ZM1358.06 573.2L1357.88 572.217L1357.87 572.219L1358.06 573.2ZM1338.86 576.2L1338.75 575.207L1338.75 575.207L1338.86 576.2ZM1318.46 579.2L1318.29 578.215L1318.28 578.217L1318.46 579.2ZM1299.26 584L1298.97 583.046L1298.96 583.048L1298.95 583.051L1299.26 584ZM1283.06 592.4L1283.65 593.209L1283.66 593.204L1283.66 593.2L1283.06 592.4ZM1272.26 644L1271.38 644.474L1271.38 644.474L1272.26 644ZM1283.66 656.6L1283.11 657.432L1283.13 657.449L1283.16 657.464L1283.66 656.6ZM1300.46 662.6L1300.65 661.617L1300.65 661.617L1300.46 662.6ZM1359.26 656L1358.74 655.146L1358.74 655.146L1359.26 656ZM1379.66 636.2L1380.53 636.701L1380.53 636.692L1380.54 636.682L1379.66 636.2ZM1387.46 612.2L1386.48 612.052L1386.47 612.076L1386.47 612.1L1387.46 612.2ZM1193.46 498.26C1194.65 478.391 1199.62 461.973 1208.3 448.955L1206.63 447.845C1197.71 461.227 1192.67 478.009 1191.47 498.14L1193.46 498.26ZM1208.3 448.955C1217.01 435.88 1228.1 425.385 1241.57 417.462L1240.56 415.738C1226.83 423.815 1215.52 434.52 1206.63 447.845L1208.3 448.955ZM1241.57 417.462C1255.06 409.525 1270.15 403.963 1286.85 400.782L1286.48 398.818C1269.57 402.037 1254.26 407.675 1240.56 415.738L1241.57 417.462ZM1286.87 400.779C1304 397.193 1321.13 395.4 1338.26 395.4V393.4C1320.99 393.4 1303.73 395.207 1286.46 398.821L1286.87 400.779ZM1338.26 395.4C1353.81 395.4 1369.56 396.596 1385.52 398.989L1385.81 397.011C1369.77 394.604 1353.92 393.4 1338.26 393.4V395.4ZM1385.54 398.992C1401.44 400.98 1415.94 405.152 1429.03 411.5L1429.9 409.7C1416.59 403.248 1401.89 399.02 1385.79 397.008L1385.54 398.992ZM1429.03 411.5C1442.08 417.83 1452.75 426.723 1461.05 438.186L1462.67 437.013C1454.17 425.276 1443.25 416.17 1429.9 409.7L1429.03 411.5ZM1461.06 438.2C1469.3 449.176 1473.46 463.943 1473.46 482.6H1475.46C1475.46 463.657 1471.23 448.424 1462.66 437L1461.06 438.2ZM1473.46 482.6V644H1475.46V482.6H1473.46ZM1473.46 644C1473.46 658.038 1474.27 671.48 1475.87 684.324L1477.86 684.076C1476.26 671.32 1475.46 657.962 1475.46 644H1473.46ZM1475.87 684.324C1477.48 697.18 1480.3 706.949 1484.42 713.53L1486.11 712.47C1482.23 706.251 1479.45 696.82 1477.86 684.076L1475.87 684.324ZM1485.26 712H1398.86V714H1485.26V712ZM1399.81 712.684C1398.22 707.908 1396.83 703.132 1395.63 698.357L1393.69 698.843C1394.9 703.668 1396.31 708.492 1397.92 713.316L1399.81 712.684ZM1395.65 698.448C1394.86 693.273 1394.26 688.098 1393.86 682.923L1391.87 683.077C1392.27 688.302 1392.87 693.527 1393.68 698.752L1395.65 698.448ZM1392.15 682.303C1378.66 696.184 1362.81 705.893 1344.57 711.443L1345.16 713.357C1363.72 707.707 1379.87 697.816 1393.58 683.697L1392.15 682.303ZM1344.57 711.443C1326.27 717.015 1307.57 719.8 1288.46 719.8V721.8C1307.76 721.8 1326.66 718.985 1345.16 713.357L1344.57 711.443ZM1288.46 719.8C1273.75 719.8 1260.04 718.01 1247.33 714.437L1246.79 716.363C1259.69 719.99 1273.58 721.8 1288.46 721.8V719.8ZM1247.33 714.437C1234.65 710.87 1223.57 705.327 1214.08 697.816L1212.84 699.384C1222.56 707.073 1233.88 712.73 1246.79 716.363L1247.33 714.437ZM1214.08 697.816C1204.61 690.315 1197.1 680.836 1191.56 669.365L1189.76 670.235C1195.43 681.964 1203.12 691.685 1212.84 699.384L1214.08 697.816ZM1191.58 669.391C1186.45 657.948 1183.86 644.294 1183.86 628.4H1181.86C1181.86 644.506 1184.48 658.452 1189.75 670.209L1191.58 669.391ZM1183.86 628.4C1183.86 610.905 1186.85 596.682 1192.75 585.672L1190.98 584.728C1184.88 596.118 1181.86 610.695 1181.86 628.4H1183.86ZM1192.74 585.683C1199.08 574.198 1206.98 565.118 1216.44 558.416L1215.29 556.784C1205.55 563.682 1197.45 573.002 1190.99 584.717L1192.74 585.683ZM1216.43 558.427C1226.33 551.695 1237.42 546.741 1249.71 543.568L1249.21 541.632C1236.71 544.859 1225.4 549.905 1215.3 556.773L1216.43 558.427ZM1249.73 543.563C1262.5 539.973 1275.26 537.182 1288.02 535.188L1287.71 533.212C1274.87 535.218 1262.03 538.027 1249.19 541.637L1249.73 543.563ZM1288.02 535.188C1300.8 533.191 1313.38 531.593 1325.76 530.395L1325.57 528.405C1313.15 529.607 1300.53 531.209 1287.71 533.212L1288.02 535.188ZM1325.76 530.395C1338.2 529.192 1349.25 527.385 1358.91 524.97L1358.42 523.03C1348.88 525.415 1337.93 527.208 1325.57 528.405L1325.76 530.395ZM1358.91 524.97C1368.59 522.548 1376.34 519.1 1382.08 514.586L1380.85 513.014C1375.39 517.3 1367.93 520.652 1358.42 523.03L1358.91 524.97ZM1382.11 514.559C1388 509.519 1390.67 502.395 1390.26 493.355L1388.27 493.445C1388.65 502.005 1386.13 508.481 1380.81 513.041L1382.11 514.559ZM1390.26 493.4C1390.26 484.102 1388.65 476.694 1385.32 471.276L1383.61 472.324C1386.68 477.306 1388.26 484.298 1388.26 493.4H1390.26ZM1385.36 471.353C1382.47 465.58 1378.33 461.223 1372.94 458.32L1371.99 460.08C1377 462.777 1380.86 466.82 1383.57 472.247L1385.36 471.353ZM1373.02 458.368C1368.07 455.066 1362.11 453.022 1355.18 452.207L1354.95 454.193C1361.62 454.978 1367.26 456.934 1371.91 460.032L1373.02 458.368ZM1355.25 452.217C1348.78 451.004 1341.72 450.4 1334.06 450.4V452.4C1341.61 452.4 1348.55 452.996 1354.88 454.183L1355.25 452.217ZM1334.06 450.4C1317.13 450.4 1303.69 454.027 1293.86 461.4L1295.06 463C1304.43 455.973 1317.4 452.4 1334.06 452.4V450.4ZM1293.86 461.4C1283.96 468.829 1278.28 481.142 1276.67 498.105L1278.66 498.295C1280.24 481.658 1285.77 469.971 1295.06 463L1293.86 461.4ZM1277.66 497.2H1192.46V499.2H1277.66V497.2ZM1388.6 560.453C1385.12 563.55 1380.63 566.092 1375.13 568.058L1375.8 569.942C1381.49 567.908 1386.21 565.25 1389.93 561.947L1388.6 560.453ZM1375.17 568.044C1370.01 569.631 1364.25 571.023 1357.88 572.217L1358.25 574.183C1364.68 572.977 1370.52 571.569 1375.76 569.956L1375.17 568.044ZM1357.87 572.219C1351.9 573.414 1345.52 574.41 1338.75 575.207L1338.98 577.193C1345.8 576.39 1352.23 575.386 1358.26 574.181L1357.87 572.219ZM1338.75 575.207C1331.93 576.009 1325.11 577.012 1318.29 578.215L1318.64 580.185C1325.42 578.988 1332.2 577.991 1338.98 577.193L1338.75 575.207ZM1318.28 578.217C1311.84 579.425 1305.4 581.034 1298.97 583.046L1299.56 584.954C1305.93 582.966 1312.29 581.375 1318.65 580.183L1318.28 578.217ZM1298.95 583.051C1292.85 585.083 1287.35 587.932 1282.46 591.6L1283.66 593.2C1288.37 589.668 1293.68 586.917 1299.58 584.949L1298.95 583.051ZM1282.48 591.591C1277.94 594.887 1274.25 599.205 1271.38 604.526L1273.14 605.474C1275.88 600.395 1279.38 596.313 1283.65 593.209L1282.48 591.591ZM1271.38 604.526C1268.48 609.914 1267.06 616.691 1267.06 624.8H1269.06C1269.06 616.909 1270.45 610.486 1273.14 605.474L1271.38 604.526ZM1267.06 624.8C1267.06 632.519 1268.49 639.093 1271.38 644.474L1273.14 643.526C1270.44 638.507 1269.06 632.281 1269.06 624.8H1267.06ZM1271.38 644.474C1274.26 649.815 1278.17 654.139 1283.11 657.432L1284.22 655.768C1279.56 652.661 1275.87 648.585 1273.14 643.526L1271.38 644.474ZM1283.16 657.464C1288.07 660.33 1293.79 662.365 1300.28 663.583L1300.65 661.617C1294.34 660.435 1288.85 658.47 1284.17 655.736L1283.16 657.464ZM1300.28 663.583C1306.74 664.795 1313.4 665.4 1320.26 665.4V663.4C1313.52 663.4 1306.98 662.805 1300.65 661.617L1300.28 663.583ZM1320.26 665.4C1337.15 665.4 1350.36 662.589 1359.78 656.854L1358.74 655.146C1349.77 660.611 1336.97 663.4 1320.26 663.4V665.4ZM1359.78 656.854C1369.09 651.187 1376.03 644.475 1380.53 636.701L1378.8 635.699C1374.5 643.125 1367.83 649.613 1358.74 655.146L1359.78 656.854ZM1380.54 636.682C1385 628.58 1387.64 620.451 1388.46 612.299L1386.47 612.1C1385.68 619.949 1383.13 627.82 1378.79 635.718L1380.54 636.682ZM1388.45 612.348C1389.66 604.328 1390.26 597.872 1390.26 593H1388.26C1388.26 597.728 1387.67 604.072 1386.48 612.052L1388.45 612.348ZM1390.26 593V561.2H1388.26V593H1390.26ZM1525 402.8V401.8H1524V402.8H1525ZM1525 713H1524V714H1525V713ZM1610.2 713V714H1611.2V713H1610.2ZM1616.8 496.4L1617.7 496.831L1617.7 496.824L1617.7 496.817L1616.8 496.4ZM1632.4 474.8L1633.02 475.581L1633.03 475.576L1632.4 474.8ZM1651.6 464.6L1651.84 465.57L1651.86 465.565L1651.88 465.559L1651.6 464.6ZM1698.4 468.8L1697.82 469.617L1697.85 469.636L1697.87 469.653L1698.4 468.8ZM1713.4 486.8L1712.46 487.146L1712.46 487.167L1712.47 487.188L1713.4 486.8ZM1718.8 512L1717.8 512.043L1717.8 512.045L1718.8 512ZM1719.4 713H1718.4V714H1719.4V713ZM1804.6 713V714H1805.6V713H1804.6ZM1806.4 512L1805.41 511.836L1805.41 511.853L1805.4 511.871L1806.4 512ZM1814.8 486.8L1813.93 486.299L1813.93 486.307L1813.92 486.314L1814.8 486.8ZM1832.2 468.8L1832.72 469.653L1832.72 469.649L1832.73 469.645L1832.2 468.8ZM1889.8 467.6L1889.29 468.462L1889.3 468.468L1889.31 468.474L1889.8 467.6ZM1906 483.8L1906.88 483.332L1906.88 483.332L1906 483.8ZM1912.6 507.8L1913.59 507.713L1913.59 507.713L1912.6 507.8ZM1913.8 713H1912.8V714H1913.8V713ZM1999 713V714H2000V713H1999ZM1990.6 454.4L1989.66 454.762L1989.67 454.771L1990.6 454.4ZM1967.2 419.6L1966.53 420.351L1966.53 420.351L1967.2 419.6ZM1931.2 400.4L1930.92 401.362L1930.92 401.362L1931.2 400.4ZM1829.2 410L1828.65 409.162L1828.64 409.168L1829.2 410ZM1792 446L1791.08 446.401L1791.81 448.064L1792.82 446.56L1792 446ZM1754.8 405.8L1754.37 406.703L1754.37 406.707L1754.8 405.8ZM1646.8 407.6L1646.31 406.724L1646.3 406.729L1646.8 407.6ZM1606.6 444.8V445.8H1607.12L1607.41 445.373L1606.6 444.8ZM1605.4 444.8H1604.4V445.8H1605.4V444.8ZM1605.4 402.8H1606.4V401.8H1605.4V402.8ZM1524 402.8V713H1526V402.8H1524ZM1525 714H1610.2V712H1525V714ZM1611.2 713V533H1609.2V713H1611.2ZM1611.2 533C1611.2 517.882 1613.39 505.847 1617.7 496.831L1615.89 495.969C1611.41 505.353 1609.2 517.718 1609.2 533H1611.2ZM1617.7 496.817C1622.06 487.308 1627.18 480.254 1633.02 475.581L1631.77 474.019C1625.61 478.946 1620.33 486.292 1615.89 495.983L1617.7 496.817ZM1633.03 475.576C1639.34 470.446 1645.61 467.127 1651.84 465.57L1651.35 463.63C1644.78 465.273 1638.25 468.754 1631.76 474.024L1633.03 475.576ZM1651.88 465.559C1658.64 463.569 1663.94 462.6 1667.8 462.6V460.6C1663.65 460.6 1658.15 461.631 1651.31 463.641L1651.88 465.559ZM1667.8 462.6C1681.31 462.6 1691.26 464.99 1697.82 469.617L1698.97 467.983C1691.93 463.01 1681.48 460.6 1667.8 460.6V462.6ZM1697.87 469.653C1704.89 473.941 1709.74 479.766 1712.46 487.146L1714.33 486.454C1711.45 478.634 1706.3 472.459 1698.92 467.947L1697.87 469.653ZM1712.47 487.188C1715.62 494.667 1717.4 502.948 1717.8 512.043L1719.79 511.957C1719.39 502.652 1717.57 494.133 1714.32 486.412L1712.47 487.188ZM1717.8 512.045C1718.2 520.83 1718.4 529.814 1718.4 539H1720.4C1720.4 529.786 1720.2 520.77 1719.79 511.955L1717.8 512.045ZM1718.4 539V713H1720.4V539H1718.4ZM1719.4 714H1804.6V712H1719.4V714ZM1805.6 713V540.2H1803.6V713H1805.6ZM1805.6 540.2C1805.6 530.642 1806.19 521.285 1807.39 512.129L1805.4 511.871C1804.2 521.115 1803.6 530.558 1803.6 540.2H1805.6ZM1807.38 512.164C1808.97 502.657 1811.73 494.369 1815.67 487.286L1813.92 486.314C1809.86 493.631 1807.02 502.143 1805.41 511.836L1807.38 512.164ZM1815.66 487.301C1819.98 479.839 1825.66 473.963 1832.72 469.653L1831.67 467.947C1824.33 472.437 1818.41 478.561 1813.93 486.299L1815.66 487.301ZM1832.73 469.645C1840.12 464.975 1849.72 462.6 1861.6 462.6V460.6C1849.47 460.6 1839.47 463.025 1831.66 467.955L1832.73 469.645ZM1861.6 462.6C1873.5 462.6 1882.7 464.588 1889.29 468.462L1890.3 466.738C1883.29 462.612 1873.69 460.6 1861.6 460.6V462.6ZM1889.31 468.474C1896.35 472.387 1901.61 477.651 1905.11 484.268L1906.88 483.332C1903.18 476.349 1897.64 470.813 1890.28 466.726L1889.31 468.474ZM1905.11 484.268C1908.64 490.928 1910.81 498.794 1911.6 507.887L1913.59 507.713C1912.78 498.406 1910.55 490.272 1906.88 483.332L1905.11 484.268ZM1911.6 507.887C1912.4 517.054 1912.8 526.825 1912.8 537.2H1914.8C1914.8 526.775 1914.39 516.945 1913.59 507.713L1911.6 507.887ZM1912.8 537.2V713H1914.8V537.2H1912.8ZM1913.8 714H1999V712H1913.8V714ZM2000 713V505.4H1998V713H2000ZM2000 505.4C2000 485.312 1997.18 468.178 1991.52 454.029L1989.67 454.771C1995.21 468.622 1998 485.488 1998 505.4H2000ZM1991.53 454.038C1985.88 439.512 1977.99 427.771 1967.86 418.849L1966.53 420.351C1976.4 429.029 1984.11 440.488 1989.66 454.762L1991.53 454.038ZM1967.86 418.849C1957.73 409.942 1945.6 403.475 1931.47 399.438L1930.92 401.362C1944.79 405.325 1956.66 411.658 1966.53 420.351L1967.86 418.849ZM1931.47 399.438C1917.37 395.41 1902.08 393.4 1885.6 393.4V395.4C1901.91 395.4 1917.02 397.39 1930.92 401.362L1931.47 399.438ZM1885.6 393.4C1863.83 393.4 1844.83 398.643 1828.65 409.162L1829.74 410.838C1845.56 400.557 1864.16 395.4 1885.6 395.4V393.4ZM1828.64 409.168C1812.95 419.63 1800.45 431.718 1791.17 445.44L1792.82 446.56C1801.94 433.082 1814.24 421.17 1829.75 410.832L1828.64 409.168ZM1792.91 445.599C1784.43 426.213 1771.87 412.611 1755.22 404.893L1754.37 406.707C1770.52 414.188 1782.76 427.387 1791.08 446.401L1792.91 445.599ZM1755.22 404.897C1739.08 397.227 1721.13 393.4 1701.4 393.4V395.4C1720.86 395.4 1738.51 399.173 1754.37 406.703L1755.22 404.897ZM1701.4 393.4C1680.85 393.4 1662.48 397.833 1646.31 406.724L1647.28 408.476C1663.11 399.767 1681.14 395.4 1701.4 395.4V393.4ZM1646.3 406.729C1630.56 415.609 1617.05 428.115 1605.78 444.227L1607.41 445.373C1618.54 429.485 1631.83 417.191 1647.29 408.471L1646.3 406.729ZM1606.6 443.8H1605.4V445.8H1606.6V443.8ZM1606.4 444.8V402.8H1604.4V444.8H1606.4ZM1605.4 401.8H1525V403.8H1605.4V401.8ZM2135.95 354.8V355.8H2136.95V354.8H2135.95ZM2135.95 284.6H2136.95V283.6H2135.95V284.6ZM2050.75 284.6V283.6H2049.75V284.6H2050.75ZM2050.75 354.8H2049.75V355.8H2050.75V354.8ZM2050.75 402.8V401.8H2049.75V402.8H2050.75ZM2050.75 713H2049.75V714H2050.75V713ZM2135.95 713V714H2136.95V713H2135.95ZM2135.95 402.8H2136.95V401.8H2135.95V402.8ZM2136.95 354.8V284.6H2134.95V354.8H2136.95ZM2135.95 283.6H2050.75V285.6H2135.95V283.6ZM2049.75 284.6V354.8H2051.75V284.6H2049.75ZM2050.75 355.8H2135.95V353.8H2050.75V355.8ZM2049.75 402.8V713H2051.75V402.8H2049.75ZM2050.75 714H2135.95V712H2050.75V714ZM2136.95 713V402.8H2134.95V713H2136.95ZM2135.95 401.8H2050.75V403.8H2135.95V401.8ZM2185.03 402.8V401.8H2184.03V402.8H2185.03ZM2185.03 713H2184.03V714H2185.03V713ZM2270.23 713V714H2271.23V713H2270.23ZM2285.83 482.6L2286.63 483.208L2286.64 483.196L2285.83 482.6ZM2378.83 480.8L2377.98 481.33L2377.99 481.336L2377.99 481.342L2378.83 480.8ZM2390.83 713H2389.83V714H2390.83V713ZM2476.03 713V714H2477.03V713H2476.03ZM2470.63 470L2469.65 470.196L2469.66 470.211L2469.66 470.225L2470.63 470ZM2453.23 429.8L2452.43 430.4L2452.44 430.407L2452.44 430.414L2453.23 429.8ZM2418.43 404L2418.03 404.914L2418.04 404.92L2418.06 404.927L2418.43 404ZM2309.83 407L2310.25 407.907L2310.26 407.903L2310.27 407.899L2309.83 407ZM2267.83 446V447H2268.4L2268.69 446.514L2267.83 446ZM2266.03 446H2265.03V447H2266.03V446ZM2266.03 402.8H2267.03V401.8H2266.03V402.8ZM2184.03 402.8V713H2186.03V402.8H2184.03ZM2185.03 714H2270.23V712H2185.03V714ZM2271.23 713V550.4H2269.23V713H2271.23ZM2271.23 550.4C2271.23 518.858 2276.43 496.538 2286.63 483.207L2285.04 481.993C2274.43 495.862 2269.23 518.742 2269.23 550.4H2271.23ZM2286.64 483.196C2296.79 469.529 2313.24 462.6 2336.23 462.6V460.6C2312.83 460.6 2295.68 467.671 2285.03 482.004L2286.64 483.196ZM2336.23 462.6C2356.42 462.6 2370.23 468.921 2377.98 481.33L2379.68 480.27C2371.44 467.079 2356.84 460.6 2336.23 460.6V462.6ZM2377.99 481.342C2385.84 493.501 2389.83 512.268 2389.83 537.8H2391.83C2391.83 512.132 2387.83 492.899 2379.67 480.258L2377.99 481.342ZM2389.83 537.8V713H2391.83V537.8H2389.83ZM2390.83 714H2476.03V712H2390.83V714ZM2477.03 713V522.2H2475.03V713H2477.03ZM2477.03 522.2C2477.03 502.939 2475.23 485.462 2471.61 469.775L2469.66 470.225C2473.24 485.738 2475.03 503.061 2475.03 522.2H2477.03ZM2471.61 469.804C2468.39 453.681 2462.53 440.13 2454.02 429.186L2452.44 430.414C2460.73 441.07 2466.48 454.319 2469.65 470.196L2471.61 469.804ZM2454.03 429.2C2445.51 417.835 2433.75 409.132 2418.81 403.073L2418.06 404.927C2432.71 410.868 2444.16 419.365 2452.43 430.4L2454.03 429.2ZM2418.84 403.086C2404.27 396.61 2385.52 393.4 2362.63 393.4V395.4C2385.35 395.4 2403.8 398.59 2418.03 404.914L2418.84 403.086ZM2362.63 393.4C2344.47 393.4 2326.72 397.639 2309.39 406.101L2310.27 407.899C2327.34 399.561 2344.79 395.4 2362.63 395.4V393.4ZM2309.41 406.093C2292.01 414.186 2277.87 427.333 2266.98 445.485L2268.69 446.514C2279.4 428.667 2293.25 415.814 2310.25 407.907L2309.41 406.093ZM2267.83 445H2266.03V447H2267.83V445ZM2267.03 446V402.8H2265.03V446H2267.03ZM2266.03 401.8H2185.03V403.8H2266.03V401.8Z" fill="white"/>
</g>
<circle cx="432.5" cy="446.5" r="320.5" fill="#2E8555"/>
<line x1="302" y1="141" x2="302" y2="747" stroke="white" stroke-width="50" stroke-linecap="round"/>
<line x1="237" y1="172" x2="237" y2="719" stroke="white" stroke-width="50" stroke-linecap="round"/>
<path d="M802.5 446.5C802.5 650.845 636.845 816.5 432.5 816.5C228.155 816.5 62.5 650.845 62.5 446.5C62.5 242.155 228.155 76.5 432.5 76.5C636.845 76.5 802.5 242.155 802.5 446.5ZM109.65 446.5C109.65 624.805 254.195 769.35 432.5 769.35C610.805 769.35 755.35 624.805 755.35 446.5C755.35 268.195 610.805 123.65 432.5 123.65C254.195 123.65 109.65 268.195 109.65 446.5Z" fill="white" stroke="#2E8555" stroke-width="5"/>
<path d="M307 649C333.201 636.784 395.431 550.72 501 600C571.18 632.761 601 628 601 628C626.806 628 697.29 621.346 761 544" stroke="white" stroke-width="50" stroke-linecap="round"/>
<defs>
<filter id="filter0_d_201_7" x="863.4" y="284.6" width="1616.63" height="444.2" filterUnits="userSpaceOnUse" color-interpolation-filters="sRGB">
<feFlood flood-opacity="0" result="BackgroundImageFix"/>
<feColorMatrix in="SourceAlpha" type="matrix" values="0 0 0 0 0 0 0 0 0 0 0 0 0 0 0 0 0 0 127 0" result="hardAlpha"/>
<feOffset dy="4"/>
<feGaussianBlur stdDeviation="2"/>
<feComposite in2="hardAlpha" operator="out"/>
<feColorMatrix type="matrix" values="0 0 0 0 0 0 0 0 0 0 0 0 0 0 0 0 0 0 0.25 0"/>
<feBlend mode="normal" in2="BackgroundImageFix" result="effect1_dropShadow_201_7"/>
<feBlend mode="normal" in="SourceGraphic" in2="effect1_dropShadow_201_7" result="shape"/>
</filter>
</defs>
</svg>
